<svg id="Layer_3" enable-background="new 0 0 64 64" height="512" viewBox="0 0 64 64" width="512" xmlns="http://www.w3.org/2000/svg"><path d="m14 57c2.761 0 5 2.239 5 5 0-2.761 2.239-5 5-5-2.761 0-5-2.239-5-5 0 2.761-2.239 5-5 5z"/><path d="m2 50c2.761 0 5 2.239 5 5 0-2.761 2.239-5 5-5-2.761 0-5-2.239-5-5 0 2.761-2.239 5-5 5z"/><path d="m2 7c2.761 0 5 2.239 5 5 0-2.761 2.239-5 5-5-2.761 0-5-2.239-5-5 0 2.761-2.239 5-5 5z"/><path d="m54 45c0-.551-.448-1-1-1s-1 .449-1 1v3h-2v-3-4c0-.551-.448-1-1-1s-1 .449-1 1v2 5h-2v-5-2-2c0-.551-.448-1-1-1s-1 .449-1 1v2 2 5h-2v-5-2c0-.551-.448-1-1-1s-1 .449-1 1v10 3h-2v-3c0-.551-.448-1-1-1s-1 .449-1 1v3.465l5.555 3.703c.278.186.445.498.445.832v2h10v-3c0-.265.105-.52.293-.707l1.707-1.707z"/><path d="m60.395 35.605c.396-.594.605-1.286.605-2 0-1.988-1.617-3.605-3.605-3.605-.714 0-1.405.209-2 .605l-.68.453c-2.887 1.925-6.246 2.942-9.715 2.942s-6.828-1.017-9.715-2.941l-.68-.453c-.595-.396-1.286-.605-2-.605-1.988-.001-3.605 1.616-3.605 3.604 0 .714.209 1.406.605 2l.73 1.096c1.744 2.614 2.665 5.656 2.665 8.799s-.921 6.185-2.664 8.799l-.73 1.096c-.396.594-.605 1.286-.605 2-.001 1.988 1.616 3.605 3.604 3.605.714 0 1.405-.209 2-.605l.68-.453c.936-.624 1.931-1.142 2.963-1.574l-3.803-2.535c-.278-.187-.445-.499-.445-.833v-4c0-1.654 1.346-3 3-3 .352 0 .686.072 1 .184v-7.184c0-1.654 1.346-3 3-3 .395 0 .77.081 1.116.22.346-1.275 1.501-2.22 2.884-2.22s2.539.945 2.884 2.22c.346-.139.721-.22 1.116-.22 1.654 0 3 1.346 3 3v1.184c.314-.112.648-.184 1-.184 1.654 0 3 1.346 3 3v11c0 .265-.105.52-.293.707l-1.707 1.707v1.092c.239.143.482.28.715.435l.68.453c.595.396 1.286.605 2 .605 1.988.001 3.605-1.616 3.605-3.604 0-.714-.209-1.406-.605-2l-.73-1.096c-1.744-2.614-2.665-5.656-2.665-8.799s.921-6.185 2.664-8.799z"/><path d="m16 29c-3.859 0-7 3.14-7 7s3.141 7 7 7 7-3.14 7-7-3.141-7-7-7zm0 12c-2.757 0-5-2.243-5-5s2.243-5 5-5 5 2.243 5 5-2.243 5-5 5z"/><circle cx="16" cy="36" r="3"/><path d="m5 23.183-2 .571v3.246h2z"/><path d="m29.68 8.428-5.891 9.572h14.211v-11h-5.765c-1.049 0-2.005.534-2.555 1.428z"/><path d="m60 20c-.405 0-.771-.245-.925-.619l-4.96-12.046c-1.084-2.633-3.625-4.335-6.472-4.335h-16.29c-2.385 0-4.582 1.195-5.877 3.197l-8.636 13.346c-.132.203-.332.352-.565.418l-9.275 2.65v5.389c0 .552-.447 1-1 1h-3v6h4.059c.499-4.493 4.316-8 8.941-8s8.442 3.507 8.941 8h2.247c-.116-.453-.188-.919-.188-1.395 0-3.09 2.515-5.605 5.605-5.605 1.11 0 2.186.326 3.109.941l.68.453c2.557 1.705 5.533 2.606 8.606 2.606s6.049-.901 8.605-2.605l.68-.453c.924-.616 1.999-.942 3.11-.942 1.373 0 2.63.498 3.605 1.32v-9.32zm-20 4h-4v-2h4zm-18-4c-.362 0-.696-.196-.873-.512s-.169-.703.021-1.012l6.829-11.096c.918-1.49 2.509-2.38 4.258-2.38h15.018c2.053 0 3.929 1.288 4.667 3.205l4.014 10.436c.118.308.077.653-.109.925-.187.272-.496.434-.825.434zm34 4h-4v-2h4z"/><path d="m47.253 7h-7.253v11h13.544l-3.491-9.077c-.443-1.15-1.569-1.923-2.8-1.923z"/></svg>