<svg width="34" height="34" viewBox="0 0 34 34" fill="none" xmlns="http://www.w3.org/2000/svg">
<g id="ic-security-safety" clip-path="url(#clip0_291_320)">
<g id="Layer">
<g id="Vrstva 302">
<path id="Vector" d="M25.978 6.75039C25.0505 6.8034 24.1202 6.72897 23.2129 6.52919C22.1185 6.15445 21.095 5.59828 20.1851 4.88395C19.4067 4.33216 18.6676 3.72699 17.973 3.07281C17.6786 2.79776 17.2907 2.64478 16.8877 2.64478C16.4848 2.64478 16.0969 2.79776 15.8024 3.07281C15.1263 3.70631 14.4155 4.30172 13.6733 4.8563C12.7578 5.58002 11.7304 6.14972 10.6317 6.54301C9.59829 6.77651 8.53671 6.86032 7.47947 6.79187C6.6138 6.75602 5.75073 6.67295 4.89411 6.54301C4.68478 6.51198 4.47135 6.52342 4.26654 6.57665C4.06173 6.62987 3.86974 6.7238 3.70201 6.85282C3.53428 6.98184 3.39425 7.14332 3.29027 7.32762C3.18629 7.51193 3.12049 7.71528 3.09679 7.92556C3.02766 8.58919 2.84793 10.3174 2.76498 12.2391C2.64873 14.1592 2.76946 16.0862 3.12444 17.9767C4.12547 21.1088 5.96655 23.9063 8.44726 26.0646C10.419 27.9245 12.5571 29.5998 14.8346 31.0695C15.445 31.4886 16.1681 31.7129 16.9085 31.7129C17.6489 31.7129 18.3719 31.4886 18.9823 31.0695C21.139 29.5615 23.1564 27.8634 25.0102 25.9955C27.3457 23.8214 29.0753 21.077 30.0289 18.032" stroke="#1A202C" stroke-width="2.59228" stroke-linecap="round" stroke-linejoin="round"/>
<path id="Vector_2" d="M15.2083 15.7787L19.1623 19.7328C19.187 19.7596 19.2169 19.781 19.2502 19.7957C19.2835 19.8103 19.3195 19.8179 19.3559 19.8179C19.3923 19.8179 19.4283 19.8103 19.4616 19.7957C19.4949 19.781 19.5249 19.7596 19.5495 19.7328L30.4163 8.86597" stroke="#3563E9" stroke-width="2.59228" stroke-linecap="round" stroke-linejoin="round"/>
</g>
</g>
</g>
<defs>
<clipPath id="clip0_291_320">
<rect width="33.1812" height="33.1812" fill="white" transform="translate(0 0.570557)"/>
</clipPath>
</defs>
</svg>
