<?xml version="1.0" encoding="iso-8859-1"?>
<!-- Generator: Adobe Illustrator 19.0.0, SVG Export Plug-In . SVG Version: 6.00 Build 0)  -->
<svg version="1.1" id="Capa_1" xmlns="http://www.w3.org/2000/svg" xmlns:xlink="http://www.w3.org/1999/xlink" x="0px" y="0px"
	 viewBox="0 0 512 512" style="enable-background:new 0 0 512 512;" xml:space="preserve">
<g>
	<g>
		<path d="M309.979,0H171.698c-24.815,0-45.004,20.189-45.004,45.004c0,24.815,20.189,45.004,45.004,45.004h139.742
			c20.374,0,39.516,7.999,53.901,22.523c14.38,14.52,22.191,33.742,21.994,54.125c-0.341,35.247-25.408,64.89-58.792,72.964
			c-17.662,25.123-43.139,44.366-72.871,54.172v38.022h55.768c44.338,0,86.042-17.334,117.429-48.809
			c31.385-31.472,48.601-73.225,48.478-117.568C477.093,74.215,402.012,0,309.979,0z"/>
	</g>
</g>
<g>
	<g>
		<path d="M225.67,361.914v-90.913v-0.988c55.796-7.367,99-55.237,99-113.013v-13.944H96.668V157
			c0,57.776,43.203,105.646,98.999,113.013v0.988v90.913H139.71c-4.092,0-7.925-1.626-10.792-4.579
			c-2.863-2.95-4.373-6.834-4.251-10.935c0.239-8.042,7.274-14.584,15.682-14.584h25.314v-38.022
			c-25.734-8.488-48.279-24.044-65.329-44.365c-13.047,5.281-25.018,13.216-35.244,23.542
			c-19.899,20.094-30.708,46.703-30.434,74.928c0.557,57.359,48.199,104.024,106.201,104.024h54.809v30.075h-83.998V512h197.999
			v-30.003h-83.998v-30.075h74.886c41.359,0,75.007-33.648,75.007-75.007v-15.001H225.67z"/>
	</g>
</g>
<g>
</g>
<g>
</g>
<g>
</g>
<g>
</g>
<g>
</g>
<g>
</g>
<g>
</g>
<g>
</g>
<g>
</g>
<g>
</g>
<g>
</g>
<g>
</g>
<g>
</g>
<g>
</g>
<g>
</g>
</svg>
