<svg id="Capa_1" enable-background="new 0 0 510 510" height="512" viewBox="0 0 510 510" width="512" xmlns="http://www.w3.org/2000/svg"><path d="m360.71 338.003 149.29 140.88v-239.33c-34.985 23.066-121.068 79.838-149.29 98.45z"/><path d="m0 239.553v239.33l149.29-140.88c-126.878-83.675-81.518-53.764-149.29-98.45z"/><path d="m263.26 402.273c-5.031 3.307-11.49 3.307-16.52 0l-71.73-47.3-152.26 143.69h464.5l-152.26-143.69z"/><path d="m53.83 174.343-41.6 37.34c27.805 18.333 18.355 12.104 41.6 27.42 0-6.469 0-56.968 0-64.76z"/><path d="m261.364 13.623c-3.695-3.048-9.033-3.048-12.728 0l-45.976 37.93h104.68z"/><path d="m456.17 174.343v64.76c23.189-15.278 13.779-9.076 41.6-27.42z"/><path d="m426.17 258.903v-167.35c0-5.523-4.477-10-10-10h-322.34c-5.523 0-10 4.477-10 10v167.35l171.17 112.88zm-203.44-70.46c-8.28 0-15-6.72-15-15 0-26.571 21.842-47.9 48.4-47.26 25.27.6 45.53 20.86 46.12 46.12.465 19.243-8.636 29.478-19.22 39.38-8.11 7.461-13.03 17.677-13.03 29.58 0 8.246-6.679 15-15 15-8.307 0-15-6.741-15-15 0-43.661 32.66-51.73 32.26-68.25-.21-9.07-7.77-16.62-16.84-16.83-9.701-.229-17.69 7.535-17.69 17.26 0 8.247-6.666 15-15 15zm17.28 105.18c-.01-.15-.01-.31-.01-.46v-9.89c0-8.28 6.72-15 15-15s15 6.72 15 15v9.89c0 .15 0 .31-.01.46-.24 8.07-6.86 14.54-14.99 14.54s-14.75-6.47-14.99-14.54z"/></svg>