<?xml version="1.0" encoding="utf-8"?>
<!-- Generator: Adobe Illustrator 24.0.0, SVG Export Plug-In . SVG Version: 6.00 Build 0)  -->
<svg version="1.1" id="Layer_1" xmlns="http://www.w3.org/2000/svg" xmlns:xlink="http://www.w3.org/1999/xlink" x="0px" y="0px"
	 viewBox="0 0 697.4 1080" style="enable-background:new 0 0 697.4 1080;" xml:space="preserve">
<path d="M204.89,520.91v209.08c0,79.42,64.38,143.81,143.81,143.81h0c79.42,0,143.81-64.38,143.81-143.81V520.91H204.89z"/>
<path d="M682.46,520.91H524.12l1.01,202.79c0.59,98.49-79.84,178.26-178.32,176.85h0c-95.06-1.36-171.81-78.04-173.27-173.09
	l-2.61-206.54H14.11l-0.02,216.51c0,183.75,148.35,333.03,332.09,334.18h0c185.38,1.16,336.28-148.8,336.28-334.18L682.46,520.91z
	 M65.68,621.75c0-17.99,14.59-32.58,32.58-32.58s32.58,14.59,32.58,32.58c0,17.99-14.59,32.58-32.58,32.58
	S65.68,639.75,65.68,621.75z M109.52,873.82c-17.99,0-32.58-14.59-32.58-32.58s14.59-32.58,32.58-32.58s32.58,14.59,32.58,32.58
	S127.51,873.82,109.52,873.82z M348.27,1016.63c-17.99,0-32.58-14.59-32.58-32.58s14.59-32.58,32.58-32.58s32.58,14.59,32.58,32.58
	S366.27,1016.63,348.27,1016.63z M591.77,873.82c-17.99,0-32.58-14.59-32.58-32.58s14.59-32.58,32.58-32.58s32.58,14.59,32.58,32.58
	S609.76,873.82,591.77,873.82z M609.55,654.33c-17.99,0-32.58-14.59-32.58-32.58c0-17.99,14.59-32.58,32.58-32.58
	c17.99,0,32.58,14.59,32.58,32.58C642.13,639.75,627.55,654.33,609.55,654.33z"/>
<path d="M14.11,493.26h669.21c0-164.86-119.23-301.86-276.16-329.51c0.7-10.88,2.65-22.44,5.29-33.43
	c2.9-11.76,6.74-23.3,11.69-34.35c9.83-22.08,24.45-42.19,43.82-56.85c2.48-1.74,4.84-3.67,7.42-5.26l7.8-4.73
	c5.43-2.73,10.85-5.58,16.63-7.6l4.28-1.67c1.44-0.52,2.93-0.89,4.39-1.34c2.95-0.84,5.87-1.8,8.85-2.54
	c6.03-1.18,12.03-2.7,18.19-3.23c24.54-3.09,49.71-1.31,74.22,3.38c-24.24-5.93-49.4-9.06-74.61-7.2
	c-6.32,0.22-12.54,1.46-18.82,2.36c-3.11,0.6-6.18,1.44-9.27,2.15c-1.54,0.39-3.11,0.7-4.63,1.16l-4.53,1.51
	c-6.13,1.81-11.94,4.48-17.8,7.07l-8.47,4.56c-2.81,1.54-5.41,3.44-8.13,5.16c-21.33,14.47-38.09,35.19-49.72,58.11
	c-5.86,11.47-10.55,23.5-14.27,35.81c-3.31,11.34-5.9,22.56-7.38,34.64c-14.21-1.84-28.7-2.8-43.42-2.8
	c-14.62,0-29.03,0.94-43.15,2.76c-1.48-12.07-4.07-23.27-7.37-34.61c-3.72-12.32-8.41-24.34-14.27-35.81
	c-11.62-22.91-28.39-43.63-49.72-58.11c-2.72-1.71-5.32-3.61-8.13-5.16l-8.47-4.56c-5.86-2.59-11.67-5.26-17.8-7.07l-4.53-1.51
	c-1.52-0.46-3.09-0.77-4.63-1.16c-3.1-0.71-6.16-1.55-9.27-2.15c-6.28-0.9-12.49-2.14-18.82-2.36c-25.2-1.87-50.37,1.26-74.61,7.2
	c24.51-4.69,49.68-6.48,74.22-3.38c6.17,0.53,12.16,2.05,18.19,3.23c2.98,0.74,5.91,1.7,8.85,2.54c1.46,0.45,2.96,0.82,4.39,1.34
	l4.28,1.67c5.78,2.03,11.2,4.88,16.63,7.6l7.8,4.73c2.58,1.59,4.94,3.52,7.42,5.26c19.37,14.67,33.99,34.78,43.82,56.85
	c4.95,11.05,8.79,22.59,11.69,34.35c2.63,10.97,4.58,22.52,5.29,33.39C133.47,191.24,14.11,328.3,14.11,493.26z M459.74,281.23
	c18.1,0,32.78,20.02,32.78,44.72s-14.67,44.72-32.78,44.72s-32.78-20.02-32.78-44.72S441.64,281.23,459.74,281.23z M237.68,281.23
	c18.1,0,32.78,20.02,32.78,44.72s-14.67,44.72-32.78,44.72c-18.1,0-32.78-20.02-32.78-44.72S219.58,281.23,237.68,281.23z"/>
</svg>
