<?xml version="1.0" standalone="no"?>
<!DOCTYPE svg PUBLIC "-//W3C//DTD SVG 20010904//EN"
 "http://www.w3.org/TR/2001/REC-SVG-20010904/DTD/svg10.dtd">
<svg version="1.0" xmlns="http://www.w3.org/2000/svg"
 width="660.000000pt" height="660.000000pt" viewBox="0 0 660.000000 660.000000"
 preserveAspectRatio="xMidYMid meet">

<g transform="translate(0.000000,660.000000) scale(0.100000,-0.100000)"
fill="#000000" stroke="none">
<path d="M0 5500 l0 -1100 1240 0 c834 0 1240 3 1240 10 0 6 -25 60 -56 121
-30 61 -54 112 -52 114 2 1 54 -53 116 -121 l114 -124 140 0 140 0 -6 28 c-16
82 -67 424 -64 427 2 3 52 -98 111 -223 l106 -227 94 -3 93 -3 33 246 c19 135
37 260 41 278 7 35 5 49 59 -331 l27 -187 93 0 92 0 107 228 c59 125 108 223
110 218 3 -8 -49 -350 -64 -423 l-6 -28 144 1 143 1 113 124 c61 68 112 122
112 121 0 -2 -25 -57 -55 -121 -30 -64 -55 -118 -55 -121 0 -3 560 -5 1245 -5
l1245 0 0 1100 0 1100 -3300 0 -3300 0 0 -1100z"/>
<path d="M0 1090 l0 -1090 3300 0 3300 0 0 1090 0 1090 -1120 0 c-616 0 -1120
-2 -1120 -5 0 -3 14 -24 30 -47 17 -22 30 -45 30 -50 0 -5 -30 16 -67 47 l-67
55 -193 0 c-106 0 -193 -3 -193 -7 0 -5 27 -91 60 -193 32 -101 58 -186 56
-187 -2 -2 -61 84 -132 192 l-129 195 -109 0 -109 0 7 -267 c4 -164 3 -264 -3
-258 -5 6 -32 89 -61 185 -28 96 -62 212 -76 258 l-25 82 -84 0 -84 0 -25 -82
c-13 -46 -48 -162 -77 -258 -28 -96 -56 -179 -61 -185 -7 -7 -8 83 -3 258 l7
267 -108 0 -109 0 -129 -195 c-71 -108 -131 -194 -132 -192 -2 2 23 87 56 191
33 103 60 189 60 192 0 2 -87 4 -192 4 l-193 0 -69 -55 c-38 -30 -71 -55 -73
-55 -2 0 9 19 25 43 16 23 32 48 36 55 6 9 -219 12 -1108 12 l-1116 0 0 -1090z"/>
</g>
</svg>
