<svg width="30" height="30" viewBox="0 0 30 30" fill="none" xmlns="http://www.w3.org/2000/svg">
<g id="Group 253">
<circle id="Ellipse 321" cx="15" cy="15" r="15" fill="#D80800"/>
<path id="Vector" d="M24 15C24 15.1989 23.921 15.3897 23.7803 15.5303C23.6397 15.671 23.4489 15.75 23.25 15.75H15.75V23.25C15.75 23.4489 15.671 23.6397 15.5303 23.7803C15.3897 23.921 15.1989 24 15 24C14.8011 24 14.6103 23.921 14.4697 23.7803C14.329 23.6397 14.25 23.4489 14.25 23.25V15.75H6.75C6.55109 15.75 6.36032 15.671 6.21967 15.5303C6.07902 15.3897 6 15.1989 6 15C6 14.8011 6.07902 14.6103 6.21967 14.4697C6.36032 14.329 6.55109 14.25 6.75 14.25H14.25V6.75C14.25 6.55109 14.329 6.36032 14.4697 6.21967C14.6103 6.07902 14.8011 6 15 6C15.1989 6 15.3897 6.07902 15.5303 6.21967C15.671 6.36032 15.75 6.55109 15.75 6.75V14.25H23.25C23.4489 14.25 23.6397 14.329 23.7803 14.4697C23.921 14.6103 24 14.8011 24 15Z" fill="white"/>
</g>
</svg>
