<svg width="25" height="24" viewBox="0 0 25 24" fill="none" xmlns="http://www.w3.org/2000/svg">
<g id="airplane">
<path id="Vector" d="M9.24782 21.75H8.00001C7.87463 21.75 7.75126 21.7185 7.64118 21.6585C7.53111 21.5984 7.43783 21.5118 7.3699 21.4064C7.30196 21.301 7.26153 21.1803 7.25229 21.0552C7.24306 20.9302 7.26532 20.8048 7.31704 20.6906L10.3386 14.0227L5.80157 13.9219L4.14688 15.9267C3.83141 16.3233 3.57969 16.5 2.93751 16.5H2.09751C1.96451 16.5043 1.83244 16.4764 1.71249 16.4188C1.59254 16.3612 1.48825 16.2755 1.40844 16.1691C1.29688 16.0186 1.18719 15.7636 1.29407 15.3998L2.22313 12.0717C2.23016 12.0469 2.2386 12.022 2.24798 11.9977C2.24844 11.9953 2.24844 11.9929 2.24798 11.9906C2.23829 11.9663 2.23 11.9414 2.22313 11.9161L1.29313 8.56687C1.19235 8.21016 1.30251 7.96078 1.41313 7.81406C1.48742 7.71549 1.58379 7.63573 1.69451 7.58118C1.80524 7.52664 1.92721 7.49883 2.05063 7.5H2.93751C3.41704 7.5 3.88251 7.71516 4.15626 8.0625L5.77673 10.0336L10.3386 9.96609L7.31798 3.30984C7.26618 3.19568 7.24384 3.07036 7.25298 2.94533C7.26211 2.8203 7.30245 2.69956 7.37029 2.59414C7.43813 2.48872 7.53131 2.40198 7.64132 2.34186C7.75132 2.28175 7.87464 2.25016 8.00001 2.25H9.26141C9.43739 2.25354 9.61032 2.29667 9.76734 2.3762C9.92437 2.45572 10.0615 2.5696 10.1684 2.70937L16.0302 9.83438L18.7381 9.76312C18.9364 9.75234 19.4858 9.74859 19.6128 9.74859C22.2031 9.75 23.75 10.5909 23.75 12C23.75 12.4434 23.5728 13.2656 22.3874 13.7887C21.6875 14.0981 20.7538 14.2547 19.6119 14.2547C19.4863 14.2547 18.9383 14.2509 18.7372 14.2402L16.0297 14.168L10.1534 21.293C10.0464 21.4321 9.9094 21.5454 9.75265 21.6246C9.59589 21.7037 9.42337 21.7465 9.24782 21.75Z" fill="#0472E9"/>
</g>
</svg>
