<svg width="20" height="23" viewBox="0 0 20 23" fill="none" xmlns="http://www.w3.org/2000/svg">
<path d="M14.1323 0C14.5601 2.56644 11.8805 4.51155 10.3823 5.38372C9.94046 5.641 9.44183 5.31339 9.51802 4.80773C9.77405 3.10767 10.7101 9.42153e-05 14.1323 0Z" fill="black"/>
<path d="M5.88845 5.29961C6.94456 5.29961 7.87934 5.53445 8.59067 5.79439C9.48783 6.12228 10.5329 6.12227 11.4301 5.79438C12.1413 5.53444 13.0761 5.29961 14.1322 5.29961C15.4103 5.29961 17.0352 5.99314 18.2541 7.38019C14.1323 10.5992 15.31 15.8988 19.1599 17.3022C17.9307 20.6793 15.5942 22.965 13.5433 22.965C11.7768 22.965 11.7769 22.1406 10.0104 22.1406C8.24384 22.1406 8.24384 22.965 6.4773 22.965C3.53307 22.965 0 18.2542 0 12.3658C0 7.65499 3.53307 5.29961 5.88845 5.29961Z" fill="black"/>
</svg>
