<svg width="129" height="32" viewBox="0 0 129 32" fill="none" xmlns="http://www.w3.org/2000/svg">
<g clip-path="url(#clip0_3_449)">
<mask id="mask0_3_449" style="mask-type:luminance" maskUnits="userSpaceOnUse" x="0" y="4" width="24" height="24">
<path d="M24 4H0V28H24V4Z" fill="white"/>
</mask>
<g mask="url(#mask0_3_449)">
<path fill-rule="evenodd" clip-rule="evenodd" d="M24 4V11.2V28H16.8V19.604C16.7978 24.2414 13.0379 28 8.4 28C3.76081 28 0 24.2392 0 19.6C0 14.9608 3.76081 11.2 8.4 11.2C13.0379 11.2 16.7978 14.9587 16.8 19.596V11.2H8.4H0V4L16.8 4L24 4Z" fill="#0472E9"/>
</g>
</g>
<path d="M34.2107 23C34.0707 23 33.9517 22.951 33.8537 22.853C33.7557 22.755 33.7067 22.636 33.7067 22.496V8.804C33.7067 8.664 33.7557 8.545 33.8537 8.447C33.9517 8.349 34.0707 8.3 34.2107 8.3H36.1637C36.3037 8.3 36.4227 8.349 36.5207 8.447C36.6187 8.545 36.6677 8.664 36.6677 8.804V20.501H43.3247C43.4787 20.501 43.6047 20.55 43.7027 20.648C43.8007 20.746 43.8497 20.872 43.8497 21.026V22.496C43.8497 22.636 43.8007 22.755 43.7027 22.853C43.6047 22.951 43.4787 23 43.3247 23H34.2107ZM50.4523 23.21C49.3323 23.21 48.3873 23.014 47.6173 22.622C46.8613 22.23 46.2803 21.677 45.8743 20.963C45.4823 20.249 45.2583 19.416 45.2023 18.464C45.1883 18.212 45.1813 17.904 45.1813 17.54C45.1813 17.176 45.1883 16.868 45.2023 16.616C45.2583 15.65 45.4893 14.817 45.8953 14.117C46.3153 13.403 46.9033 12.85 47.6593 12.458C48.4293 12.066 49.3603 11.87 50.4523 11.87C51.5443 11.87 52.4683 12.066 53.2243 12.458C53.9943 12.85 54.5823 13.403 54.9883 14.117C55.4083 14.817 55.6463 15.65 55.7023 16.616C55.7163 16.868 55.7233 17.176 55.7233 17.54C55.7233 17.904 55.7163 18.212 55.7023 18.464C55.6463 19.416 55.4153 20.249 55.0093 20.963C54.6173 21.677 54.0363 22.23 53.2663 22.622C52.5103 23.014 51.5723 23.21 50.4523 23.21ZM50.4523 21.131C51.1943 21.131 51.7683 20.9 52.1743 20.438C52.5803 19.962 52.8043 19.269 52.8463 18.359C52.8603 18.149 52.8673 17.876 52.8673 17.54C52.8673 17.204 52.8603 16.931 52.8463 16.721C52.8043 15.825 52.5803 15.139 52.1743 14.663C51.7683 14.187 51.1943 13.949 50.4523 13.949C49.7103 13.949 49.1363 14.187 48.7303 14.663C48.3243 15.139 48.1003 15.825 48.0583 16.721C48.0443 16.931 48.0373 17.204 48.0373 17.54C48.0373 17.876 48.0443 18.149 48.0583 18.359C48.1003 19.269 48.3243 19.962 48.7303 20.438C49.1363 20.9 49.7103 21.131 50.4523 21.131ZM63.1351 27.62C62.1131 27.62 61.2731 27.487 60.6151 27.221C59.9571 26.955 59.4391 26.633 59.0611 26.255C58.6831 25.877 58.4101 25.499 58.2421 25.121C58.0881 24.757 58.0041 24.47 57.9901 24.26C57.9761 24.12 58.0181 23.994 58.1161 23.882C58.2281 23.784 58.3541 23.735 58.4941 23.735H60.3211C60.4611 23.735 60.5731 23.763 60.6571 23.819C60.7411 23.889 60.8111 24.008 60.8671 24.176C60.9511 24.358 61.0631 24.554 61.2031 24.764C61.3431 24.974 61.5531 25.149 61.8331 25.289C62.1271 25.443 62.5261 25.52 63.0301 25.52C63.5621 25.52 64.0101 25.443 64.3741 25.289C64.7381 25.135 65.0111 24.876 65.1931 24.512C65.3891 24.148 65.4871 23.644 65.4871 23V21.572C65.1511 21.978 64.7171 22.307 64.1851 22.559C63.6671 22.811 63.0231 22.937 62.2531 22.937C61.4971 22.937 60.8461 22.818 60.3001 22.58C59.7541 22.328 59.2991 21.985 58.9351 21.551C58.5711 21.103 58.2911 20.578 58.0951 19.976C57.9131 19.374 57.8081 18.709 57.7801 17.981C57.7661 17.603 57.7661 17.225 57.7801 16.847C57.8081 16.147 57.9131 15.496 58.0951 14.894C58.2771 14.292 58.5501 13.767 58.9141 13.319C59.2921 12.857 59.7541 12.5 60.3001 12.248C60.8461 11.996 61.4971 11.87 62.2531 11.87C63.0511 11.87 63.7231 12.024 64.2691 12.332C64.8151 12.626 65.2631 12.997 65.6131 13.445V12.605C65.6131 12.451 65.6621 12.325 65.7601 12.227C65.8581 12.129 65.9771 12.08 66.1171 12.08H67.8181C67.9581 12.08 68.0771 12.129 68.1751 12.227C68.2731 12.325 68.3221 12.451 68.3221 12.605L68.3431 22.727C68.3431 23.735 68.1541 24.603 67.7761 25.331C67.3981 26.059 66.8241 26.619 66.0541 27.011C65.2981 27.417 64.3251 27.62 63.1351 27.62ZM63.0301 20.711C63.6041 20.711 64.0661 20.585 64.4161 20.333C64.7661 20.081 65.0251 19.752 65.1931 19.346C65.3611 18.94 65.4591 18.527 65.4871 18.107C65.5011 17.925 65.5081 17.694 65.5081 17.414C65.5081 17.134 65.5011 16.91 65.4871 16.742C65.4591 16.308 65.3611 15.895 65.1931 15.503C65.0251 15.097 64.7661 14.768 64.4161 14.516C64.0661 14.25 63.6041 14.117 63.0301 14.117C62.4561 14.117 61.9941 14.25 61.6441 14.516C61.2941 14.768 61.0421 15.104 60.8881 15.524C60.7481 15.944 60.6641 16.406 60.6361 16.91C60.6081 17.246 60.6081 17.589 60.6361 17.939C60.6641 18.429 60.7481 18.891 60.8881 19.325C61.0421 19.745 61.2941 20.081 61.6441 20.333C61.9941 20.585 62.4561 20.711 63.0301 20.711ZM76.1205 23.21C75.0005 23.21 74.0555 23.014 73.2855 22.622C72.5295 22.23 71.9485 21.677 71.5425 20.963C71.1505 20.249 70.9265 19.416 70.8705 18.464C70.8565 18.212 70.8495 17.904 70.8495 17.54C70.8495 17.176 70.8565 16.868 70.8705 16.616C70.9265 15.65 71.1575 14.817 71.5635 14.117C71.9835 13.403 72.5715 12.85 73.3275 12.458C74.0975 12.066 75.0285 11.87 76.1205 11.87C77.2125 11.87 78.1365 12.066 78.8925 12.458C79.6625 12.85 80.2505 13.403 80.6565 14.117C81.0765 14.817 81.3145 15.65 81.3705 16.616C81.3845 16.868 81.3915 17.176 81.3915 17.54C81.3915 17.904 81.3845 18.212 81.3705 18.464C81.3145 19.416 81.0835 20.249 80.6775 20.963C80.2855 21.677 79.7045 22.23 78.9345 22.622C78.1785 23.014 77.2405 23.21 76.1205 23.21ZM76.1205 21.131C76.8625 21.131 77.4365 20.9 77.8425 20.438C78.2485 19.962 78.4725 19.269 78.5145 18.359C78.5285 18.149 78.5355 17.876 78.5355 17.54C78.5355 17.204 78.5285 16.931 78.5145 16.721C78.4725 15.825 78.2485 15.139 77.8425 14.663C77.4365 14.187 76.8625 13.949 76.1205 13.949C75.3785 13.949 74.8045 14.187 74.3985 14.663C73.9925 15.139 73.7685 15.825 73.7265 16.721C73.7125 16.931 73.7055 17.204 73.7055 17.54C73.7055 17.876 73.7125 18.149 73.7265 18.359C73.7685 19.269 73.9925 19.962 74.3985 20.438C74.8045 20.9 75.3785 21.131 76.1205 21.131ZM88.7212 23C87.8812 23 87.1742 22.853 86.6002 22.559C86.0262 22.265 85.5992 21.831 85.3192 21.257C85.0392 20.669 84.8992 19.941 84.8992 19.073V14.306H83.2402C83.1002 14.306 82.9812 14.257 82.8832 14.159C82.7852 14.061 82.7362 13.942 82.7362 13.802V12.584C82.7362 12.444 82.7852 12.325 82.8832 12.227C82.9812 12.129 83.1002 12.08 83.2402 12.08H84.8992V8.594C84.8992 8.454 84.9412 8.335 85.0252 8.237C85.1232 8.139 85.2492 8.09 85.4032 8.09H87.1042C87.2442 8.09 87.3632 8.139 87.4612 8.237C87.5592 8.335 87.6082 8.454 87.6082 8.594V12.08H90.2332C90.3732 12.08 90.4922 12.129 90.5902 12.227C90.6882 12.325 90.7372 12.444 90.7372 12.584V13.802C90.7372 13.942 90.6882 14.061 90.5902 14.159C90.4922 14.257 90.3732 14.306 90.2332 14.306H87.6082V18.863C87.6082 19.437 87.7062 19.885 87.9022 20.207C88.1122 20.529 88.4692 20.69 88.9732 20.69H90.4222C90.5622 20.69 90.6812 20.739 90.7792 20.837C90.8772 20.935 90.9262 21.054 90.9262 21.194V22.496C90.9262 22.636 90.8772 22.755 90.7792 22.853C90.6812 22.951 90.5622 23 90.4222 23H88.7212ZM94.9131 26.99C94.8011 26.99 94.7031 26.948 94.6191 26.864C94.5351 26.78 94.4931 26.682 94.4931 26.57C94.4931 26.514 94.4931 26.458 94.4931 26.402C94.5071 26.36 94.5351 26.304 94.5771 26.234L96.2151 22.349L92.1831 12.836C92.1271 12.696 92.0991 12.598 92.0991 12.542C92.1131 12.416 92.1621 12.311 92.2461 12.227C92.3301 12.129 92.4351 12.08 92.5611 12.08H94.2621C94.4301 12.08 94.5561 12.122 94.6401 12.206C94.7241 12.29 94.7871 12.381 94.8291 12.479L97.6221 19.346L100.499 12.479C100.541 12.367 100.604 12.276 100.688 12.206C100.772 12.122 100.898 12.08 101.066 12.08H102.746C102.858 12.08 102.956 12.122 103.04 12.206C103.138 12.29 103.187 12.388 103.187 12.5C103.187 12.584 103.159 12.696 103.103 12.836L97.1601 26.591C97.1041 26.703 97.0341 26.794 96.9501 26.864C96.8661 26.948 96.7401 26.99 96.5721 26.99H94.9131ZM105.673 26.99C105.533 26.99 105.414 26.941 105.316 26.843C105.218 26.745 105.169 26.626 105.169 26.486V12.584C105.169 12.444 105.218 12.325 105.316 12.227C105.414 12.129 105.533 12.08 105.673 12.08H107.332C107.486 12.08 107.605 12.129 107.689 12.227C107.787 12.325 107.836 12.444 107.836 12.584V13.424C108.172 12.976 108.613 12.605 109.159 12.311C109.705 12.017 110.384 11.87 111.196 11.87C111.938 11.87 112.582 11.989 113.128 12.227C113.674 12.465 114.129 12.808 114.493 13.256C114.857 13.69 115.137 14.208 115.333 14.81C115.529 15.412 115.641 16.077 115.669 16.805C115.683 17.043 115.69 17.288 115.69 17.54C115.69 17.792 115.683 18.044 115.669 18.296C115.655 18.996 115.55 19.647 115.354 20.249C115.158 20.837 114.871 21.355 114.493 21.803C114.129 22.237 113.674 22.58 113.128 22.832C112.582 23.084 111.938 23.21 111.196 23.21C110.44 23.21 109.796 23.077 109.264 22.811C108.732 22.531 108.298 22.167 107.962 21.719V26.486C107.962 26.626 107.913 26.745 107.815 26.843C107.731 26.941 107.612 26.99 107.458 26.99H105.673ZM110.419 20.963C111.021 20.963 111.49 20.837 111.826 20.585C112.162 20.319 112.4 19.976 112.54 19.556C112.694 19.136 112.785 18.674 112.813 18.17C112.841 17.75 112.841 17.33 112.813 16.91C112.785 16.406 112.694 15.944 112.54 15.524C112.4 15.104 112.162 14.768 111.826 14.516C111.49 14.25 111.021 14.117 110.419 14.117C109.845 14.117 109.376 14.25 109.012 14.516C108.662 14.782 108.403 15.125 108.235 15.545C108.081 15.951 107.99 16.371 107.962 16.805C107.948 17.057 107.941 17.323 107.941 17.603C107.941 17.883 107.948 18.156 107.962 18.422C107.976 18.842 108.074 19.248 108.256 19.64C108.438 20.018 108.704 20.333 109.054 20.585C109.404 20.837 109.859 20.963 110.419 20.963ZM122.901 23.21C121.347 23.21 120.115 22.762 119.205 21.866C118.295 20.97 117.805 19.696 117.735 18.044C117.721 17.904 117.714 17.729 117.714 17.519C117.714 17.295 117.721 17.12 117.735 16.994C117.791 15.944 118.029 15.034 118.449 14.264C118.883 13.494 119.478 12.906 120.234 12.5C120.99 12.08 121.879 11.87 122.901 11.87C124.035 11.87 124.987 12.108 125.757 12.584C126.527 13.046 127.108 13.697 127.5 14.537C127.892 15.363 128.088 16.322 128.088 17.414V17.855C128.088 17.995 128.039 18.114 127.941 18.212C127.843 18.31 127.717 18.359 127.563 18.359H120.591C120.591 18.359 120.591 18.38 120.591 18.422C120.591 18.464 120.591 18.499 120.591 18.527C120.605 19.017 120.696 19.472 120.864 19.892C121.046 20.298 121.305 20.627 121.641 20.879C121.991 21.131 122.404 21.257 122.88 21.257C123.272 21.257 123.601 21.201 123.867 21.089C124.133 20.963 124.35 20.823 124.518 20.669C124.686 20.515 124.805 20.389 124.875 20.291C125.001 20.123 125.099 20.025 125.169 19.997C125.253 19.955 125.372 19.934 125.526 19.934H127.332C127.472 19.934 127.584 19.976 127.668 20.06C127.766 20.144 127.808 20.249 127.794 20.375C127.78 20.599 127.661 20.872 127.437 21.194C127.227 21.516 126.919 21.831 126.513 22.139C126.107 22.447 125.596 22.706 124.98 22.916C124.378 23.112 123.685 23.21 122.901 23.21ZM120.591 16.595H125.232V16.532C125.232 15.986 125.141 15.51 124.959 15.104C124.777 14.698 124.511 14.376 124.161 14.138C123.811 13.9 123.391 13.781 122.901 13.781C122.411 13.781 121.991 13.9 121.641 14.138C121.291 14.376 121.025 14.698 120.843 15.104C120.675 15.51 120.591 15.986 120.591 16.532V16.595Z" fill="#0472E9"/>
<defs>
<clipPath id="clip0_3_449">
<rect width="24" height="24" fill="white" transform="translate(0 4)"/>
</clipPath>
</defs>
</svg>
