<svg width="20" height="20" viewBox="0 0 20 20" fill="none" xmlns="http://www.w3.org/2000/svg">
<g id="Iconly/Bold/Arrow - Left 2">
<g id="Arrow - Left 2">
<path id="Arrow - Left 2_2" d="M9.0575 13.8591C9.00917 13.812 8.8025 13.6342 8.6325 13.4686C7.56333 12.4976 5.81333 9.96477 5.27917 8.63906C5.19333 8.43773 5.01167 7.92872 5 7.65676C5 7.39617 5.06 7.14775 5.18167 6.9107C5.35167 6.6152 5.61917 6.37815 5.935 6.24825C6.15417 6.16464 6.81 6.03475 6.82167 6.03475C7.53917 5.90485 8.705 5.83341 9.99333 5.83341C11.2208 5.83341 12.3392 5.90485 13.0675 6.0112C13.0792 6.02338 13.8942 6.15327 14.1733 6.29534C14.6833 6.55593 15 7.06495 15 7.60968L15 7.65676C14.9875 8.01153 14.6708 8.75759 14.6592 8.75759C14.1242 10.0119 12.46 12.4863 11.3542 13.4808C11.3542 13.4808 11.07 13.7608 10.8925 13.8826C10.6375 14.0726 10.3217 14.1667 10.0058 14.1667C9.65333 14.1667 9.325 14.0604 9.0575 13.8591Z" fill="black"/>
</g>
</g>
</svg>
