<svg width="9" height="18" viewBox="0 0 9 18" fill="none" xmlns="http://www.w3.org/2000/svg">
<path id="Vector" d="M0.00303992 8.98588C0.00245342 8.686 0.107025 8.39537 0.298601 8.16446L6.72385 0.463656C6.94197 0.20155 7.25541 0.0367215 7.59521 0.00543093C7.93502 -0.0258597 8.27334 0.0789508 8.53577 0.296805C8.7982 0.514659 8.96323 0.827711 8.99456 1.16709C9.02589 1.50648 8.92095 1.84439 8.70283 2.10649L2.9458 8.98588L8.49722 15.8653C8.60396 15.9966 8.68368 16.1476 8.73178 16.3098C8.77988 16.4719 8.79542 16.642 8.77751 16.8101C8.7596 16.9783 8.70858 17.1413 8.6274 17.2897C8.54622 17.4381 8.43647 17.569 8.30446 17.675C8.17233 17.7925 8.01732 17.8815 7.84914 17.9364C7.68096 17.9914 7.50324 18.011 7.32711 17.9941C7.15097 17.9773 6.98023 17.9243 6.82556 17.8384C6.6709 17.7526 6.53565 17.6358 6.42829 17.4953L0.221499 9.79447C0.0602041 9.55692 -0.0167116 9.27223 0.00303992 8.98588Z" fill="#D80800"/>
</svg>
