<svg width="23" height="26" viewBox="0 0 23 26" fill="none" xmlns="http://www.w3.org/2000/svg">
<path id="Vector" d="M22.7408 16.4004L20.3462 13.9734V10.7585C20.3434 8.53669 19.5279 6.39487 18.0573 4.74715C16.5868 3.09944 14.5656 2.06287 12.3846 1.8379V0H10.6154V1.8379C8.43443 2.06287 6.41325 3.09944 4.94267 4.74715C3.4721 6.39487 2.65659 8.53669 2.65385 10.7585V13.9734L0.259192 16.4004C0.0932832 16.5685 5.01023e-05 16.7965 0 17.0342V19.7238C0 19.9616 0.0932002 20.1897 0.259098 20.3578C0.424995 20.5259 0.650001 20.6204 0.884615 20.6204H7.07692V21.317C7.05768 22.4544 7.45324 23.5589 8.18781 24.4191C8.92237 25.2792 9.94428 25.8343 11.0577 25.9781C11.6727 26.0399 12.2936 25.9706 12.8805 25.7746C13.4675 25.5786 14.0074 25.2602 14.4657 24.8401C14.924 24.4199 15.2904 23.9071 15.5414 23.3348C15.7924 22.7625 15.9224 22.1432 15.9231 21.5169V20.6204H22.1154C22.35 20.6204 22.575 20.5259 22.7409 20.3578C22.9068 20.1897 23 19.9616 23 19.7238V17.0342C22.9999 16.7965 22.9067 16.5685 22.7408 16.4004ZM14.1538 21.5169C14.1538 22.2302 13.8742 22.9144 13.3766 23.4188C12.8789 23.9232 12.2038 24.2065 11.5 24.2065C10.7962 24.2065 10.1211 23.9232 9.62345 23.4188C9.12575 22.9144 8.84615 22.2302 8.84615 21.5169V20.6204H14.1538V21.5169ZM21.2308 18.8273H1.76923V17.4054L4.16388 14.9785C4.32979 14.8104 4.42303 14.5824 4.42308 14.3446V10.7585C4.42308 8.85625 5.16868 7.03194 6.49586 5.68687C7.82304 4.3418 9.62308 3.58615 11.5 3.58615C13.3769 3.58615 15.177 4.3418 16.5041 5.68687C17.8313 7.03194 18.5769 8.85625 18.5769 10.7585V14.3446C18.577 14.5824 18.6702 14.8104 18.8361 14.9785L21.2308 17.4054V18.8273Z" fill="white"/>
</svg>
