<svg width="25" height="24" viewBox="0 0 25 24" fill="none" xmlns="http://www.w3.org/2000/svg">
<g id="bookmark">
<path id="Vector" d="M19.25 22.5C19.0666 22.5005 18.8893 22.4338 18.7517 22.3125L12.5 16.7536L6.24828 22.3125C6.1401 22.4087 6.00639 22.4715 5.8633 22.4933C5.72021 22.5152 5.57385 22.4952 5.44187 22.4357C5.3099 22.3763 5.19796 22.2799 5.11955 22.1582C5.04115 22.0365 4.99963 21.8948 5 21.75V4.5C5.00087 3.70462 5.31722 2.94206 5.87964 2.37964C6.44206 1.81722 7.20462 1.50087 8 1.5H17C17.7954 1.50087 18.5579 1.81722 19.1204 2.37964C19.6828 2.94206 19.9991 3.70462 20 4.5V21.75C20 21.9489 19.921 22.1397 19.7803 22.2803C19.6397 22.421 19.4489 22.5 19.25 22.5Z" fill="#0472E9"/>
</g>
</svg>
