<svg width="32" height="33" viewBox="0 0 32 33" fill="none" xmlns="http://www.w3.org/2000/svg">
<g id="calendar">
<path id="Vector" d="M25.9279 4.56269H24.948V3.61026C24.948 3.08289 24.5425 2.63026 24.0151 2.60392C23.8826 2.59753 23.7502 2.61812 23.6259 2.66443C23.5016 2.71073 23.3879 2.78179 23.2919 2.87331C23.1959 2.96482 23.1194 3.07488 23.0672 3.19682C23.0149 3.31876 22.988 3.45003 22.988 3.58269V4.56269H9.26795V3.61026C9.26795 3.08289 8.86248 2.63026 8.33511 2.60392C8.20261 2.59753 8.07019 2.61812 7.94587 2.66443C7.82156 2.71073 7.70794 2.78179 7.6119 2.87331C7.51586 2.96482 7.4394 3.07488 7.38716 3.19682C7.33491 3.31876 7.30796 3.45003 7.30795 3.58269V4.56269H6.32795C5.2883 4.56269 4.29124 4.97569 3.55609 5.71083C2.82095 6.44598 2.40795 7.44305 2.40795 8.48269V26.1227C2.40795 27.1623 2.82095 28.1594 3.55609 28.8946C4.29124 29.6297 5.2883 30.0427 6.32795 30.0427H25.9279C26.9676 30.0427 27.9647 29.6297 28.6998 28.8946C29.4349 28.1594 29.8479 27.1623 29.8479 26.1227V8.48269C29.8479 7.44305 29.4349 6.44598 28.6998 5.71083C27.9647 4.97569 26.9676 4.56269 25.9279 4.56269ZM8.77795 26.1227C8.48721 26.1227 8.203 26.0365 7.96126 25.875C7.71952 25.7134 7.53111 25.4838 7.41985 25.2152C7.30859 24.9466 7.27948 24.6511 7.3362 24.3659C7.39292 24.0808 7.53292 23.8188 7.7385 23.6132C7.94409 23.4077 8.20602 23.2677 8.49117 23.2109C8.77632 23.1542 9.07189 23.1833 9.3405 23.2946C9.6091 23.4059 9.83869 23.5943 10.0002 23.836C10.1617 24.0777 10.248 24.362 10.248 24.6527C10.248 25.0426 10.0931 25.4165 9.8174 25.6921C9.54172 25.9678 9.16782 26.1227 8.77795 26.1227ZM8.77795 21.2227C8.48721 21.2227 8.203 21.1365 7.96126 20.975C7.71952 20.8134 7.53111 20.5838 7.41985 20.3152C7.30859 20.0466 7.27948 19.7511 7.3362 19.4659C7.39292 19.1808 7.53292 18.9188 7.7385 18.7132C7.94409 18.5077 8.20602 18.3677 8.49117 18.3109C8.77632 18.2542 9.07189 18.2833 9.3405 18.3946C9.6091 18.5059 9.83869 18.6943 10.0002 18.936C10.1617 19.1777 10.248 19.462 10.248 19.7527C10.248 20.1426 10.0931 20.5165 9.8174 20.7921C9.54172 21.0678 9.16782 21.2227 8.77795 21.2227ZM13.678 26.1227C13.3872 26.1227 13.103 26.0365 12.8613 25.875C12.6195 25.7134 12.4311 25.4838 12.3198 25.2152C12.2086 24.9466 12.1795 24.6511 12.2362 24.3659C12.2929 24.0808 12.4329 23.8188 12.6385 23.6132C12.8441 23.4077 13.106 23.2677 13.3912 23.2109C13.6763 23.1542 13.9719 23.1833 14.2405 23.2946C14.5091 23.4059 14.7387 23.5943 14.9002 23.836C15.0617 24.0777 15.148 24.362 15.148 24.6527C15.148 25.0426 14.9931 25.4165 14.7174 25.6921C14.4417 25.9678 14.0678 26.1227 13.678 26.1227ZM13.678 21.2227C13.3872 21.2227 13.103 21.1365 12.8613 20.975C12.6195 20.8134 12.4311 20.5838 12.3198 20.3152C12.2086 20.0466 12.1795 19.7511 12.2362 19.4659C12.2929 19.1808 12.4329 18.9188 12.6385 18.7132C12.8441 18.5077 13.106 18.3677 13.3912 18.3109C13.6763 18.2542 13.9719 18.2833 14.2405 18.3946C14.5091 18.5059 14.7387 18.6943 14.9002 18.936C15.0617 19.1777 15.148 19.462 15.148 19.7527C15.148 20.1426 14.9931 20.5165 14.7174 20.7921C14.4417 21.0678 14.0678 21.2227 13.678 21.2227ZM18.578 26.1227C18.2872 26.1227 18.003 26.0365 17.7613 25.875C17.5195 25.7134 17.3311 25.4838 17.2198 25.2152C17.1086 24.9466 17.0795 24.6511 17.1362 24.3659C17.1929 24.0808 17.3329 23.8188 17.5385 23.6132C17.7441 23.4077 18.006 23.2677 18.2912 23.2109C18.5763 23.1542 18.8719 23.1833 19.1405 23.2946C19.4091 23.4059 19.6387 23.5943 19.8002 23.836C19.9617 24.0777 20.048 24.362 20.048 24.6527C20.048 25.0426 19.8931 25.4165 19.6174 25.6921C19.3417 25.9678 18.9678 26.1227 18.578 26.1227ZM18.578 21.2227C18.2872 21.2227 18.003 21.1365 17.7613 20.975C17.5195 20.8134 17.3311 20.5838 17.2198 20.3152C17.1086 20.0466 17.0795 19.7511 17.1362 19.4659C17.1929 19.1808 17.3329 18.9188 17.5385 18.7132C17.7441 18.5077 18.006 18.3677 18.2912 18.3109C18.5763 18.2542 18.8719 18.2833 19.1405 18.3946C19.4091 18.5059 19.6387 18.6943 19.8002 18.936C19.9617 19.1777 20.048 19.462 20.048 19.7527C20.048 20.1426 19.8931 20.5165 19.6174 20.7921C19.3417 21.0678 18.9678 21.2227 18.578 21.2227ZM18.578 16.3227C18.2872 16.3227 18.003 16.2365 17.7613 16.075C17.5195 15.9134 17.3311 15.6838 17.2198 15.4152C17.1086 15.1466 17.0795 14.8511 17.1362 14.5659C17.1929 14.2808 17.3329 14.0188 17.5385 13.8132C17.7441 13.6077 18.006 13.4677 18.2912 13.4109C18.5763 13.3542 18.8719 13.3833 19.1405 13.4946C19.4091 13.6059 19.6387 13.7943 19.8002 14.036C19.9617 14.2777 20.048 14.562 20.048 14.8527C20.048 15.2426 19.8931 15.6165 19.6174 15.8921C19.3417 16.1678 18.9678 16.3227 18.578 16.3227ZM23.478 21.2227C23.1872 21.2227 22.903 21.1365 22.6613 20.975C22.4195 20.8134 22.2311 20.5838 22.1198 20.3152C22.0086 20.0466 21.9795 19.7511 22.0362 19.4659C22.0929 19.1808 22.2329 18.9188 22.4385 18.7132C22.6441 18.5077 22.906 18.3677 23.1912 18.3109C23.4763 18.2542 23.7719 18.2833 24.0405 18.3946C24.3091 18.5059 24.5387 18.6943 24.7002 18.936C24.8617 19.1777 24.948 19.462 24.948 19.7527C24.948 20.1426 24.7931 20.5165 24.5174 20.7921C24.2417 21.0678 23.8678 21.2227 23.478 21.2227ZM23.478 16.3227C23.1872 16.3227 22.903 16.2365 22.6613 16.075C22.4195 15.9134 22.2311 15.6838 22.1198 15.4152C22.0086 15.1466 21.9795 14.8511 22.0362 14.5659C22.0929 14.2808 22.2329 14.0188 22.4385 13.8132C22.6441 13.6077 22.906 13.4677 23.1912 13.4109C23.4763 13.3542 23.7719 13.3833 24.0405 13.4946C24.3091 13.6059 24.5387 13.7943 24.7002 14.036C24.8617 14.2777 24.948 14.562 24.948 14.8527C24.948 15.2426 24.7931 15.6165 24.5174 15.8921C24.2417 16.1678 23.8678 16.3227 23.478 16.3227ZM27.888 8.97269V9.95269C27.888 10.0827 27.8363 10.2073 27.7444 10.2992C27.6525 10.3911 27.5279 10.4427 27.398 10.4427H4.85795C4.728 10.4427 4.60336 10.3911 4.51147 10.2992C4.41958 10.2073 4.36795 10.0827 4.36795 9.95269V8.48269C4.36941 7.96332 4.57637 7.46563 4.94363 7.09837C5.31089 6.73112 5.80857 6.52415 6.32795 6.52269H25.9279C26.4473 6.52415 26.945 6.73112 27.3123 7.09837C27.6795 7.46563 27.8865 7.96332 27.888 8.48269V8.97269Z" fill="#3474FF"/>
</g>
</svg>
