<svg width="33" height="32" viewBox="0 0 33 32" fill="none" xmlns="http://www.w3.org/2000/svg">
<g id="Img">
<path id="Vector" d="M25.93 8.75994C20.3567 2.33327 12.35 3.13327 7.60334 7.87994C2.85668 12.6266 3.01001 21.3733 8.82334 25.8599L8.74334 25.9399L25.93 8.75994Z" fill="#3474FF"/>
<path id="Vector_2" fill-rule="evenodd" clip-rule="evenodd" d="M3.36334 16.3199C3.36334 23.4799 9.19001 29.2999 16.35 29.2999C23.51 29.2999 29.3367 23.4799 29.3367 16.3199C29.3367 9.15992 23.51 3.33325 16.35 3.33325C9.19001 3.33325 3.36334 9.15992 3.36334 16.3199ZM5.03001 16.3199C5.03001 10.0799 10.11 4.99992 16.35 4.99992C22.59 4.99992 27.67 10.0799 27.67 16.3199C27.67 22.5599 22.59 27.6399 16.35 27.6399C10.11 27.6399 5.03001 22.5599 5.03001 16.3199ZM13.1367 21.6333C13.3367 21.8266 13.59 21.9266 13.85 21.9266C14.1033 21.9266 14.3633 21.8333 14.55 21.6466L23.41 12.9133C23.5888 12.7254 23.6877 12.4755 23.6857 12.2162C23.6838 11.9568 23.5811 11.7084 23.3995 11.5233C23.2179 11.3382 22.9714 11.2309 22.7122 11.2241C22.4529 11.2172 22.2012 11.3113 22.01 11.4866L13.8567 19.5199L10.69 16.3199C10.5034 16.1318 10.2497 16.0254 9.98472 16.0241C9.71972 16.0229 9.46506 16.1269 9.27668 16.3133C9.08923 16.4998 8.98276 16.7527 8.98026 17.0172C8.97777 17.2817 9.07946 17.5365 9.26334 17.7266L13.1367 21.6333Z" fill="#022061"/>
</g>
</svg>
