<svg width="27" height="27" viewBox="0 0 27 27" fill="none" xmlns="http://www.w3.org/2000/svg">
<path d="M13.2787 0.744019C6.24286 0.744019 0.538651 6.44823 0.538651 13.484C0.538651 20.5088 6.2545 26.224 13.2787 26.224C20.3138 26.224 26.0187 20.5192 26.0187 13.484C26.0187 6.45926 20.3034 0.744019 13.2787 0.744019ZM19.8937 15.444H12.5436C12.4787 15.444 12.4164 15.4182 12.3704 15.3723C12.3245 15.3263 12.2986 15.264 12.2986 15.199V4.90902C12.2986 4.84404 12.3245 4.78172 12.3704 4.73578C12.4164 4.68983 12.4787 4.66402 12.5436 4.66402H14.0136C14.0786 4.66402 14.1409 4.68983 14.1869 4.73578C14.2328 4.78172 14.2586 4.84404 14.2586 4.90902V13.484H19.8937C19.9586 13.484 20.0209 13.5098 20.0669 13.5558C20.1128 13.6017 20.1386 13.664 20.1386 13.729V15.199C20.1386 15.264 20.1128 15.3263 20.0669 15.3723C20.0209 15.4182 19.9586 15.444 19.8937 15.444Z" fill="#3474FF"/>
</svg>
