<svg width="18" height="16" viewBox="0 0 18 16" fill="none" xmlns="http://www.w3.org/2000/svg">
<path id="Vector" d="M3.70588 16H2.64706L3.28235 15.2C3.70588 14.65 3.97059 13.95 4.12941 13.1C1.48235 11.95 0 9.8 0 7C0 2.7 3.44118 0 9 0C14.5588 0 18 2.7 18 7C18 11.4 14.6118 14 9 14H8.62941C7.78235 14.95 6.3 16 3.70588 16ZM9 1C4.02353 1 1.05882 3.25 1.05882 7C1.05882 10.2 3.12353 11.7 4.87059 12.35L5.24118 12.5L5.18824 12.9C5.08235 13.7 4.92353 14.4 4.60588 15C6.35294 14.8 7.35882 13.95 7.94118 13.25L8.1 13.05H9C16.1471 13.05 16.9412 8.85 16.9412 7.05C16.9412 3.25 13.9765 1 9 1Z" fill="#1C1E21"/>
</svg>
