<svg width="12" height="7" viewBox="0 0 12 7" fill="none" xmlns="http://www.w3.org/2000/svg">
<path id="Vector" fill-rule="evenodd" clip-rule="evenodd" d="M12 1.11402C12.0001 1.21849 11.9783 1.32183 11.9361 1.4174C11.8939 1.51297 11.8322 1.59868 11.755 1.66902L6.505 6.44202C6.36647 6.56696 6.18655 6.63612 6 6.63612C5.81345 6.63612 5.63353 6.56696 5.495 6.44202L0.245001 1.66902C0.0978059 1.53509 0.00984483 1.34817 0.000468012 1.14938C-0.0089088 0.950588 0.0610668 0.756217 0.195001 0.609022C0.328935 0.461827 0.515857 0.373865 0.714646 0.364488C0.913434 0.355111 1.10781 0.425087 1.255 0.559022L6 4.87302L10.745 0.559022C10.8525 0.461121 10.9861 0.396577 11.1296 0.373245C11.2732 0.349913 11.4204 0.368799 11.5533 0.427605C11.6863 0.48641 11.7993 0.5826 11.8786 0.704467C11.9579 0.826334 12.0001 0.968624 12 1.11402Z" fill="#121214"/>
</svg>
