<svg width="16" height="25" viewBox="0 0 16 25" fill="none" xmlns="http://www.w3.org/2000/svg">
<g id="Group 1000003140">
<path id="Vector" d="M14.4371 0C14.8479 0 15.1801 0.326424 15.1801 0.730132V22.8467C15.1801 23.2501 14.8479 23.5768 14.4371 23.5768H1.1316C0.721181 23.5768 0.388916 23.2501 0.388916 22.8467V0.730132C0.388916 0.326424 0.721181 0 1.1316 0H14.4371Z" fill="white"/>
<path id="Vector_2" d="M0.677612 3.27856H14.9009V22.8025C14.9009 22.9649 14.873 23.0652 14.7627 23.1742C14.6431 23.2923 14.5381 23.3029 14.3486 23.3029L1.10229 23.3042C0.99791 23.3042 0.917857 23.2711 0.831454 23.1986C0.724443 23.1075 0.677612 22.9939 0.677612 22.8738V3.27856Z" fill="#FFF200"/>
<path id="Vector_3" d="M0.677612 2.29626H14.9009V3.29931H0.677612V2.29626Z" fill="#ED1C24"/>
<path id="Vector_4" d="M0.677612 1.29126H14.9009V2.29435H0.677612V1.29126Z" fill="white"/>
<path id="Vector_5" d="M1.07969 0.270996H14.4895C14.7043 0.270996 14.9023 0.476626 14.9023 0.677321V1.31764H0.677612L0.678908 0.754518V0.707659C0.678908 0.480617 0.855042 0.293439 1.07969 0.270996Z" fill="#009A4E"/>
<path id="Vector_6" d="M14.4371 0C14.8479 0 15.1801 0.326424 15.1801 0.730132V22.8467C15.1801 23.2501 14.8479 23.5768 14.4371 23.5768H1.1316C0.721181 23.5768 0.388916 23.2501 0.388916 22.8467V0.730132C0.388916 0.326424 0.721181 0 1.1316 0H14.4371ZM14.4371 0.291452H1.1316C0.885002 0.291452 0.685669 0.488156 0.685669 0.730132V22.8467C0.685669 23.089 0.885045 23.2844 1.1316 23.2844H14.4371C14.6837 23.2844 14.8831 23.089 14.8831 22.8467V0.730132C14.8831 0.488199 14.6837 0.291452 14.4371 0.291452Z" fill="black"/>
<path id="Vector_7" d="M7.52271 4.5177C7.52271 4.5177 7.51373 4.60284 7.49416 4.6527C7.47489 4.69887 7.42469 4.72994 7.42801 4.76092C7.43134 4.7913 7.46391 4.82795 7.51442 4.85331C7.56393 4.87905 7.58384 4.89888 7.63469 4.91175C7.68187 4.92334 7.7417 4.95762 7.75864 4.91836C7.77562 4.87841 7.75004 4.82988 7.72144 4.78336C7.67159 4.70217 7.64636 4.68235 7.57291 4.57078C7.55727 4.54675 7.545 4.52096 7.52271 4.5177Z" fill="black"/>
<path id="Vector_8" d="M7.15031 13.2892C7.15528 13.2747 7.27292 13.3487 7.33405 13.3843C7.46266 13.4609 7.52046 13.5064 7.63413 13.5909C7.7242 13.6589 7.76771 13.6939 7.85813 13.7711C7.96907 13.8662 8.0289 13.9474 8.05884 13.9289C8.10204 13.8774 7.98808 13.7269 7.88733 13.6451C7.78935 13.5645 7.688 13.4992 7.60989 13.4484C7.50919 13.3816 7.5002 13.3665 7.34969 13.2661C7.18785 13.1585 7.04831 13.0232 7.04831 13.0232L6.8911 12.9005L6.64489 12.6942L6.37108 12.4436L6.1644 12.2149C6.1644 12.2149 6.00356 12.0195 5.97799 11.9818C5.95207 11.9445 5.87629 11.8237 5.81386 11.7214C5.758 11.6297 5.6497 11.4871 5.63972 11.4749C5.58122 11.4045 5.44764 11.433 5.29242 11.3422C5.10402 11.2316 5.05848 11.1306 5.05848 11.1306C5.05848 11.1306 5.05148 11.1158 5.04418 11.1079C5.03718 11.0996 5.02293 11.0894 5.02293 11.0894L4.92421 11.0211L4.8677 10.9841C4.8677 10.9841 4.82485 10.9487 4.77102 10.926C4.71684 10.9022 4.59622 10.8325 4.59622 10.8325L4.38056 10.6959C4.38056 10.6959 4.29614 10.6286 4.26823 10.6061C4.23968 10.5847 4.1865 10.554 4.1865 10.554C4.1865 10.554 4.15258 10.5371 4.1423 10.5365C4.13202 10.5358 4.08718 10.5319 4.08718 10.5319C4.08718 10.5319 4.04562 10.521 4.00341 10.5702C3.9612 10.6197 3.97152 10.5933 4.0403 10.8719C4.06752 10.9814 4.06488 11.3679 4.09413 11.4857C4.13133 11.6369 4.23834 11.8323 4.24931 11.8554C4.25998 11.8782 4.26759 11.9627 4.26759 11.9627C4.26759 11.9627 4.26296 12.0311 4.27026 12.0743C4.30284 12.274 4.59691 12.1426 4.66176 12.4166C4.72557 12.6869 4.62353 12.9566 4.62353 12.9566C4.62353 12.9566 4.56036 13.0906 4.47098 13.1117C4.38194 13.1322 4.2437 12.9361 4.14368 12.7774C4.04501 12.6212 3.96427 12.4166 3.93835 12.3516C3.91242 12.2865 3.89877 12.2723 3.86888 12.2251C3.82468 12.1548 3.78913 12.1677 3.73962 12.0568C3.68976 11.9459 3.73396 11.9013 3.71171 11.8047C3.69875 11.7512 3.68713 11.7452 3.67019 11.6686C3.65391 11.5924 3.63196 11.3498 3.63196 11.3498L3.60072 11.124C3.60072 11.124 3.58975 11.0211 3.57549 10.9563C3.52598 10.7306 3.5087 10.5121 3.5087 10.5121L3.49942 10.4223L3.49609 10.3296C3.49609 10.3296 3.49311 10.285 3.50408 10.2391C3.51505 10.1933 3.53735 10.1553 3.53735 10.1553C3.53735 10.1553 3.58323 10.0791 3.59118 10.0599C3.59882 10.0418 3.69253 9.93352 3.69253 9.93352C3.69253 9.93352 3.74169 9.89292 3.82179 9.84439C3.90223 9.79586 3.97433 9.79916 3.97433 9.79916C3.97433 9.79916 3.99559 9.79719 4.13785 9.81469C4.28007 9.83216 4.5725 9.9094 4.64629 9.92824C4.71904 9.94776 4.80614 9.9781 4.8626 10.0094C5.02509 10.0972 5.07429 10.06 4.94503 9.9593C4.85794 9.89163 4.8334 9.86125 4.76324 9.79792C4.70405 9.74376 4.65757 9.70776 4.61337 9.65794C4.56918 9.60709 4.44324 9.42262 4.44324 9.42262L4.36449 9.3071C4.36449 9.3071 4.32228 9.2596 4.31528 9.25625C4.30578 9.24982 4.29647 9.24311 4.28737 9.23612C4.28737 9.23612 4.23523 9.23874 4.18136 9.22853C4.12688 9.21763 4.10161 9.29358 4.10161 9.29358C4.10161 9.29358 3.98461 9.51041 3.86568 9.64314C3.67296 9.85864 3.53471 10.0052 3.46395 10.12C3.36458 10.2792 3.38653 10.4535 3.33534 10.534C3.30544 10.5812 3.28915 10.5881 3.27287 10.6294C3.22301 10.7545 3.40411 10.8231 3.3626 10.9617C3.29645 11.1816 2.77808 11.3991 2.70926 11.3628C2.6378 11.3255 2.6963 11.0281 2.72023 10.932C2.74481 10.8353 2.81756 10.6927 2.82426 10.6855C2.83057 10.6785 2.84819 10.6449 2.85346 10.6165C2.85912 10.5881 2.86111 10.5238 2.86444 10.4881C2.86776 10.4521 2.88271 10.3954 2.88271 10.3954C2.88271 10.3954 2.8847 10.3831 2.93054 10.2845C2.97672 10.1851 3.14555 9.95407 3.26652 9.73359C3.34627 9.58967 3.37949 9.50256 3.45924 9.35829C3.53268 9.22595 3.65861 9.02393 3.65861 9.02393C3.65861 9.02393 3.71175 8.92094 3.73668 8.88267C3.76195 8.84336 3.81509 8.76912 3.86495 8.69583C3.91515 8.62288 3.92742 8.56809 3.99287 8.50801C4.04704 8.45785 4.08394 8.43111 4.1547 8.40867C4.26003 8.374 4.33217 8.39254 4.43983 8.42223C4.55147 8.45257 4.62823 8.50342 4.70138 8.56349C4.74731 8.60236 4.78978 8.6451 4.8283 8.69124L4.86386 8.74338L4.88576 8.75625L4.95359 8.7995L5.10877 8.90146C5.10877 8.90146 5.47698 9.15035 5.49758 9.16386C5.5172 9.17674 5.5833 9.23055 5.59626 9.23484C5.60991 9.23879 5.70793 9.13314 5.90035 9.00149C6.12297 8.84799 6.20173 8.85954 6.27556 8.81963C6.34831 8.77968 6.37821 8.74668 6.43541 8.68991C6.52181 8.60409 6.52246 8.55822 6.62048 8.43841C6.7192 8.31894 6.81156 8.25192 6.81156 8.25192C6.81156 8.25192 6.82517 8.2384 7.001 8.04101C7.17645 7.8443 7.25421 7.6954 7.25421 7.6954L7.35059 7.50363C7.35059 7.50363 7.49013 7.20562 7.53502 7.08774C7.58021 6.96961 7.58021 6.9303 7.58021 6.9303C7.58021 6.9303 7.58682 6.89927 7.55295 6.8392C7.51804 6.77942 7.48214 6.8065 7.41535 6.82006C7.28743 6.84714 7.20967 6.8141 7.08041 6.7917C6.96212 6.77217 6.9003 6.7369 6.78167 6.71742C6.66139 6.69729 6.59128 6.67751 6.47062 6.68905C6.45234 6.69103 6.41549 6.69862 6.39782 6.70454C6.32969 6.72699 6.31077 6.73226 6.26027 6.76131C6.20177 6.78839 6.16324 6.79697 6.09843 6.7986C6.05355 6.79993 6.02633 6.80126 5.98481 6.78509C5.95621 6.77419 5.93993 6.76595 5.91733 6.74582C5.90514 6.73547 5.89461 6.72333 5.8861 6.70982C5.8848 6.69729 5.88078 6.69794 5.8931 6.67751C5.90506 6.6567 5.92001 6.65305 5.92001 6.65305L5.97518 6.63953C5.97518 6.63953 6.05294 6.61941 6.06024 6.61739C6.06724 6.61542 6.14133 6.59164 6.17386 6.58143C6.20678 6.57122 6.24268 6.55238 6.24268 6.55238C6.24268 6.55238 6.2626 6.52071 6.25495 6.50256C6.24532 6.48205 6.20112 6.48012 6.20112 6.48012C6.20112 6.48012 6.1393 6.50256 6.13235 6.50454C6.12569 6.50587 6.02698 6.53685 6.02698 6.53685C6.02698 6.53685 5.94956 6.55371 5.88942 6.56787C5.82894 6.58139 5.74254 6.58834 5.74254 6.58834L5.71662 6.58139C5.71662 6.58139 5.68737 6.56191 5.68275 6.54148C5.67843 6.52333 5.67575 6.50977 5.67242 6.489C5.65946 6.41305 5.64386 6.36718 5.66214 6.2923C5.66914 6.26093 5.67644 6.24342 5.69005 6.21441C5.70167 6.1903 5.70931 6.17644 5.72426 6.15365L5.77183 6.07641L5.86156 5.94472C5.89245 5.91369 5.91275 5.8982 5.95159 5.8764C6.00875 5.84473 6.04197 5.83581 6.11342 5.82787C6.18354 5.82028 6.19317 5.82096 6.29254 5.79882C6.39255 5.77638 6.46336 5.73711 6.46336 5.73711C6.46336 5.73711 6.70231 5.64996 6.84781 5.57899C7.00031 5.50475 7.0668 5.42549 7.22466 5.36413C7.29145 5.33838 7.33033 5.32615 7.39911 5.30869C7.40775 5.30307 7.41207 5.29779 7.41475 5.28753C7.4214 5.26277 7.38286 5.25123 7.35625 5.25385C7.33232 5.25582 7.27784 5.28093 7.26553 5.25385C7.2562 5.23308 7.31534 5.22085 7.31534 5.22085C7.31534 5.22085 7.34325 5.20798 7.34394 5.19249C7.34463 5.16871 7.30376 5.1842 7.28544 5.18223C7.19273 5.17197 7.18543 5.15515 7.12128 5.13966C7.04585 5.12087 7.00502 5.09774 6.92657 5.09443C6.85744 5.09177 6.79264 5.10632 6.74914 5.11653C6.70628 5.12743 6.70494 5.08551 6.72188 5.07727C6.84319 5.02114 6.84582 5.01651 6.93158 5.01256C6.97841 5.01059 7.0439 5.0205 7.0512 5.0241C7.0582 5.02805 7.15191 5.02346 7.17584 4.99904C7.20042 4.97527 7.09907 4.9766 7.0512 4.95776C7.00705 4.9403 6.93957 4.93536 6.94091 4.90627C6.94324 4.87722 6.97582 4.8934 6.99906 4.88747C7.02826 4.88052 7.04524 4.88121 7.07514 4.87726C7.12901 4.87001 7.13363 4.86503 7.21338 4.85847C7.29214 4.85087 7.4058 4.88421 7.4058 4.88421C7.4058 4.88421 7.52508 4.93674 7.58358 4.96446C7.64207 4.99149 7.71284 5.00569 7.71284 5.00569C7.71284 5.00569 7.79587 5.01724 7.85908 4.97797C7.92319 4.93901 7.88698 4.91326 7.86469 4.8773C7.84275 4.84362 7.81488 4.79479 7.85571 4.70236C7.89195 4.62181 7.91088 4.52775 7.9212 4.51917C7.9342 4.50896 7.98436 4.58122 8.01689 4.61096C8.13354 4.71922 8.28777 4.77269 8.43331 4.99909C8.44463 5.01724 8.49846 4.98819 8.66725 5.01393C8.83604 5.03968 8.98362 5.21922 9.02086 5.26217C9.05944 5.30539 9.10925 5.30307 9.10925 5.30307L9.19034 5.31397L9.48471 5.3189C9.48471 5.3189 9.61834 5.29513 9.69541 5.32422C9.74924 5.34435 9.9287 5.46351 9.84696 5.5087C9.78981 5.54041 9.73598 5.47076 9.68413 5.46746C9.62296 5.46351 9.59639 5.47506 9.54187 5.48857C9.42756 5.51698 9.18235 5.59057 9.27138 5.62027C9.27799 5.62288 9.29065 5.62486 9.29065 5.62486L9.3345 5.63245C9.3345 5.63245 9.4422 5.65687 9.50731 5.68227C9.60564 5.72089 9.65221 5.7635 9.74259 5.81628C9.79438 5.84598 9.81702 5.87572 9.87349 5.89254C9.92533 5.90743 9.95855 5.89254 10.0117 5.90146C10.0815 5.91369 10.1207 5.9279 10.1845 5.95823C10.2795 6.00346 10.3141 6.05826 10.3992 6.11898C10.4417 6.14966 10.4776 6.1543 10.5095 6.19558C10.5168 6.2048 10.5229 6.20978 10.5262 6.22064C10.5375 6.25827 10.4637 6.23613 10.4245 6.2299C10.3813 6.22265 10.3634 6.2015 10.3235 6.18335C10.2643 6.15563 10.2364 6.12524 10.1719 6.1137C10.1254 6.10478 10.0975 6.11173 10.0497 6.11434C10.0031 6.11632 9.97855 6.12327 9.93198 6.12391C9.85292 6.12524 9.80838 6.11834 9.73062 6.10211C9.64352 6.08401 9.60032 6.05032 9.51396 6.03247C9.41624 6.01234 9.24348 5.92918 9.26007 6.01235C9.26871 6.0523 9.36042 6.08594 9.36042 6.08594C9.36042 6.08594 9.42354 6.11962 9.48338 6.14601C9.54321 6.17176 9.57639 6.21107 9.57639 6.21107L9.6176 6.24145C9.6176 6.24145 9.66011 6.29955 9.71597 6.3652C9.77045 6.42991 9.86748 6.4279 9.86748 6.4279C9.86748 6.4279 9.92598 6.4279 10.0522 6.45364C10.1778 6.47939 10.3074 6.55659 10.3074 6.55659C10.3074 6.55659 10.4051 6.62327 10.4623 6.6903C10.5188 6.75732 10.4862 6.79097 10.4789 6.79788C10.4723 6.80513 10.4749 6.80182 10.4669 6.80513C10.4603 6.80843 10.3899 6.72063 10.3899 6.72063L10.3394 6.67807C10.3394 6.67807 10.2902 6.64374 10.2264 6.62327C10.1626 6.60314 10.1413 6.61666 10.1413 6.61666C10.1413 6.61666 10.0057 6.65429 9.88744 6.65099C9.77045 6.64769 9.70932 6.60113 9.70932 6.60113L9.63488 6.55161C9.63488 6.55161 9.52321 6.44764 9.51919 6.49685C9.51651 6.5302 9.5684 6.56714 9.5684 6.56714C9.5684 6.56714 9.6043 6.6031 9.62823 6.62593C9.67342 6.67013 9.69208 6.69227 9.74388 6.7381C9.79572 6.78436 9.82761 6.78436 9.82761 6.78436C9.82761 6.78436 9.85552 6.79092 9.86614 6.79294C9.87681 6.79491 9.89543 6.79989 9.89543 6.79989C9.89543 6.79989 9.91271 6.8065 9.99376 6.8392C10.0742 6.87151 10.1613 6.94184 10.1613 6.94184C10.1613 6.94184 10.1692 6.94845 10.1812 6.95077C10.1931 6.9521 10.2171 6.96398 10.2237 6.96596C10.231 6.96759 10.2516 6.96759 10.2982 6.9742C10.3454 6.98115 10.3274 7.01084 10.3274 7.01084L10.3194 7.02204L10.2808 7.04779C10.2808 7.04779 10.231 7.06199 10.1971 7.06362C10.1625 7.0656 10.1134 7.0465 10.1134 7.0465L10.009 7.00754C10.009 7.00754 9.90338 6.97982 9.88075 6.97617C9.85815 6.97287 9.7638 6.95407 9.74786 6.95077C9.73256 6.94716 9.68539 6.9303 9.67277 6.92305C9.66011 6.91614 9.63687 6.9115 9.57972 6.88378C9.52321 6.85606 9.50061 6.82405 9.43019 6.80191C9.35908 6.77947 9.31588 6.77487 9.2627 6.81152C9.17098 6.87421 9.4009 6.88447 9.51526 6.9412C9.68409 7.02372 9.77909 7.08443 9.81897 7.1736C9.85949 7.26303 9.90006 7.29539 9.90006 7.29539C9.90006 7.29539 10.019 7.35482 10.0722 7.41717C10.1014 7.45081 10.1054 7.47857 10.1346 7.51222C10.1997 7.58813 10.3261 7.58383 10.3513 7.6482C10.3753 7.70823 10.249 7.6812 10.1832 7.67523C10.0649 7.66369 10.0363 7.55607 9.92593 7.51286C9.86351 7.4881 9.82363 7.4881 9.75978 7.46634C9.64348 7.42837 9.589 7.37855 9.47266 7.34259C9.4022 7.32113 9.27458 7.22905 9.29057 7.29998C9.2932 7.31714 9.30383 7.33036 9.30845 7.34061C9.31446 7.35083 9.3437 7.38846 9.3437 7.38846C9.3437 7.38846 9.38289 7.43995 9.40082 7.45351C9.41745 7.46772 9.49253 7.5238 9.60019 7.5819C9.70656 7.64 9.79957 7.75157 9.79957 7.75157C9.79957 7.75157 9.8315 7.79715 9.84679 7.82886C9.86273 7.86452 9.85141 7.87537 9.87668 7.92489C9.89993 7.97407 9.91125 7.98364 9.94313 8.01402C10.0215 8.08894 10.104 8.07405 10.2036 8.11469C10.2309 8.12623 10.2329 8.13018 10.2621 8.1612C10.2914 8.19188 10.2568 8.20506 10.2568 8.20506C10.2568 8.20506 10.1458 8.23346 10.074 8.2275C9.98102 8.22025 9.93911 8.19184 9.84873 8.14696C9.75702 8.10241 9.70919 8.02221 9.6999 8.01728C9.69191 8.01196 9.66932 7.98823 9.65204 7.976C9.6348 7.96381 9.59021 7.95454 9.55034 7.94364C9.50982 7.93279 9.48718 7.93077 9.4467 7.91987C9.39153 7.90434 9.33433 7.88026 9.30841 7.87202C9.28249 7.8631 9.22334 7.85254 9.18014 7.87795C9.09374 7.9288 9.31437 7.96308 9.38285 8.03607C9.41805 8.07272 9.43266 8.09847 9.46592 8.13709C9.4912 8.16678 9.50182 8.18759 9.5331 8.21068C9.55431 8.22617 9.59354 8.24299 9.59354 8.24299C9.59354 8.24299 9.64668 8.26745 9.72444 8.31002C9.8022 8.35259 9.89323 8.47304 9.89323 8.47304L9.9484 8.55689L9.98097 8.60473L9.98961 8.62687L10.0015 8.65391C10.0015 8.65391 10.0415 8.7054 10.0707 8.72222C10.1 8.73973 10.0946 8.75492 10.0946 8.75492C10.0946 8.75492 10.0913 8.76552 10.0707 8.77706C10.0507 8.78929 10.0394 8.77904 10.0102 8.77045C9.98097 8.76221 9.96171 8.73449 9.93648 8.71433C9.90986 8.69321 9.88196 8.64206 9.83478 8.61301C9.79292 8.58795 9.73844 8.57903 9.71714 8.57242C9.69653 8.56487 9.64469 8.53251 9.62408 8.52359C9.60417 8.51565 9.55034 8.49123 9.55034 8.49123C9.55034 8.49123 9.4467 8.43382 9.38946 8.41833C9.33234 8.40245 9.36885 8.43712 9.36885 8.43712C9.36885 8.43712 9.42008 8.51633 9.46921 8.548C9.53306 8.58993 9.62274 8.62692 9.5935 8.66086C9.57354 8.683 9.54697 8.67506 9.51772 8.67176C9.4699 8.66618 9.41205 8.60937 9.41205 8.60937C9.41205 8.60937 9.38816 8.59387 9.28115 8.56019C9.17479 8.52552 9.21401 8.58362 9.23859 8.61499C9.25435 8.63423 9.27351 8.65045 9.29515 8.66283L9.3676 8.69519L9.40082 8.7054C9.40082 8.7054 9.43011 8.71068 9.52645 8.73312C9.62279 8.75492 9.67601 8.80148 9.67601 8.80148C9.67601 8.80148 9.72781 8.84932 9.79957 8.90215C9.87267 8.95561 9.94447 8.96918 9.98434 8.97445C10.0242 8.97939 10.0229 9.00711 10.0229 9.00711C10.0229 9.00711 10.0282 9.03255 10.0256 9.04079C10.0247 9.0451 10.0224 9.04897 10.019 9.05179C10.0156 9.05462 10.0114 9.05621 10.0069 9.05633C9.99895 9.05633 9.99501 9.05963 9.98439 9.06525C9.97376 9.07053 9.93254 9.07714 9.93254 9.07714C9.93254 9.07714 9.82489 9.07383 9.73982 9.05302C9.6561 9.03255 9.58162 8.97445 9.57362 8.97119C9.56701 8.96789 9.48856 8.92468 9.43408 8.90751C9.38159 8.89 9.29718 8.8976 9.28784 8.9009C9.27925 8.90421 9.24996 8.90884 9.20014 8.92335C9.14964 8.93656 9.21276 8.95566 9.21276 8.95566L9.24866 8.95896L9.33437 8.96557C9.33437 8.96557 9.42345 8.97578 9.49854 9.0035C9.57362 9.03058 9.62283 9.08538 9.67269 9.13554C9.70455 9.16649 9.73978 9.19383 9.77771 9.21707L9.81758 9.24282L9.83819 9.25831L9.84351 9.27183C9.84351 9.27183 9.84152 9.27878 9.83819 9.28732C9.83487 9.29624 9.82225 9.30281 9.82225 9.30281C9.82225 9.30281 9.80363 9.2995 9.79568 9.2995C9.78635 9.2995 9.72988 9.26981 9.68802 9.25166C9.64482 9.23286 9.62287 9.21501 9.57635 9.20377C9.53647 9.1942 9.48333 9.18991 9.47132 9.19356C9.4594 9.19686 9.37161 9.20909 9.30383 9.21368C9.23609 9.21896 9.17755 9.21995 9.0978 9.21038C8.98418 9.19686 8.83332 9.10769 8.81401 9.13249C8.77482 9.18463 8.89445 9.19948 8.95294 9.23282C9.03269 9.27869 9.17094 9.31997 9.17094 9.31997C9.17094 9.31997 9.27195 9.34207 9.33109 9.36979C9.46069 9.42957 9.49992 9.51801 9.60425 9.61108C9.66141 9.66322 9.70794 9.68566 9.78501 9.6969C9.8515 9.70652 9.85016 9.69858 9.95514 9.67811C10.0608 9.65734 10.1247 9.55796 10.1552 9.5943C10.1612 9.60125 10.1585 9.60782 10.1572 9.61808C10.1552 9.62829 10.1466 9.64713 10.1466 9.64713C10.1466 9.64713 10.1346 9.66395 10.116 9.68309C10.0968 9.70188 10.0243 9.74119 9.98642 9.75668C9.94853 9.77221 9.85552 9.79796 9.73853 9.79431C9.62153 9.79101 9.45676 9.70188 9.45676 9.70188L9.33848 9.65236C9.33848 9.65236 9.28396 9.62696 9.24676 9.6131C9.14839 9.57611 9.08592 9.57941 8.98487 9.55302C8.9224 9.5362 8.88123 9.51869 8.82472 9.50715C8.76757 9.49496 8.80014 9.51741 8.80545 9.5253C8.83202 9.56126 8.86788 9.57281 8.91311 9.59362C8.97295 9.62267 9.01481 9.61675 9.07594 9.64249C9.14441 9.66991 9.20425 9.70853 9.24214 9.73295C9.27933 9.75672 9.30729 9.7838 9.34383 9.82143L9.46942 9.92837C9.46942 9.92837 9.49867 9.95214 9.502 9.96205C9.50528 9.97231 9.51923 9.99801 9.51262 10.0393C9.50528 10.0806 9.47141 10.0515 9.47141 10.0515L9.43819 10.0304L9.40492 10L9.35239 9.95682C9.35239 9.95682 9.30724 9.91618 9.22944 9.87692C9.15236 9.83697 9.05931 9.82705 9.05931 9.82705C9.05931 9.82705 8.97688 9.81487 8.97956 9.84061C8.98353 9.86602 9.00207 9.86833 9.06721 9.88515C9.13301 9.90202 9.17621 9.93502 9.17621 9.93502C9.17621 9.93502 9.24339 9.98454 9.29186 10.0393C9.33969 10.0941 9.35368 10.1473 9.35368 10.1473C9.35368 10.1473 9.37827 10.1921 9.44009 10.2515C9.50191 10.3116 9.53448 10.2908 9.53111 10.3199C9.52779 10.3489 9.50053 10.3542 9.50053 10.3542C9.50053 10.3542 9.48459 10.3528 9.47798 10.3528C9.47132 10.3528 9.45538 10.344 9.4381 10.3374C9.42082 10.3307 9.35567 10.2859 9.35567 10.2859C9.35567 10.2859 9.25337 10.2034 9.24205 10.1954C9.20561 10.1687 9.16928 10.1419 9.13305 10.1149C9.13305 10.1149 9.0759 10.0786 9.03533 10.0581C8.99359 10.0386 8.95077 10.0214 8.90706 10.0066C8.87652 9.99672 8.81932 9.99342 8.81932 9.99342C8.81932 9.99342 8.75089 9.98321 8.70903 9.96767C8.64323 9.94257 8.56676 9.87292 8.55817 9.86962C8.54884 9.86602 8.4877 9.8452 8.47574 9.84718C8.46381 9.84851 8.43586 9.96338 8.42925 10.0297C8.40134 10.3077 8.47574 10.4921 8.59139 10.747C8.75819 11.1173 9.22274 11.5777 9.22274 11.5777C9.22274 11.5777 9.33973 11.6434 9.38894 11.6827C9.52783 11.7907 9.75779 11.9435 9.96183 12.1455C10.1359 12.3187 10.3673 12.626 10.3673 12.626C10.3673 12.626 10.5015 12.8115 10.564 12.9429C10.6398 13.104 10.7009 13.3496 10.7009 13.3496C10.7009 13.3496 10.7062 13.3918 10.7102 13.4011C10.7155 13.4096 10.7275 13.4209 10.7355 13.4209L10.8165 13.4235C10.8245 13.4235 10.9169 13.4169 10.9781 13.4017C11.0386 13.3865 11.1821 13.3212 11.2778 13.2717C11.3722 13.2215 11.4858 13.1264 11.4858 13.1264C11.4858 13.1264 11.5077 13.1079 11.6181 12.9852C11.7298 12.8624 11.8015 12.6782 11.8288 12.6086C11.8554 12.5396 11.8773 12.4066 11.8933 12.1795C11.9105 11.9515 11.8793 11.7111 11.8793 11.7111C11.8793 11.7111 11.8374 11.3758 11.8121 11.2615C11.7869 11.148 11.7258 10.9618 11.7258 10.9618C11.7258 10.9618 11.6833 10.7962 11.6699 10.6916C11.6559 10.5869 11.654 10.4166 11.654 10.4166C11.654 10.4166 11.654 10.3123 11.6878 10.1196C11.7231 9.92781 11.8414 9.73437 11.8414 9.73437C11.8414 9.73437 11.8746 9.66931 12.0023 9.51749C12.1332 9.36203 12.175 9.33761 12.304 9.24484C12.4064 9.17189 12.5386 9.0544 12.5818 9.08212C12.6297 9.11181 12.5352 9.17124 12.5034 9.20227C12.423 9.28148 12.2728 9.42141 12.1511 9.63232C12.0448 9.81487 12.0049 9.93566 11.9784 10.0548C11.9517 10.1737 11.9631 10.3044 11.9664 10.3489C11.9705 10.3935 11.995 10.3773 11.995 10.3773C11.995 10.3773 12.2535 10.171 12.3937 10.0149C12.5459 9.84593 12.6815 9.54521 12.7347 9.5426C12.7706 9.54028 12.7872 9.62082 12.7785 9.65811C12.7454 9.81422 12.7341 9.8337 12.6828 9.93733C12.6244 10.0562 12.5699 10.109 12.4888 10.2186C12.4037 10.3334 12.3619 10.3773 12.2934 10.5295C12.1945 10.7483 12.2522 10.9173 12.2522 10.9173C12.2522 10.9173 12.2642 11.02 12.3107 11.0186C12.3885 11.016 12.5593 10.8018 12.6709 10.6265C12.7534 10.4981 12.7833 10.3496 12.8371 10.2717C12.8863 10.2027 12.9295 10.3839 12.9082 10.4908C12.8836 10.6179 12.8205 10.7321 12.6816 10.912C12.546 11.0876 12.55 11.2546 12.55 11.2546C12.55 11.2546 12.5361 11.3309 12.5247 11.4972C12.5142 11.6629 12.562 11.9145 12.562 11.9145C12.562 11.9145 12.6044 12.1247 12.6132 12.2841C12.6212 12.4445 12.6158 12.8086 12.4649 13.0921C12.4051 13.2057 12.2768 13.3628 12.2768 13.3628C12.2768 13.3628 12.1778 13.4638 12.0967 13.5225C12.0156 13.5813 11.8208 13.6731 11.8208 13.6731C11.8208 13.6731 11.686 13.7193 11.6674 13.7232C11.6474 13.7285 11.6355 13.745 11.6355 13.745C11.6355 13.745 11.6474 13.7708 11.6527 13.7814C11.6573 13.7919 11.6952 13.8843 11.6952 13.8843C11.6952 13.8843 11.7357 14.015 11.751 14.1187C11.7663 14.2223 11.7484 14.2461 11.7338 14.3253C11.7192 14.4012 11.686 14.3662 11.6773 14.5154C11.67 14.6475 11.7298 14.7134 11.7192 14.8613C11.7146 14.926 11.6407 14.7795 11.6048 14.7175C11.5291 14.5827 11.547 14.3755 11.5457 14.324C11.5437 14.2725 11.5396 14.2157 11.5204 14.151C11.4972 14.0665 11.4619 14.0012 11.4227 13.9497C11.3828 13.8988 11.341 13.8698 11.327 13.8751C11.3131 13.8797 11.3117 13.9068 11.3117 13.92C11.311 13.9345 11.3389 13.9834 11.3449 13.994C11.3522 14.0038 11.4021 14.0943 11.4021 14.0943C11.4021 14.0943 11.424 14.1643 11.4326 14.3003C11.4413 14.435 11.3994 14.6026 11.3994 14.6026C11.3994 14.6026 11.3449 14.7908 11.2878 14.9017C11.2239 15.0238 11.0824 15.1902 11.0824 15.1902C11.0824 15.1902 10.9807 15.2826 10.9042 15.4344C10.8292 15.5862 10.8937 15.6523 10.8657 15.6721C10.8365 15.6912 10.7766 15.5843 10.7607 15.5123C10.7454 15.445 10.7527 15.4133 10.7806 15.338C10.8066 15.2654 10.8677 15.1604 10.8677 15.1604L10.9588 15.0066C10.9588 15.0066 11.0691 14.798 11.1037 14.6461C11.1382 14.4956 11.0983 14.328 11.0983 14.328C11.0983 14.328 11.0937 14.2726 11.0558 14.2752C11.0173 14.2771 10.9907 14.3102 10.9747 14.3504C10.9435 14.4336 10.988 14.4185 10.9401 14.5571C10.903 14.666 10.8923 14.6515 10.8724 14.7161C10.8484 14.7934 10.8358 14.8726 10.8372 14.9208C10.8392 14.9683 10.8126 14.9485 10.8126 14.9485C10.8126 14.9485 10.7661 14.8627 10.7661 14.7558C10.7661 14.6977 10.7688 14.6647 10.7754 14.6065C10.786 14.5135 10.8246 14.3709 10.8246 14.3709C10.8246 14.3709 10.8658 14.2303 10.8571 14.1022C10.8473 13.9728 10.802 13.9491 10.802 13.9491C10.802 13.9491 10.7901 13.9319 10.7396 13.9345C10.6897 13.9385 10.6924 14.0276 10.6924 14.0276C10.6924 14.0276 10.6771 14.1551 10.6572 14.2342C10.602 14.4527 10.5283 14.5676 10.398 14.7518C10.2797 14.9181 10.1195 15.0647 10.039 15.1334C9.95929 15.2034 9.71338 15.3809 9.71338 15.3809L9.42497 15.5717C9.42497 15.5717 9.31065 15.6826 9.25877 15.8146C9.20563 15.946 9.20827 16.049 9.23881 16.1698C9.26944 16.2913 9.31329 16.3467 9.33653 16.381C9.35913 16.4141 9.40371 16.4734 9.41831 16.5434C9.4276 16.5863 9.42099 16.6121 9.42363 16.6556C9.42635 16.6939 9.43162 16.7151 9.43028 16.754C9.42894 16.8147 9.44022 16.8576 9.40501 16.9071C9.37973 16.9448 9.31061 16.9778 9.31061 16.9778C9.31061 16.9778 9.23224 17.012 9.18563 17.0404C8.69512 17.3342 8.52106 17.525 8.24457 17.8524C8.15682 17.9574 8.22132 17.9508 8.12762 18.0749C8.07077 18.1489 7.93952 18.1489 7.892 18.2373C7.8259 18.3581 8.04087 18.4769 7.79263 18.5832C7.47264 18.7205 6.92199 18.6221 6.91101 18.5793C6.88112 18.4617 7.01867 18.3258 7.06753 18.2717C7.29149 18.0287 7.49156 18.0227 7.565 17.8214C7.58094 17.7785 7.57464 17.7416 7.75306 17.6102C7.87834 17.5184 8.37879 17.1441 8.59748 16.8946C8.67257 16.8088 8.73702 16.752 8.7696 16.6596C8.80286 16.5658 8.73702 16.5071 8.73702 16.5071L8.64729 16.3618L8.47518 16.0562C8.47518 16.0562 8.40277 15.8938 8.36354 15.8C8.32302 15.7063 8.24789 15.4541 8.24789 15.4541C8.24789 15.4541 8.19277 15.227 8.18339 15.0791C8.1668 14.8137 8.20335 14.6593 8.27386 14.4018C8.36488 14.0678 8.57156 13.9278 8.65399 13.5964C8.67797 13.5001 8.68324 13.335 8.63403 13.343C8.5875 13.3516 8.58353 13.4816 8.54767 13.5688C8.41474 13.8975 8.23925 14.0414 8.14291 14.382C8.07846 14.6124 8.05189 14.7491 8.05249 14.9881C8.05323 15.1247 8.04787 15.0996 8.08308 15.3366C8.09703 15.4237 8.11829 15.4706 8.14425 15.5557C8.16283 15.6165 8.21268 15.73 8.21268 15.73C8.21268 15.73 8.28116 15.8799 8.30509 15.9848C8.31235 16.0212 8.32172 16.0416 8.319 16.0779C8.31438 16.1406 8.32565 16.1539 8.29511 16.2106C8.25722 16.2813 8.28042 16.3228 8.1595 16.3492C8.05184 16.3716 7.83186 16.3004 7.83186 16.3004C7.83186 16.3004 6.92765 16.0284 6.35043 16.1069C6.23612 16.1221 6.17464 16.1637 6.05968 16.1617C5.955 16.1604 5.90182 16.0792 5.79714 16.1102C5.77589 16.1162 5.76924 16.1313 5.74997 16.1439C5.59712 16.2495 5.71407 16.4251 5.31134 16.334C5.0641 16.2779 4.76471 16.1274 4.81651 16.033C4.88593 15.9076 4.97899 15.8871 5.17443 15.8072C5.38344 15.7227 5.69713 15.7465 5.75895 15.7425C5.83438 15.7366 5.94273 15.6844 6.07761 15.6811C6.3109 15.6771 6.35242 15.7049 6.35242 15.7049L6.74849 15.7398L7.50651 15.7491C7.50651 15.7491 7.64207 15.7392 7.6959 15.7286C7.75042 15.718 7.79328 15.6118 7.82313 15.5609C7.85242 15.5108 7.82184 15.4368 7.82184 15.4368L7.79929 15.4018L7.72714 15.2863L7.5939 15.0632L7.44602 14.7701C7.44602 14.7701 7.34934 14.5662 7.29784 14.4321C7.24665 14.2988 7.21675 14.2235 7.18284 14.0856C7.14728 13.9436 7.12534 13.8288 7.12072 13.7146C7.1151 13.5507 7.10413 13.4233 7.15031 13.2892Z" fill="black"/>
<path id="Vector_9" d="M12.071 13.0172C12.2305 12.8139 12.2458 12.6251 12.2551 12.3591C12.2624 12.1657 12.1887 11.8676 12.1887 11.8676L12.1787 11.8458C12.1787 11.8458 12.1507 11.8098 12.1335 11.8574C12.1362 11.8993 12.1415 11.933 12.1415 11.933L12.1508 12.3168C12.1508 12.3168 12.1388 12.5102 12.0724 12.7096C11.9607 13.0463 11.6643 13.1961 11.6212 13.3176C11.5473 13.5189 11.8803 13.2621 12.071 13.0172ZM10.3989 13.6385C10.3989 13.6385 10.3337 13.657 10.3324 13.7209C10.3311 13.785 10.3483 13.8404 10.3463 13.9177C10.345 14.0161 10.254 14.1296 10.3125 14.1666C10.4128 14.23 10.4992 13.7837 10.4686 13.7177C10.4381 13.6516 10.4082 13.6377 10.3989 13.6385ZM9.27303 16.7325C9.27303 16.7325 9.25437 16.7226 9.21786 16.7365C9.18201 16.7503 9.1846 16.7873 9.1846 16.7873C9.1846 16.7873 9.1773 16.8269 9.20654 16.8309C9.23584 16.8362 9.28366 16.7649 9.28366 16.7569C9.28366 16.749 9.27303 16.7325 9.27303 16.7325ZM8.21364 17.4804C8.21364 17.4804 8.20297 17.491 8.2123 17.4982C8.22224 17.5069 8.23623 17.4963 8.23623 17.4963C8.23623 17.4963 8.41898 17.3543 8.52733 17.2547C8.64164 17.1477 8.8065 16.9636 8.8065 16.9636C8.8065 16.9636 8.81777 16.9497 8.80516 16.9378C8.79181 16.9259 8.76062 16.9444 8.73469 16.9563C8.7121 16.9681 8.69879 16.9807 8.68156 16.9946C8.66561 17.0091 8.61109 17.0646 8.61109 17.0646L8.47017 17.2006L8.38109 17.2837L8.29473 17.3655L8.25883 17.4065C8.25883 17.4065 8.2495 17.4224 8.2469 17.4263C8.24418 17.4309 8.23494 17.4428 8.23494 17.4428C8.23494 17.4428 8.22159 17.4554 8.22159 17.4593C8.22159 17.4626 8.21761 17.4659 8.21761 17.4699C8.21661 17.4735 8.21528 17.477 8.21364 17.4804ZM7.89762 17.6864C7.89762 17.6864 7.878 17.6706 7.84711 17.6858C7.81588 17.7023 7.78266 17.7445 7.77994 17.7491C7.777 17.7551 7.76002 17.7775 7.77168 17.7973C7.78331 17.8171 7.82284 17.7881 7.8288 17.7868C7.83446 17.7868 7.886 17.7459 7.886 17.7459C7.886 17.7459 7.91589 17.7273 7.89762 17.6864ZM7.29249 18.295C7.29249 18.295 7.26657 18.2475 7.23266 18.2673C7.19874 18.2871 7.18017 18.2938 7.14893 18.3366C7.14362 18.3439 7.11005 18.3868 7.10404 18.398C7.09808 18.4086 7.06452 18.472 7.13264 18.4766C7.24963 18.4832 7.17282 18.4086 7.21304 18.3795C7.24562 18.3571 7.30675 18.3631 7.30744 18.3393C7.30809 18.3156 7.29249 18.295 7.29249 18.295ZM5.21889 15.8631C5.21889 15.8631 5.14878 15.8803 5.14346 15.904C5.1378 15.9291 5.18433 15.9529 5.19163 15.9542C5.19993 15.9555 5.21557 15.974 5.2624 15.9423C5.30858 15.9113 5.30659 15.8849 5.30659 15.8849C5.30659 15.8849 5.33385 15.8532 5.21889 15.8631ZM6.35938 15.8261C6.35938 15.8261 6.35869 15.8004 6.30918 15.8037C6.25867 15.8064 6.24805 15.8156 6.24671 15.8235C6.24506 15.8307 6.24938 15.8433 6.29423 15.8473C6.33976 15.8499 6.35804 15.8472 6.35938 15.8261ZM7.43769 15.8571C7.34697 15.8565 7.37557 15.8592 7.31975 15.8618C7.2184 15.8671 7.16323 15.8631 7.06322 15.8565C6.92294 15.8472 6.70598 15.8129 6.70598 15.8129C6.70598 15.8129 6.67872 15.8063 6.66775 15.8241C6.65777 15.8406 6.69432 15.8789 6.72689 15.8888C6.90467 15.9436 6.9143 15.9344 7.03527 15.9364C7.10275 15.937 7.14029 15.9304 7.20743 15.9264C7.29249 15.9199 7.33202 15.933 7.42473 15.9086C7.44897 15.9027 7.47225 15.8578 7.43769 15.8571ZM8.04515 15.6782C8.04515 15.6782 8.02688 15.6572 7.98929 15.6756C7.95214 15.6934 7.9295 15.7337 7.9295 15.7337C7.9295 15.7337 7.91192 15.7614 7.94946 15.7575C7.98601 15.7522 8.01889 15.7364 8.02753 15.7311C8.03716 15.7257 8.06442 15.7007 8.04515 15.6782ZM7.51645 8.43619C7.51645 8.43619 7.77298 8.19756 7.95672 7.88203C8.06567 7.69387 8.11319 7.25587 8.01953 7.36478C7.97728 7.41464 7.92613 7.64173 7.84504 7.81003C7.72939 8.04964 7.48249 8.38898 7.48249 8.38898C7.48249 8.38898 7.4294 8.50188 7.51645 8.43619ZM6.49097 9.04256C6.49097 9.04256 6.46371 9.06367 6.47602 9.09736C6.48898 9.13169 6.54117 9.10594 6.54117 9.10594C6.54117 9.10594 6.6598 9.0614 6.78409 9.05676C6.90869 9.05149 7.08149 9.08843 7.08149 9.08843C7.08149 9.08843 7.16388 9.11088 7.17753 9.11615C7.19114 9.12178 7.23603 9.14323 7.24367 9.14585C7.25033 9.14881 7.29318 9.16962 7.31712 9.14817C7.34105 9.12637 7.16725 8.96961 6.98982 8.94584C6.69436 8.90589 6.50034 9.03231 6.50034 9.03231L6.49097 9.04256ZM5.27406 10.076C5.29497 10.0938 5.39369 9.907 5.47607 9.78883C5.53656 9.70236 5.64694 9.55779 5.64694 9.55779C5.64694 9.55779 5.69675 9.49145 5.61238 9.52844C5.57816 9.54363 5.48445 9.61457 5.41831 9.74497C5.36245 9.85585 5.25212 10.0585 5.27406 10.076ZM4.59152 9.26433C4.59152 9.26433 4.57022 9.33663 4.65533 9.42704C4.74104 9.51784 4.76299 9.59272 4.81751 9.53861C4.83245 9.52377 4.76432 9.40164 4.72976 9.36766C4.69421 9.33397 4.66894 9.30625 4.66894 9.30625L4.64669 9.2881L4.61809 9.27226L4.6018 9.2657C4.6018 9.2657 4.59748 9.26171 4.59152 9.26433ZM4.31498 8.57118C4.31498 8.57118 4.22262 8.58835 4.20002 8.63289C4.17708 8.67747 4.30634 8.6504 4.30634 8.6504C4.30634 8.6504 4.39206 8.65499 4.39409 8.62268C4.39607 8.58968 4.38316 8.58637 4.31498 8.57118ZM2.8472 10.9873C2.80003 10.9738 2.79208 11.0659 2.78573 11.0956C2.78041 11.1252 2.80703 11.1847 2.81796 11.1847C2.82858 11.184 2.86613 11.1259 2.86811 11.0976C2.87014 11.0685 2.88876 11.0002 2.8472 10.9873ZM4.37153 12.7869C4.37153 12.7869 4.28712 12.7205 4.27416 12.7469C4.26154 12.7733 4.34363 12.8898 4.34363 12.8898C4.34363 12.8898 4.36886 12.9281 4.40774 12.9109C4.44593 12.8925 4.43232 12.8502 4.43232 12.8502C4.43232 12.8502 4.4064 12.7961 4.37153 12.7869ZM3.73517 10.8407C3.73517 10.8407 3.71357 10.8352 3.70593 10.8609C3.69793 10.8866 3.69862 10.9285 3.69296 10.9794C3.68834 11.019 3.70329 11.1246 3.70329 11.1246C3.70329 11.1246 3.71158 11.2085 3.72852 11.2583C3.74679 11.3131 3.79531 11.391 3.79531 11.391C3.79531 11.391 3.81358 11.4309 3.83618 11.429C3.85843 11.4267 3.85311 11.4006 3.85311 11.4006C3.85311 11.4006 3.78235 11.122 3.78036 11.0936C3.77202 11.0009 3.77202 10.888 3.77202 10.888L3.77138 10.8711C3.77138 10.8711 3.77068 10.8414 3.73517 10.8407ZM3.84547 9.99085C3.84547 9.99085 3.80659 9.9836 3.77073 10.0578C3.73452 10.1331 3.74217 10.1635 3.74545 10.1668C3.74813 10.1701 3.77669 10.1694 3.82257 10.0998C3.8681 10.0308 3.85778 10.0044 3.85778 10.0044C3.85778 10.0044 3.8551 9.99085 3.84547 9.99085ZM4.91484 10.7609C4.91484 10.7609 4.96167 10.8305 4.87198 10.8144C4.78195 10.7982 4.59286 10.65 4.51574 10.6101C4.43962 10.5701 4.31434 10.5575 4.36687 10.5107C4.3765 10.5028 4.37914 10.4951 4.39409 10.4945C4.40972 10.4939 4.46157 10.514 4.46485 10.5163C4.46753 10.5176 4.60076 10.5724 4.60573 10.5737C4.6104 10.5757 4.68518 10.6074 4.73832 10.6384C4.7915 10.6697 4.87786 10.7298 4.87786 10.7298L4.91484 10.7609ZM7.40745 12.8925C7.43203 12.9691 7.12366 12.7307 6.9585 12.6043C6.52086 12.2696 5.98516 11.5834 6.05195 11.5227C6.10712 11.4728 6.32676 11.7871 6.64879 12.1333C6.99306 12.5023 7.39315 12.8469 7.40745 12.8925ZM8.69478 12.5644C8.59908 12.6657 8.56521 12.7954 8.62034 12.8925C8.67417 12.9868 8.6908 12.7545 8.75064 12.6861C8.80248 12.6264 8.83436 12.636 8.91943 12.5759C9.06432 12.4746 8.81578 12.4353 8.69478 12.5644ZM8.14715 10.3985C8.08135 10.3879 8.08334 10.4872 8.09263 10.5576C8.13652 10.8724 8.27879 11.115 8.46879 11.3435C8.58448 11.4827 8.9015 11.7309 8.938 11.691C8.95135 11.6768 8.63628 11.4349 8.43557 11.124C8.29335 10.9035 8.21757 10.717 8.19964 10.5351C8.1977 10.512 8.20297 10.4074 8.14715 10.3985ZM6.91962 5.73159C6.77671 5.80848 6.52881 5.8762 6.52881 5.8762C6.52881 5.8762 6.51749 5.90061 6.54942 5.898C6.7618 5.88113 6.84285 5.85474 6.95586 5.80522C7.06884 5.75673 7.15092 5.62203 7.15092 5.62203C7.15092 5.62203 7.1968 5.53819 7.11173 5.60719C7.08512 5.6283 6.99803 5.68902 6.91962 5.73159ZM8.64362 5.19065C8.64362 5.19065 8.59511 5.18005 8.56254 5.20022C8.52996 5.22069 8.53925 5.23686 8.53925 5.23686C8.53925 5.23686 8.5898 5.27514 8.62565 5.28145C8.66155 5.28673 8.73863 5.32007 8.73603 5.29432C8.73266 5.26793 8.68951 5.22073 8.67417 5.20786C8.66026 5.19425 8.64362 5.19065 8.64362 5.19065ZM7.83217 6.66936C7.84042 6.68619 7.98532 6.64692 8.04118 6.61585C8.08472 6.59144 8.10196 6.50956 8.10196 6.50956C8.10196 6.50956 8.11393 6.43035 8.09535 6.46103C8.01258 6.59543 7.82413 6.65216 7.83217 6.66936ZM7.8275 6.29999C7.886 6.18842 7.66696 6.41585 7.55533 6.47459C7.4872 6.51025 7.37622 6.55775 7.37622 6.55775C7.37622 6.55775 7.34697 6.59406 7.38784 6.59075C7.42871 6.58809 7.53274 6.62311 7.61715 6.5584C7.63711 6.54256 7.72481 6.4158 7.72481 6.4158C7.72481 6.4158 7.79955 6.35277 7.8275 6.29999ZM7.79359 6.77463C7.79821 6.79278 8.04377 6.78681 8.10529 6.76836C8.1538 6.75514 8.18037 6.67001 8.18037 6.67001C8.18037 6.67001 8.20962 6.59543 8.18435 6.62049C8.07306 6.73339 7.78931 6.75647 7.79359 6.77463ZM3.84944 9.00888C3.84944 9.00888 3.81224 8.99536 3.76606 9.06432C3.72018 9.13297 3.5135 9.4449 3.55005 9.49077C3.59356 9.54488 3.77267 9.21219 3.82724 9.15014C3.88236 9.0871 3.85977 9.02372 3.85977 9.02372C3.85977 9.02372 3.85912 9.00952 3.84944 9.00888ZM8.35184 14.6326C8.32925 14.7363 8.35582 14.9482 8.39176 14.9897C8.47946 15.0947 8.42563 14.8254 8.43824 14.7309C8.44887 14.6432 8.4595 14.6128 8.50339 14.519C8.5818 14.3501 8.39776 14.4121 8.35184 14.6326ZM7.5975 5.61942C7.5975 5.61942 7.52941 5.62139 7.47623 5.65044C7.4224 5.67949 7.40909 5.72077 7.40909 5.72077C7.40909 5.72077 7.39812 5.75047 7.40546 5.76664C7.42106 5.80196 7.49485 5.74849 7.54634 5.76596C7.58786 5.78081 7.60782 5.79304 7.6397 5.83097C7.66761 5.86401 7.71647 5.91151 7.74706 5.88444C7.7786 5.85805 7.76702 5.79037 7.76702 5.79037C7.76702 5.79037 7.73077 5.68014 7.68329 5.64911C7.63538 5.61744 7.5975 5.61942 7.5975 5.61942ZM6.4657 6.39473C6.4657 6.39473 6.42746 6.40066 6.43645 6.44687C6.44543 6.4921 6.47036 6.48515 6.47036 6.48515C6.47036 6.48515 6.54946 6.45146 6.5448 6.4043C6.53914 6.35676 6.4657 6.39473 6.4657 6.39473ZM5.91306 6.14851C5.91306 6.14851 5.87154 6.15018 5.84229 6.20129C5.82408 6.23445 5.80884 6.26915 5.79676 6.30496C5.79676 6.30496 5.78315 6.37165 5.80704 6.39276C5.83132 6.41353 5.85789 6.34955 5.89275 6.32445C5.91366 6.3096 5.92667 6.30299 5.94827 6.2878C5.97786 6.26763 6.02603 6.29338 6.02271 6.23399C6.01843 6.17421 5.95462 6.14585 5.91306 6.14851ZM7.69885 5.50982C7.69885 5.50982 7.60484 5.49631 7.60847 5.53226C7.61179 5.56591 7.65936 5.54578 7.6899 5.55934C7.7198 5.57286 7.73976 5.57814 7.76365 5.59994C7.78128 5.61543 7.77924 5.64581 7.80089 5.64645C7.83078 5.64714 7.82482 5.63491 7.82482 5.63491C7.82482 5.63491 7.79756 5.55436 7.76205 5.53162C7.7268 5.50849 7.69885 5.50982 7.69885 5.50982ZM8.74796 5.88641C8.73465 5.93726 8.72666 5.95472 8.72666 5.95472C8.72666 5.95472 8.70013 6.05805 8.80511 6.02008C8.91014 5.98176 8.85562 5.99794 8.93135 5.96133C9.00583 5.92503 9.00449 5.94515 9.05901 5.94782C9.07759 5.94846 9.08955 5.9491 9.11751 5.94387C9.1414 5.93855 9.13142 5.91083 9.07828 5.89662C9.02116 5.88178 8.95135 5.88508 8.8703 5.88439C8.82244 5.88379 8.76191 5.8356 8.74796 5.88641ZM8.79449 5.50454C8.79449 5.50454 8.74662 5.49364 8.7134 5.51411C8.68082 5.53424 8.6908 5.55042 8.6908 5.55042C8.6908 5.55042 8.74066 5.58972 8.7772 5.595C8.81311 5.60127 8.89018 5.63426 8.88754 5.60787C8.88352 5.58213 8.84101 5.53428 8.82572 5.52141C8.81047 5.50849 8.79449 5.50454 8.79449 5.50454ZM8.9793 6.2218C8.9793 6.2218 8.92807 6.21155 8.89286 6.23103C8.85829 6.25017 8.86758 6.2657 8.86758 6.2657C8.86758 6.2657 8.9221 6.30205 8.96064 6.30762C8.99922 6.3129 9.0816 6.34393 9.07828 6.31917C9.07499 6.29475 9.02842 6.24952 9.01313 6.23734C8.99784 6.22506 8.9793 6.2218 8.9793 6.2218ZM8.99524 6.48184C8.99524 6.48184 8.94068 6.46966 8.90348 6.4921C8.86629 6.5142 8.87752 6.53205 8.87752 6.53205C8.87752 6.53205 8.93407 6.57462 8.97528 6.58058C9.01581 6.58685 9.10355 6.62251 9.09953 6.5941C9.09625 6.56573 9.04704 6.51424 9.02976 6.50038C9.01382 6.48579 8.99524 6.48184 8.99524 6.48184ZM9.01978 6.73536C9.01978 6.73536 8.96064 6.72185 8.92072 6.74691C8.8802 6.77197 8.89281 6.79213 8.89281 6.79213C8.89281 6.79213 8.95394 6.83964 8.99784 6.84693C9.04238 6.85388 9.13738 6.89443 9.13345 6.86242C9.12943 6.83075 9.07625 6.77197 9.05767 6.75647C9.04039 6.73995 9.01978 6.73536 9.01978 6.73536ZM9.01447 7.04891C9.01447 7.04891 8.95533 7.03638 8.91541 7.06114C8.87488 7.08556 8.8862 7.10568 8.8862 7.10568C8.8862 7.10568 8.94863 7.15319 8.99252 7.16048C9.03642 7.16743 9.13142 7.20803 9.12744 7.17632C9.12282 7.1443 9.07029 7.08556 9.05236 7.07003C9.03374 7.05389 9.01447 7.04891 9.01447 7.04891ZM8.97127 7.66022C8.97127 7.66022 8.91143 7.64735 8.87156 7.67245C8.83168 7.69721 8.84365 7.71704 8.84365 7.71704C8.84365 7.71704 8.90478 7.76488 8.94867 7.77184C8.99321 7.77844 9.08826 7.81968 9.08428 7.78733C9.08027 7.75566 9.02717 7.69721 9.00851 7.68104C8.99784 7.67138 8.98511 7.66426 8.97127 7.66022ZM9.01119 7.35457C9.01119 7.35457 8.94336 7.33908 8.89549 7.36809C8.84961 7.39645 8.86361 7.41958 8.86361 7.41958C8.86361 7.41958 8.93472 7.47502 8.98587 7.48296C9.03642 7.4912 9.14675 7.53776 9.14274 7.50145C9.13742 7.46416 9.07625 7.39649 9.05504 7.37834C9.04237 7.36729 9.02739 7.35917 9.01119 7.35457ZM8.94202 7.93683C8.94202 7.93683 8.89281 7.92524 8.85963 7.94605C8.82637 7.96652 8.83704 7.9827 8.83704 7.9827C8.83704 7.9827 8.88754 8.02265 8.92344 8.02793C8.95999 8.03389 9.03775 8.06719 9.03508 8.0408C9.0311 8.01437 8.9879 7.96652 8.97265 7.95365C8.958 7.94013 8.94202 7.93683 8.94202 7.93683ZM8.89549 8.2015C8.89549 8.2015 8.85562 8.19292 8.82771 8.20979C8.80118 8.22661 8.80909 8.24012 8.80909 8.24012C8.80909 8.24012 8.85095 8.27248 8.88089 8.27741C8.91074 8.28205 8.97658 8.31046 8.9739 8.28801C8.97122 8.26656 8.93403 8.22661 8.92206 8.21571C8.91435 8.20911 8.90528 8.20426 8.89549 8.2015ZM8.83838 8.44314C8.83838 8.44314 8.80248 8.4349 8.7772 8.45039C8.75327 8.46524 8.75992 8.47811 8.75992 8.47811C8.75992 8.47811 8.79781 8.50716 8.82507 8.51115C8.85233 8.51609 8.91078 8.54084 8.90819 8.52136C8.90616 8.50188 8.87359 8.46524 8.86227 8.45567C8.85095 8.4458 8.83838 8.44314 8.83838 8.44314ZM8.78118 8.64117C8.78118 8.64117 8.74398 8.63289 8.72009 8.64774C8.69478 8.66327 8.70212 8.67546 8.70212 8.67546C8.70212 8.67546 8.74001 8.70515 8.76727 8.70914C8.79453 8.71343 8.85298 8.73884 8.85035 8.71875C8.84836 8.69927 8.81578 8.66331 8.80382 8.6537C8.79315 8.64383 8.78118 8.64117 8.78118 8.64117ZM8.71145 8.87092C8.71145 8.87092 8.6822 8.86397 8.6616 8.8762C8.64164 8.88907 8.64829 8.89864 8.64829 8.89864C8.64829 8.89864 8.67883 8.92245 8.70078 8.9264C8.72273 8.92966 8.77055 8.95017 8.76796 8.93361C8.76593 8.91812 8.73936 8.88907 8.73072 8.88083C8.72139 8.87289 8.71145 8.87092 8.71145 8.87092ZM8.62837 9.08577C8.62837 9.08577 8.6031 9.07981 8.58582 9.09036C8.56858 9.10126 8.5739 9.11015 8.5739 9.11015C8.5739 9.11015 8.60047 9.13027 8.61909 9.13293C8.63771 9.13658 8.67888 9.15409 8.67689 9.13988C8.67559 9.12637 8.65231 9.10126 8.64501 9.09466C8.6401 9.09065 8.63445 9.08763 8.62837 9.08577ZM8.54262 9.29012C8.54262 9.29012 8.51665 9.28449 8.49942 9.29539C8.48274 9.30561 8.48875 9.31419 8.48875 9.31419C8.48875 9.31419 8.51402 9.33466 8.53329 9.33796C8.55256 9.34062 8.59308 9.35809 8.59109 9.34491C8.5898 9.33037 8.56651 9.30561 8.55921 9.2987C8.55126 9.29205 8.54262 9.29012 8.54262 9.29012ZM2.97914 10.3295C2.97914 10.3295 2.93629 10.412 2.95754 10.4573C2.97849 10.5028 3.0363 10.3849 3.0363 10.3849C3.0363 10.3849 3.09609 10.2674 3.07185 10.246C3.04727 10.2242 3.03301 10.2849 2.97914 10.3295Z" fill="white"/>
<path id="Vector_10" d="M9.02844 20.9271V20.7667C9.02844 20.4023 9.21391 20.331 9.75557 20.3284C10.254 20.331 10.4301 20.393 10.4301 20.7073V21.9199H10.6142V22.1932H9.39665C9.14012 22.1932 8.97267 22.0183 8.97267 21.8031V21.5575C8.97267 21.3456 9.08162 21.1608 9.46314 21.1587H9.939V20.7897C9.939 20.5969 9.9257 20.5739 9.73103 20.5739H9.729C9.49575 20.5739 9.48046 20.6042 9.48046 20.7897V20.927H9.02844M9.59343 21.3621C9.49774 21.3621 9.44123 21.4387 9.44123 21.5337V21.7681C9.44123 21.8625 9.4818 21.9377 9.59343 21.9391H9.7649C9.8593 21.9391 9.93641 21.91 9.93641 21.7681L9.93771 21.3621H9.59343ZM7.87042 20.7852V20.3613H7.1912V20.6135H7.3723V21.9193H7.1912V22.1932H8.04193V21.9193H7.87042V21.2195C7.87042 21.1542 8.27085 20.6519 8.27085 20.7099V21.405H8.74145V20.6228C8.74145 20.4439 8.62377 20.3284 8.4091 20.3284C8.15386 20.3284 7.9814 20.6472 7.87042 20.7852ZM13.2847 21.918V20.3613H12.5915V20.6135H12.7856V21.918H12.5915V22.1932H13.4668V21.918H13.2847ZM6.12282 20.7852V20.3613H5.4436V20.6135H5.6247V21.9193H5.4436V22.1932H6.29364V21.9193H6.12282V21.2195C6.12282 21.1542 6.52291 20.6519 6.52291 20.7099V21.405H6.99312V20.6228C6.99312 20.4439 6.87613 20.3284 6.66116 20.3284C6.40657 20.3284 6.23381 20.6472 6.12282 20.7852Z" fill="black"/>
<path id="Vector_11" fill-rule="evenodd" clip-rule="evenodd" d="M5.18363 21.5931H4.70712V21.7304C4.70712 21.9166 4.67588 21.9245 4.44358 21.9272H4.44026C4.17405 21.9285 4.18904 21.9021 4.19202 21.7304V21.405H5.18359V20.698C5.18359 20.4418 4.98888 20.3342 4.47512 20.3323H4.40138C3.84675 20.3349 3.69922 20.4603 3.69922 20.7772V21.8123C3.69922 22.1608 3.90654 22.2196 4.41166 22.2335H4.46678C5.01812 22.2209 5.18359 22.1832 5.18359 21.8578V21.5931M4.19738 20.7244C4.19738 20.628 4.22663 20.5804 4.33761 20.5791H4.54662C4.63302 20.5791 4.68119 20.6174 4.68119 20.686V21.2162H4.19733V20.7244H4.19738Z" fill="black"/>
<path id="Vector_12" d="M13.0334 19.9851V19.6537" stroke="black" stroke-width="0.687532" stroke-miterlimit="10"/>
<path id="Vector_13" d="M11.4782 20.7851V20.3613H10.7983V20.6135H10.9791V21.9192H10.7983V22.1932H11.649V21.9192H11.4782V21.2195C11.4782 21.1542 11.8777 20.6518 11.8777 20.7098V21.405H12.3489V20.6227C12.3489 20.4438 12.2305 20.3284 12.0152 20.3284C11.7614 20.3283 11.5885 20.6472 11.4782 20.7851Z" fill="black"/>
<path id="Vector_14" d="M3.10515 21.3027V21.0585H2.84032V21.9199H3.29921V22.1932H1.95374V21.9199H2.31162V19.9851H2.0305V19.6523H12.5103V19.9851H2.84032V20.762H3.10515V20.5323H3.40989V21.3027H3.10515Z" fill="black"/>
<path id="Vector_15" fill-rule="evenodd" clip-rule="evenodd" d="M12.7782 19.6405H13.278V19.968H12.7782V19.6405Z" fill="black"/>
</g>
</svg>
