<svg width="17" height="16" viewBox="0 0 17 16" fill="none" xmlns="http://www.w3.org/2000/svg">
<g id="Img">
<path id="Vector" fill-rule="evenodd" clip-rule="evenodd" d="M13.4761 4.52795C13.3645 4.96498 13.1106 5.35244 12.7545 5.62927C12.3983 5.9061 11.9602 6.05656 11.5091 6.05695C10.9713 6.05642 10.4556 5.84245 10.0754 5.46203C9.69512 5.0816 9.4814 4.56582 9.48114 4.02795C9.48344 3.53487 9.66514 3.05947 9.99231 2.69055C10.3195 2.32163 10.7697 2.0844 11.259 2.02317C11.7483 1.96193 12.2431 2.08087 12.6511 2.35778C13.0591 2.6347 13.3524 3.05064 13.4761 3.52795H14.9401C15.0727 3.52795 15.1999 3.58063 15.2937 3.6744C15.3875 3.76817 15.4401 3.89535 15.4401 4.02795C15.4401 4.16056 15.3875 4.28774 15.2937 4.38151C15.1999 4.47528 15.0727 4.52795 14.9401 4.52795H13.4761ZM10.4811 4.02795C10.4875 3.76054 10.5977 3.5061 10.7884 3.31855C10.9791 3.131 11.2354 3.0251 11.5028 3.02328C11.7703 3.02146 12.028 3.12387 12.2213 3.3088C12.4145 3.49373 12.5282 3.74665 12.5381 4.01395V4.04295C12.5221 4.30611 12.4058 4.5531 12.2132 4.73308C12.0205 4.91305 11.7662 5.01229 11.5025 5.01037C11.2389 5.00845 10.986 4.9055 10.796 4.72274C10.606 4.53998 10.4933 4.29131 10.4811 4.02795ZM5.32014 6.17295C4.37414 6.17295 3.57714 6.82395 3.35414 7.70195H1.89014C1.75753 7.70195 1.63035 7.75463 1.53658 7.8484C1.44282 7.94217 1.39014 8.06934 1.39014 8.20195C1.39014 8.33456 1.44282 8.46174 1.53658 8.55551C1.63035 8.64928 1.75753 8.70195 1.89014 8.70195H3.35414C3.46598 9.1388 3.71996 9.52603 4.07607 9.80266C4.43219 10.0793 4.8702 10.2296 5.32114 10.23C5.85901 10.2294 6.37468 10.0155 6.75492 9.63503C7.13516 9.2546 7.34887 8.73882 7.34914 8.20095C7.34861 7.66308 7.13464 7.14741 6.75421 6.76717C6.37379 6.38694 5.85801 6.17322 5.32014 6.17295ZM5.32014 7.17295C5.04972 7.17372 4.79045 7.2808 4.59831 7.47108C4.40616 7.66135 4.29655 7.91956 4.29314 8.18995V8.21295C4.29511 8.41627 4.35722 8.61446 4.47163 8.78254C4.58605 8.95063 4.74765 9.08109 4.93608 9.15748C5.12452 9.23388 5.33134 9.2528 5.53051 9.21185C5.72967 9.17091 5.91226 9.07193 6.05527 8.92739C6.19828 8.78285 6.29531 8.59922 6.33414 8.39963C6.37296 8.20004 6.35185 7.99343 6.27345 7.80582C6.19505 7.61821 6.06288 7.45801 5.89359 7.34538C5.7243 7.23276 5.52547 7.17277 5.32214 7.17295H5.32014Z" fill="#121214"/>
<path id="Vector_2" d="M8.57414 8.70195H14.9401C15.0727 8.70195 15.1999 8.64928 15.2937 8.55551C15.3875 8.46174 15.4401 8.33456 15.4401 8.20195C15.4401 8.06935 15.3875 7.94217 15.2937 7.8484C15.1999 7.75463 15.0727 7.70195 14.9401 7.70195H8.57414C8.44153 7.70195 8.31435 7.75463 8.22058 7.8484C8.12682 7.94217 8.07414 8.06935 8.07414 8.20195C8.07414 8.33456 8.12682 8.46174 8.22058 8.55551C8.31435 8.64928 8.44153 8.70195 8.57414 8.70195ZM8.25614 4.52795H1.89014C1.75753 4.52795 1.63035 4.47528 1.53658 4.38151C1.44282 4.28774 1.39014 4.16056 1.39014 4.02795C1.39014 3.89535 1.44282 3.76817 1.53658 3.6744C1.63035 3.58063 1.75753 3.52795 1.89014 3.52795H8.25614C8.38875 3.52795 8.51592 3.58063 8.60969 3.6744C8.70346 3.76817 8.75614 3.89535 8.75614 4.02795C8.75614 4.16056 8.70346 4.28774 8.60969 4.38151C8.51592 4.47528 8.38875 4.52795 8.25614 4.52795ZM1.89014 12.928H8.26314C8.39575 12.928 8.52292 12.8753 8.61669 12.7815C8.71046 12.6877 8.76314 12.5606 8.76314 12.428C8.76314 12.2953 8.71046 12.1682 8.61669 12.0744C8.52292 11.9806 8.39575 11.928 8.26314 11.928H1.89014C1.75753 11.928 1.63035 11.9806 1.53658 12.0744C1.44282 12.1682 1.39014 12.2953 1.39014 12.428C1.39014 12.5606 1.44282 12.6877 1.53658 12.7815C1.63035 12.8753 1.75753 12.928 1.89014 12.928Z" fill="#121214"/>
<path id="Vector_3" fill-rule="evenodd" clip-rule="evenodd" d="M13.62 11.93C13.5087 11.4929 13.2551 11.1052 12.8991 10.8282C12.5431 10.5512 12.1051 10.4005 11.654 10.4C11.1159 10.4006 10.6001 10.6147 10.2198 10.9953C9.83958 11.3759 9.62598 11.892 9.62598 12.43C9.62651 12.9677 9.84034 13.4832 10.2205 13.8635C10.6008 14.2437 11.1163 14.4575 11.654 14.458C12.601 14.458 13.397 13.807 13.62 12.93H14.94C15.0726 12.93 15.1998 12.8773 15.2935 12.7836C15.3873 12.6898 15.44 12.5626 15.44 12.43C15.44 12.2974 15.3873 12.1702 15.2935 12.0765C15.1998 11.9827 15.0726 11.93 14.94 11.93H13.62ZM10.626 12.43C10.6423 12.1685 10.7577 11.923 10.9487 11.7435C11.1397 11.5641 11.3919 11.4642 11.654 11.4642C11.916 11.4642 12.1683 11.5641 12.3592 11.7435C12.5502 11.923 12.6657 12.1685 12.682 12.43C12.6703 12.6948 12.5569 12.9449 12.3654 13.1281C12.1739 13.3114 11.919 13.4137 11.654 13.4137C11.3889 13.4137 11.1341 13.3114 10.9426 13.1281C10.7511 12.9449 10.6377 12.6948 10.626 12.43Z" fill="#121214"/>
</g>
</svg>
