<svg width="49" height="18" viewBox="0 0 49 18" fill="none" xmlns="http://www.w3.org/2000/svg">
<g id="Frame 1000003129">
<g id="Group 1000003145">
<path id="Vector" d="M24.0207 0C10.6994 0 0.020874 3.99324 0.020874 8.99983C0.020874 13.9759 10.7873 18 24.0207 18C37.2544 18 48.0209 13.9624 48.0209 8.99983C48.0209 4.03723 37.2544 0 24.0207 0Z" fill="#003478"/>
<path id="Vector_2" d="M33.4741 10.9064C33.4805 10.9476 33.5346 10.9871 33.587 11.0058C33.6063 11.0122 33.6158 11.0251 33.5956 11.0689C33.4462 11.3892 33.3088 11.5739 33.1215 11.8522C32.9491 12.1094 32.755 12.3101 32.52 12.5031C32.1655 12.7964 31.6732 13.1157 31.2662 12.9011C31.0855 12.8073 31.0072 12.5542 31.0107 12.3494C31.0193 11.7734 31.2755 11.182 31.7487 10.6009C32.3255 9.89069 32.9631 9.52235 33.3816 9.72368C33.8146 9.93021 33.6764 10.4315 33.4825 10.825C33.4675 10.8555 33.4675 10.8813 33.4739 10.9062M38.1202 6.4181C38.1513 6.36314 38.1185 6.323 38.0491 6.323C37.6875 6.323 37.213 6.32381 36.8362 6.32381C36.7465 6.32381 36.7001 6.33455 36.6578 6.41828C36.5187 6.68477 34.8237 9.22516 34.5082 9.71849C34.455 9.79363 34.3902 9.78311 34.3827 9.69702C34.3507 9.40401 34.0977 9.06717 33.699 8.906C33.3952 8.78277 33.0982 8.76045 32.7894 8.80145C32.2319 8.87638 31.7353 9.17046 31.2986 9.50215C30.6405 10.0025 30.0727 10.651 29.3397 11.1302C28.9396 11.391 28.3916 11.6185 28.025 11.2789C27.6931 10.9713 27.7306 10.2879 28.2383 9.75941C28.2918 9.70402 28.356 9.75082 28.3459 9.79998C28.298 10.039 28.3566 10.2767 28.5382 10.4433C28.7597 10.6419 29.0767 10.6643 29.348 10.5318C29.6682 10.3731 29.8563 10.0668 29.9112 9.71911C29.9959 9.17977 29.5808 8.70409 29.0614 8.66592C28.6394 8.63629 28.2347 8.78314 27.8404 9.1086C27.6427 9.27263 27.5304 9.39377 27.3594 9.63695C27.3178 9.69685 27.2538 9.70286 27.2558 9.61441C27.2751 8.92389 26.9898 8.53539 26.419 8.52272C25.9758 8.51199 25.5025 8.75255 25.1335 9.04673C24.7291 9.37157 24.3754 9.80206 23.9963 10.2066C23.949 10.2564 23.908 10.254 23.8947 10.1574C23.884 9.69989 23.7683 9.25674 23.5566 8.94205C23.4816 8.83256 23.3239 8.77846 23.1914 8.85231C23.1303 8.8858 22.9174 8.9837 22.7625 9.10848C22.6856 9.17181 22.6555 9.26348 22.6897 9.38098C22.894 10.0645 22.8492 10.8417 22.5718 11.498C22.3172 12.0992 21.8224 12.6414 21.2407 12.8249C20.8576 12.9464 20.4593 12.8869 20.2128 12.5472C19.8743 12.0784 20.011 11.263 20.5156 10.586C20.9609 9.98983 21.605 9.61114 22.2475 9.3673C22.3231 9.33811 22.3388 9.28959 22.3173 9.22539C22.2825 9.11977 22.2267 8.97589 22.2042 8.91023C22.1451 8.7533 21.9802 8.72796 21.7787 8.74986C21.3118 8.80418 20.8907 8.96412 20.4747 9.18688C19.3854 9.77023 18.8393 10.8992 18.6 11.5032C18.4847 11.7934 18.3862 11.9744 18.2588 12.1349C18.0871 12.3508 17.8715 12.5473 17.4774 12.8934C17.4417 12.9252 17.4151 12.9913 17.4452 13.053C17.4853 13.1363 17.6903 13.4258 17.7482 13.4516C17.8123 13.4832 17.8868 13.4388 17.9167 13.4177C18.1925 13.2307 18.5225 12.9344 18.684 12.7334C18.7406 12.6644 18.7988 12.6934 18.8289 12.798C18.9796 13.3357 19.3742 13.7747 19.9198 13.9583C20.9186 14.2952 21.9546 13.8076 22.7365 12.9588C23.2335 12.4193 23.4128 12.0723 23.6033 11.8365C23.9261 11.4365 24.5629 10.5416 25.3214 9.96709C25.5995 9.7552 25.9287 9.59358 26.0942 9.70093C26.2271 9.78702 26.27 9.9871 26.0568 10.3748C25.2835 11.787 24.1458 13.4462 23.9371 13.8485C23.8989 13.9183 23.9328 13.9732 24.0054 13.9732C24.41 13.9712 24.8112 13.9722 25.1785 13.9722C25.2397 13.9701 25.2669 13.9413 25.2976 13.8982C25.8911 12.9691 26.4496 12.085 27.0482 11.1708C27.0817 11.1169 27.1126 11.1579 27.1139 11.1815C27.1268 11.3936 27.1783 11.6837 27.3043 11.8742C27.5306 12.2264 27.8513 12.3777 28.2069 12.38C28.4899 12.3843 28.6331 12.3403 28.9382 12.2263C29.1865 12.1342 29.3859 12.0133 29.5388 11.904C29.6282 11.8417 29.6438 11.9458 29.6417 11.9617C29.5043 12.6992 29.6739 13.5731 30.4068 13.9354C31.2839 14.3679 32.2475 13.76 32.802 13.2112C32.8563 13.1584 32.9145 13.164 32.9201 13.278C32.933 13.4875 33.0266 13.7362 33.1999 13.9102C33.6646 14.3765 34.6022 14.1917 35.5431 13.4633C36.1473 12.997 36.7794 12.3381 37.3504 11.6405C37.3718 11.6134 37.3873 11.5701 37.3461 11.526C37.2591 11.435 37.1333 11.3309 37.0471 11.2507C37.0078 11.2172 36.9501 11.2269 36.917 11.2519C36.3317 11.8086 35.8049 12.4434 35.0434 12.9684C34.7866 13.1477 34.3773 13.2923 34.1935 13.0433C34.1218 12.9467 34.1299 12.8132 34.1999 12.6378C34.4219 12.0841 37.9369 6.73219 38.1194 6.41654" fill="white"/>
<path id="Vector_3" d="M21.5828 7.06379C21.5978 7.14323 21.6287 7.15869 21.6648 7.15203C21.8438 7.11618 22.0397 6.9689 22.1557 6.79818C22.2614 6.64339 22.3109 6.42001 22.206 6.33051C22.1124 6.25 21.96 6.27276 21.847 6.37259C21.622 6.57139 21.5537 6.85344 21.5827 7.06395M12.6239 13.9531C11.3133 13.9617 10.1587 13.1522 10.0262 11.75C9.95259 10.973 10.1722 10.2805 10.6119 9.71C11.002 9.20165 11.6622 8.77931 12.2209 8.67614C12.4028 8.64286 12.6471 8.66326 12.7481 8.78434C12.9065 8.96876 12.861 9.17133 12.7026 9.25216C12.2763 9.46983 11.7633 9.84251 11.5095 10.3514C11.3036 10.7667 11.262 11.2672 11.5764 11.7441C12.1027 12.5387 13.5698 12.5606 14.9339 11.2932C15.2718 10.983 15.5741 10.685 15.8814 10.332C16.4822 9.64502 16.682 9.39467 17.4807 8.28682C17.4892 8.27394 17.4935 8.2572 17.4892 8.24904C17.4828 8.23401 17.4721 8.23186 17.4482 8.22972C16.9151 8.24474 16.4503 8.4034 15.9985 8.74106C15.8684 8.83595 15.6811 8.82264 15.5992 8.69769C15.5079 8.55643 15.5734 8.37253 15.7235 8.26868C16.4503 7.76318 17.2442 7.67151 18.055 7.53467C18.0544 7.53467 18.1113 7.53681 18.1576 7.47584C18.4905 7.04866 18.7418 6.66332 19.0966 6.2313C19.4541 5.79298 19.9159 5.39046 20.2687 5.08812C20.7612 4.66463 21.077 4.52212 21.398 4.34745C21.4826 4.30322 21.3872 4.25041 21.3615 4.25041C19.5694 3.91356 17.7067 3.47771 15.9269 4.13662C14.6943 4.59663 14.1542 5.57415 14.414 6.22733C14.5988 6.69067 15.2081 6.766 15.7786 6.48682C16.2524 6.25466 16.6909 5.88048 17.0017 5.39881C17.1756 5.13131 17.542 5.32432 17.344 5.78881C16.8232 7.013 15.8283 7.98403 14.6163 8.02503C13.5849 8.05853 12.9194 7.29967 12.9216 6.36349C12.9258 4.51696 14.9813 3.30061 17.1415 3.11877C19.7431 2.90376 22.2071 3.59677 24.7902 3.91011C26.7692 4.14978 28.6666 4.15479 30.6559 3.69778C30.891 3.64669 31.056 3.79675 31.0407 4.03428C31.0214 4.37763 30.7554 4.70829 30.1002 5.06564C29.3551 5.47432 28.5756 5.59832 27.7615 5.60498C25.7929 5.62215 23.9592 4.85398 22.0616 4.44163C22.0638 4.52471 22.0857 4.62368 22.0161 4.67613C20.965 5.45147 20.0149 6.23882 19.3786 7.34469C19.3571 7.37024 19.3678 7.3945 19.4058 7.39192C19.9583 7.36251 20.4551 7.34834 20.9709 7.30712C21.0611 7.29853 21.0645 7.27707 21.0566 7.21137C21.0109 6.83019 21.1223 6.39552 21.4576 6.09652C21.8007 5.78883 22.2304 5.75384 22.5152 5.97544C22.839 6.22778 22.8103 6.68163 22.6332 7.02197C22.4529 7.3673 22.1551 7.55197 21.8693 7.64165C21.8693 7.64165 21.8092 7.65453 21.8182 7.70906C21.8289 7.79622 22.2189 8.01207 22.2522 8.06956C22.2844 8.12431 22.2672 8.20911 22.2086 8.27416C22.1674 8.32139 22.1028 8.36561 22.0201 8.36411C21.9534 8.36278 21.9128 8.33964 21.8273 8.29348C21.6526 8.1988 21.4342 8.04315 21.2885 7.85964C21.239 7.79759 21.2136 7.79631 21.0898 7.80318C20.5316 7.83538 19.6613 7.91954 19.0717 7.99317C18.9287 8.01035 18.9077 8.03761 18.8783 8.08721C17.9381 9.63757 16.9344 11.3094 15.8323 12.4288C14.6501 13.629 13.6675 13.945 12.6244 13.9532" fill="white"/>
<path id="Vector_4" d="M24.0202 1.47175C11.7649 1.47175 1.83109 4.85848 1.83109 9.00273C1.83109 13.1473 11.7649 16.5344 24.0202 16.5344C36.2752 16.5344 46.2084 13.1473 46.2084 9.00273C46.2084 4.85848 36.2752 1.47175 24.0202 1.47175ZM24.0202 17.2169C11.3188 17.2169 1.02246 13.5393 1.02246 9.00273C1.02246 4.46547 11.3188 0.788574 24.0202 0.788574C36.7204 0.788574 47.0161 4.46547 47.0161 9.00273C47.0161 13.5393 36.7204 17.2169 24.0202 17.2169Z" fill="white"/>
</g>
</g>
</svg>
