<svg width="18" height="18" viewBox="0 0 18 18" fill="none" xmlns="http://www.w3.org/2000/svg">
<g id="gas-station 1">
<g id="Group">
<g id="Group_2">
<g id="Group_3">
<path id="Vector" d="M14.3557 4.37497L13.315 3.33432C13.2134 3.23269 13.0488 3.23269 12.9472 3.33432C12.8455 3.43596 12.8455 3.60059 12.9472 3.7022L13.8039 4.55889L12.9472 5.41559C12.8984 5.46437 12.8709 5.53042 12.8709 5.59954V6.38002C12.8709 6.95396 13.3377 7.42067 13.9116 7.42067V11.8434C13.9116 11.9869 13.795 12.1035 13.6514 12.1035C13.5079 12.1035 13.3913 11.9869 13.3913 11.8434V11.3231C13.3913 10.8927 13.0412 10.5426 12.6108 10.5426H12.3506V3.77844C12.3506 3.20449 11.8839 2.73779 11.31 2.73779H6.10681C5.53289 2.73779 5.06616 3.20449 5.06616 3.77844V13.1442C4.49224 13.1442 4.02551 13.6109 4.02551 14.1848V14.9653C4.02551 15.1091 4.14188 15.2255 4.28568 15.2255H13.1311C13.2749 15.2255 13.3913 15.1091 13.3913 14.9653V14.1848C13.3913 13.6109 12.9246 13.1442 12.3506 13.1442V11.0629H12.6108C12.7543 11.0629 12.871 11.1795 12.871 11.3231V11.8434C12.871 12.2738 13.2211 12.6239 13.6515 12.6239C14.0818 12.6239 14.4319 12.2738 14.4319 11.8434V4.55892C14.4319 4.4898 14.4045 4.42375 14.3557 4.37497ZM5.58649 3.77844C5.58649 3.49161 5.81998 3.25813 6.10681 3.25813H11.31C11.5968 3.25813 11.8303 3.49161 11.8303 3.77844V13.1442H5.58647V3.77844H5.58649ZM12.8709 14.1848V14.7051H4.54585V14.1848C4.54585 13.898 4.77933 13.6645 5.06616 13.6645H12.3506C12.6375 13.6645 12.8709 13.898 12.8709 14.1848ZM13.9116 6.90035C13.6248 6.90035 13.3913 6.66687 13.3913 6.38004V5.70727L13.9116 5.18696V6.90035Z" fill="#272B3B"/>
<path id="Vector_2" d="M11.0496 3.77844H6.36674C6.22293 3.77844 6.10657 3.89481 6.10657 4.03861V7.16535C6.10657 7.30916 6.22293 7.42552 6.36674 7.42552H11.0496C11.1934 7.42552 11.3098 7.30916 11.3098 7.16535V4.03859C11.3098 3.89481 11.1934 3.77844 11.0496 3.77844ZM10.7894 6.90519H6.62688V4.29875H10.7894V6.90519Z" fill="#272B3B"/>
</g>
</g>
</g>
</g>
</svg>
