<svg width="25" height="26" viewBox="0 0 25 26" fill="none" xmlns="http://www.w3.org/2000/svg">
<g id="google">
<path id="vector" d="M22.661 12.7975C22.661 11.8944 22.5896 11.2353 22.435 10.5518H12.3822V14.6282H18.283C18.164 15.6413 17.5216 17.1669 16.094 18.192L16.074 18.3285L19.2525 20.8546L19.4727 20.8772C21.4951 18.961 22.661 16.1416 22.661 12.7975Z" fill="#4285F4"/>
<path id="vector_2" d="M12.3815 23.5379C15.2724 23.5379 17.6993 22.5615 19.472 20.8773L16.0933 18.1921C15.1892 18.839 13.9757 19.2906 12.3815 19.2906C9.55013 19.2906 7.14701 17.3744 6.29036 14.726L6.16479 14.7369L2.85975 17.361L2.81653 17.4842C4.57723 21.0725 8.19385 23.5379 12.3815 23.5379Z" fill="#019044"/>
<path id="vector_3" d="M6.29095 14.726C6.06492 14.0426 5.9341 13.3102 5.9341 12.5535C5.9341 11.7968 6.06492 11.0645 6.27906 10.3811L6.27307 10.2355L2.9266 7.56931L2.81711 7.62273C2.09144 9.11175 1.67505 10.7838 1.67505 12.5535C1.67505 14.3232 2.09144 15.9953 2.81711 17.4843L6.29095 14.726Z" fill="#FBBC05"/>
<path id="vector_4" d="M12.3816 5.81646C14.3921 5.81646 15.7483 6.70741 16.5217 7.45196L19.5434 4.42514C17.6876 2.65544 15.2725 1.5692 12.3816 1.5692C8.19388 1.5692 4.57724 4.03456 2.81653 7.62276L6.27849 10.3811C7.14703 7.73265 9.55017 5.81646 12.3816 5.81646Z" fill="#EB4335"/>
</g>
</svg>
