<svg width="16" height="17" viewBox="0 0 16 17" fill="none" xmlns="http://www.w3.org/2000/svg">
<g id="Google__G__Logo 1" clip-path="url(#clip0_37_974)">
<g id="Group">
<path id="Vector" d="M8.16309 7.01581V10.1772H12.5564C12.3635 11.1939 11.7846 12.0548 10.9163 12.6337L13.5657 14.6894C15.1093 13.2645 15.9998 11.1717 15.9998 8.68566C15.9998 8.10681 15.9479 7.55017 15.8514 7.0159L8.16309 7.01581Z" fill="#4285F4"/>
<path id="Vector_2" d="M3.58858 10.0538L2.99105 10.5112L0.875977 12.1587C2.21921 14.8229 4.97226 16.6634 8.16335 16.6634C10.3674 16.6634 12.2152 15.9361 13.5659 14.6894L10.9166 12.6337C10.1893 13.1235 9.26164 13.4204 8.16335 13.4204C6.0409 13.4204 4.23761 11.9881 3.59192 10.0585L3.58858 10.0538Z" fill="#34A853"/>
<path id="Vector_3" d="M0.875636 4.84137C0.319078 5.93966 0 7.17902 0 8.49996C0 9.82091 0.319078 11.0603 0.875636 12.1586C0.875636 12.1659 3.59184 10.0509 3.59184 10.0509C3.42857 9.56115 3.33207 9.0417 3.33207 8.49988C3.33207 7.95806 3.42857 7.43861 3.59184 6.94882L0.875636 4.84137Z" fill="#FBBC05"/>
<path id="Vector_4" d="M8.16352 3.58721C9.36577 3.58721 10.4344 4.00278 11.2878 4.80428L13.6255 2.46664C12.208 1.14569 10.3676 0.336731 8.16352 0.336731C4.97243 0.336731 2.21921 2.16976 0.875977 4.8414L3.59209 6.94902C4.2377 5.01949 6.04107 3.58721 8.16352 3.58721Z" fill="#EA4335"/>
</g>
</g>
<defs>
<clipPath id="clip0_37_974">
<rect width="16" height="16.3265" fill="white" transform="translate(0 0.336731)"/>
</clipPath>
</defs>
</svg>
