<svg width="24" height="24" viewBox="0 0 24 24" fill="none" xmlns="http://www.w3.org/2000/svg">
<g id="headset">
<path id="Vector" d="M19.2729 4.56844C17.2699 2.61844 14.6191 1.5 11.9998 1.5C9.38038 1.5 6.7296 2.61844 4.72663 4.56844C2.64585 6.59391 1.49976 9.23438 1.49976 12C1.49976 13.2502 1.90991 14.8636 3.04101 17.8852C4.1721 20.9067 6.42163 22.1719 7.37179 22.3786C7.64413 22.4381 7.96335 22.5 8.24976 22.5C8.74327 22.5004 9.22823 22.3711 9.65601 22.125L10.3123 21.75C11.0187 21.3366 11.2249 20.4314 10.8185 19.718L6.74413 12.5662C6.64704 12.3951 6.51697 12.2449 6.36144 12.1244C6.2059 12.0039 6.02801 11.9155 5.83805 11.8642C5.6481 11.8129 5.44985 11.7999 5.25481 11.8258C5.05977 11.8516 4.8718 11.916 4.70179 12.015L4.06007 12.39C3.81343 12.5345 3.59181 12.718 3.40382 12.9333C3.38048 12.9607 3.34977 12.9808 3.31533 12.9912C3.28089 13.0016 3.24419 13.0018 3.2096 12.9919C3.17501 12.9821 3.14399 12.9624 3.12025 12.9354C3.09651 12.9084 3.08104 12.8751 3.07569 12.8395C3.02845 12.5621 3.00305 12.2814 2.99976 12C2.99976 9.64172 3.98413 7.38375 5.77288 5.64328C7.49976 3.96328 9.76804 3 11.9998 3C14.2315 3 16.4998 3.96328 18.2266 5.64328C20.0154 7.38375 20.9998 9.64172 20.9998 12C20.9955 12.2815 20.9692 12.5622 20.921 12.8395C20.9157 12.8751 20.9002 12.9084 20.8764 12.9354C20.8527 12.9624 20.8217 12.9821 20.7871 12.9919C20.7525 13.0018 20.7158 13.0016 20.6814 12.9912C20.6469 12.9808 20.6162 12.9607 20.5929 12.9333C20.4049 12.718 20.1833 12.5345 19.9366 12.39L19.2949 12.015C19.1249 11.916 18.9369 11.8516 18.7419 11.8258C18.5468 11.7999 18.3486 11.8129 18.1586 11.8642C17.9687 11.9155 17.7908 12.0039 17.6353 12.1244C17.4797 12.2449 17.3497 12.3951 17.2526 12.5662L13.181 19.718C12.7746 20.4314 12.9809 21.3366 13.6873 21.75L14.3435 22.125C14.7713 22.3711 15.2562 22.5004 15.7498 22.5C16.0362 22.5 16.3554 22.4381 16.6277 22.3786C17.5779 22.1719 19.8279 20.9062 20.9585 17.8852C22.0891 14.8641 22.4998 13.2502 22.4998 12C22.4998 9.23438 21.3537 6.59391 19.2729 4.56844Z" fill="white"/>
</g>
</svg>
