<svg width="18" height="16" viewBox="0 0 18 16" fill="none" xmlns="http://www.w3.org/2000/svg">
<path id="Vector" d="M9 16C8.8757 15.9996 8.75502 15.9587 8.65682 15.8836C5.52882 13.4889 3.37409 11.4267 1.86635 9.3923C-0.0577072 6.79246 -0.496528 4.39218 0.561142 2.25798C1.31501 0.733553 3.48099 -0.513705 6.01264 0.212476C7.2197 0.556021 8.27284 1.29276 9 2.30233C9.72716 1.29276 10.7803 0.556021 11.9874 0.212476C14.5134 -0.502619 16.685 0.733553 17.4389 2.25798C18.4965 4.39218 18.0577 6.79246 16.1336 9.3923C14.6259 11.4267 12.4712 13.4889 9.34318 15.8836C9.24498 15.9587 9.1243 15.9996 9 16ZM4.57241 1.11605C3.97002 1.09294 3.37262 1.23193 2.84433 1.51808C2.31604 1.80423 1.87682 2.22674 1.57381 2.74025C0.70179 4.50305 1.0956 6.4654 2.77775 8.73264C4.56542 11.0046 6.65873 13.0262 9 14.7417C11.3409 13.0279 13.4342 11.0082 15.2222 8.73818C16.91 6.4654 17.2982 4.50305 16.4262 2.7458C15.8636 1.63712 14.1758 0.755727 12.2968 1.2768C11.6943 1.45225 11.1357 1.75005 10.6571 2.15104C10.1784 2.55202 9.79025 3.04731 9.51758 3.60502C9.4752 3.70669 9.40309 3.79365 9.31043 3.85485C9.21777 3.91605 9.10874 3.94873 8.99719 3.94873C8.88564 3.94873 8.7766 3.91605 8.68394 3.85485C8.59128 3.79365 8.51918 3.70669 8.47679 3.60502C8.20617 3.04591 7.81869 2.54947 7.33973 2.14823C6.86078 1.747 6.30117 1.45003 5.69759 1.2768C5.3319 1.17215 4.95322 1.11804 4.57241 1.11605Z" fill="#1C1E21"/>
</svg>
