<svg width="26" height="26" viewBox="0 0 26 26" fill="none" xmlns="http://www.w3.org/2000/svg">
<g id="Hide">
<g id="Iconly/Bold/Hide">
<g id="Hide_2">
<path id="Vector" d="M19.9953 4.69231C20.3002 4.39485 20.778 4.39485 21.0729 4.69231C21.3778 4.98977 21.3778 5.48213 21.0729 5.77959L19.2227 7.64642C20.6967 9.00039 21.9471 10.8262 22.8824 13.0213C22.9637 13.2161 22.9637 13.4418 22.8824 13.6264C20.7069 18.7346 16.8337 21.7913 12.5233 21.7913H12.5131C10.5511 21.7913 8.67041 21.145 7.01336 19.9655L5.04117 21.9554C4.88868 22.1092 4.69553 22.181 4.50237 22.181C4.30922 22.181 4.1059 22.1092 3.96358 21.9554C3.70943 21.6989 3.66877 21.2887 3.87209 20.9912L3.90258 20.9502L18.938 5.77959C18.9583 5.75907 18.9787 5.73856 18.9888 5.71804C19.0092 5.69753 19.0295 5.67701 19.0397 5.6565L19.9953 4.69231ZM12.526 4.87069C13.9798 4.87069 15.3928 5.21944 16.6941 5.8759L13.2987 9.30185C13.0547 9.26082 12.7904 9.23005 12.526 9.23005C10.2794 9.23005 8.45967 11.0661 8.45967 13.333C8.45967 13.5997 8.49017 13.8664 8.53083 14.1125L4.76943 17.9077C3.75284 16.7179 2.8684 15.2819 2.16695 13.6304C2.08563 13.4458 2.08563 13.2201 2.16695 13.0253C4.34246 7.91711 8.21569 4.87069 12.5159 4.87069H12.526ZM15.8781 11.0211L14.77 12.1391C14.953 12.4879 15.0546 12.8982 15.0546 13.329C15.0546 14.7342 13.916 15.883 12.5233 15.883C12.0963 15.883 11.6897 15.7805 11.3441 15.5958L10.236 16.7139C10.8866 17.155 11.6795 17.4216 12.5233 17.4216C14.7598 17.4216 16.5795 15.5856 16.5795 13.329C16.5795 12.4776 16.3152 11.6775 15.8781 11.0211Z" fill="#3474FF"/>
</g>
</g>
</g>
</svg>
