<svg width="25" height="24" viewBox="0 0 25 24" fill="none" xmlns="http://www.w3.org/2000/svg">
<g id="home">
<path id="Vector" d="M12.7607 4.74745C12.6909 4.68069 12.598 4.64343 12.5015 4.64343C12.4049 4.64343 12.312 4.68069 12.2422 4.74745L3.61255 12.9914C3.5759 13.0264 3.54674 13.0685 3.52684 13.1152C3.50694 13.1618 3.49671 13.212 3.49677 13.2628L3.49536 21C3.49536 21.3978 3.6534 21.7793 3.9347 22.0606C4.21601 22.3419 4.59754 22.5 4.99536 22.5H9.50005C9.69896 22.5 9.88973 22.4209 10.0304 22.2803C10.171 22.1396 10.25 21.9489 10.25 21.75V15.375C10.25 15.2755 10.2896 15.1801 10.3599 15.1098C10.4302 15.0395 10.5256 15 10.625 15H14.375C14.4745 15 14.5699 15.0395 14.6402 15.1098C14.7105 15.1801 14.75 15.2755 14.75 15.375V21.75C14.75 21.9489 14.8291 22.1396 14.9697 22.2803C15.1104 22.4209 15.3011 22.5 15.5 22.5H20.0029C20.4007 22.5 20.7822 22.3419 21.0635 22.0606C21.3448 21.7793 21.5029 21.3978 21.5029 21V13.2628C21.5029 13.212 21.4927 13.1618 21.4728 13.1152C21.4529 13.0685 21.4237 13.0264 21.3871 12.9914L12.7607 4.74745Z" fill="#0472E9"/>
<path id="Vector_2" d="M23.5114 11.4445L20.0052 8.09016V3C20.0052 2.80109 19.9262 2.61032 19.7855 2.46967C19.6449 2.32902 19.4541 2.25 19.2552 2.25H17.0052C16.8063 2.25 16.6155 2.32902 16.4748 2.46967C16.3342 2.61032 16.2552 2.80109 16.2552 3V4.5L13.5402 1.90406C13.2861 1.64719 12.9083 1.5 12.5 1.5C12.0931 1.5 11.7163 1.64719 11.4622 1.90453L1.49189 11.4436C1.20033 11.7248 1.16377 12.1875 1.42908 12.4922C1.4957 12.5691 1.57728 12.6316 1.66885 12.676C1.76041 12.7204 1.86005 12.7457 1.96169 12.7503C2.06334 12.755 2.16487 12.7389 2.2601 12.7031C2.35533 12.6672 2.44228 12.6124 2.51564 12.5419L12.2422 3.2475C12.312 3.18074 12.4048 3.14348 12.5014 3.14348C12.598 3.14348 12.6909 3.18074 12.7606 3.2475L22.4881 12.5419C22.6314 12.6793 22.8234 12.7543 23.0219 12.7504C23.2204 12.7465 23.4092 12.6641 23.547 12.5212C23.8349 12.2231 23.811 11.7309 23.5114 11.4445Z" fill="#0472E9"/>
</g>
</svg>
