<svg width="21" height="21" viewBox="0 0 21 21" fill="none" xmlns="http://www.w3.org/2000/svg">
<g id="list-2 1" clip-path="url(#clip0_77_2191)">
<g id="Group">
<path id="Vector" d="M20.0449 18.0337H6.1275C5.5539 18.0337 5.08899 17.5688 5.08899 16.9952C5.08899 16.4216 5.5539 15.9567 6.1275 15.9567H20.0446C20.6182 15.9567 21.0831 16.4216 21.0831 16.9952C21.0831 17.5688 20.6185 18.0337 20.0449 18.0337Z" fill="#3474FF"/>
<path id="Vector_2" d="M20.0449 11.515H6.1275C5.5539 11.515 5.08899 11.0501 5.08899 10.4765C5.08899 9.9029 5.5539 9.43799 6.1275 9.43799H20.0446C20.6182 9.43799 21.0831 9.9029 21.0831 10.4765C21.0835 11.0501 20.6185 11.515 20.0449 11.515Z" fill="#3474FF"/>
<path id="Vector_3" d="M20.0449 4.99621H6.1275C5.5539 4.99621 5.08899 4.53131 5.08899 3.9577C5.08899 3.3841 5.5539 2.91919 6.1275 2.91919H20.0446C20.6182 2.91919 21.0831 3.3841 21.0831 3.9577C21.0831 4.53131 20.6185 4.99621 20.0449 4.99621Z" fill="#3474FF"/>
<path id="Vector_4" d="M1.66498 5.43275C2.43527 5.43275 3.05971 4.80831 3.05971 4.03803C3.05971 3.26775 2.43527 2.64331 1.66498 2.64331C0.894701 2.64331 0.270264 3.26775 0.270264 4.03803C0.270264 4.80831 0.894701 5.43275 1.66498 5.43275Z" fill="#3474FF"/>
<path id="Vector_5" d="M1.66486 11.8712C2.43515 11.8712 3.05958 11.2468 3.05958 10.4765C3.05958 9.70622 2.43515 9.08179 1.66486 9.08179C0.894579 9.08179 0.270142 9.70622 0.270142 10.4765C0.270142 11.2468 0.894579 11.8712 1.66486 11.8712Z" fill="#3474FF"/>
<path id="Vector_6" d="M1.66486 18.3096C2.43515 18.3096 3.05958 17.6851 3.05958 16.9149C3.05958 16.1446 2.43515 15.5201 1.66486 15.5201C0.894579 15.5201 0.270142 16.1446 0.270142 16.9149C0.270142 17.6851 0.894579 18.3096 1.66486 18.3096Z" fill="#3474FF"/>
</g>
</g>
<defs>
<clipPath id="clip0_77_2191">
<rect width="20.8128" height="20.8128" fill="white" transform="translate(0.270386 0.0698242)"/>
</clipPath>
</defs>
</svg>
