<svg width="18" height="18" viewBox="0 0 18 18" fill="none" xmlns="http://www.w3.org/2000/svg">
<g id="Iconly/Bold/Location">
<g id="Location">
<path id="Location_2" fill-rule="evenodd" clip-rule="evenodd" d="M3.33191 7.77761C3.33191 4.58641 5.99864 2.00708 9.22433 2.00708C12.4591 2.00708 15.1258 4.58641 15.1258 7.77761C15.1258 9.3857 14.541 10.8786 13.5784 12.144C12.5165 13.5398 11.2076 14.7559 9.73431 15.7105C9.39712 15.9311 9.09281 15.9478 8.72274 15.7105C7.24107 14.7559 5.93218 13.5398 4.87934 12.144C3.91604 10.8786 3.33191 9.3857 3.33191 7.77761ZM7.28243 7.95728C7.28243 9.02634 8.15478 9.86715 9.22441 9.86715C10.2947 9.86715 11.1755 9.02634 11.1755 7.95728C11.1755 6.89655 10.2947 6.01481 9.22441 6.01481C8.15478 6.01481 7.28243 6.89655 7.28243 7.95728Z" fill="#3474FF"/>
</g>
</g>
</svg>
