<svg width="32" height="33" viewBox="0 0 32 33" fill="none" xmlns="http://www.w3.org/2000/svg">
<g id="location-sharp">
<path id="Vector" d="M16.128 2.66931C10.7178 2.66931 6.32798 6.62055 6.32798 11.4893C6.32798 19.3293 16.128 30.1093 16.128 30.1093C16.128 30.1093 25.928 19.3293 25.928 11.4893C25.928 6.62055 21.5382 2.66931 16.128 2.66931ZM16.128 16.3893C15.3527 16.3893 14.5948 16.1594 13.9501 15.7287C13.3055 15.2979 12.8031 14.6857 12.5064 13.9694C12.2097 13.2531 12.132 12.465 12.2833 11.7046C12.4346 10.9442 12.8079 10.2457 13.3561 9.69745C13.9043 9.14923 14.6028 8.77589 15.3632 8.62463C16.1236 8.47338 16.9118 8.55101 17.6281 8.8477C18.3444 9.1444 18.9566 9.64684 19.3873 10.2915C19.8181 10.9361 20.048 11.694 20.048 12.4693C20.0468 13.5086 19.6335 14.505 18.8986 15.2399C18.1637 15.9748 17.1673 16.3882 16.128 16.3893Z" fill="#3474FF"/>
</g>
</svg>
