<svg width="16" height="17" viewBox="0 0 16 17" fill="none" xmlns="http://www.w3.org/2000/svg">
<g id="Img" clip-path="url(#clip0_177_9230)">
<path id="Vector" d="M7.1701 16.5963H0.850098C0.717489 16.5963 0.590312 16.5403 0.496544 16.4407C0.402776 16.341 0.350098 16.2059 0.350098 16.065V6.14126C0.350098 5.84376 0.570098 5.61001 0.850098 5.61001H7.1701C7.4501 5.61001 7.6701 5.84376 7.6701 6.14126V16.065C7.6701 16.2059 7.61742 16.341 7.52365 16.4407C7.42988 16.5403 7.30271 16.5963 7.1701 16.5963ZM1.3501 15.5338H6.6701V6.67251H1.3501V15.5338ZM15.1601 16.5963H12.8601C12.7275 16.5963 12.6003 16.5403 12.5065 16.4407C12.4128 16.341 12.3601 16.2059 12.3601 16.065C12.3601 15.7675 12.5801 15.5338 12.8601 15.5338H14.6601V5.55688H12.8601C12.7275 5.55688 12.6003 5.50091 12.5065 5.40129C12.4128 5.30166 12.3601 5.16653 12.3601 5.02563C12.3601 4.72813 12.5801 4.49438 12.8601 4.49438H15.1601C15.4401 4.49438 15.6601 4.72813 15.6601 5.02563V16.065C15.6601 16.2059 15.6074 16.341 15.5137 16.4407C15.4199 16.5403 15.2927 16.5963 15.1601 16.5963Z" fill="#121214"/>
<path id="Vector_2" d="M10.7102 16.5962H9.35024C9.21763 16.5962 9.09045 16.5402 8.99668 16.4406C8.90291 16.341 8.85024 16.2058 8.85024 16.065C8.85024 15.7675 9.07024 15.5337 9.35024 15.5337H10.2102V4.1012L8.66024 1.79558L7.02024 4.16495C6.98159 4.22158 6.93279 4.26954 6.87665 4.30608C6.82051 4.34262 6.75813 4.36702 6.69309 4.37788C6.62805 4.38874 6.56163 4.38585 6.49765 4.36936C6.43366 4.35288 6.37337 4.32313 6.32024 4.28183C6.26694 4.24076 6.2218 4.18891 6.18741 4.12926C6.15302 4.06961 6.13005 4.00333 6.11983 3.93423C6.10961 3.86512 6.11234 3.79456 6.12785 3.72657C6.14336 3.65859 6.17136 3.59453 6.21024 3.53808L8.27024 0.584326C8.37024 0.446201 8.52024 0.382451 8.68024 0.371826C8.84024 0.371826 8.99024 0.456826 9.08024 0.594951L11.1202 3.6337C11.1796 3.72401 11.211 3.83169 11.2102 3.94183V16.065C11.2102 16.2058 11.1576 16.341 11.0638 16.4406C10.97 16.5402 10.8428 16.5962 10.7102 16.5962Z" fill="#121214"/>
</g>
<defs>
<clipPath id="clip0_177_9230">
<rect width="16" height="17" fill="white"/>
</clipPath>
</defs>
</svg>
