<svg width="24" height="17" viewBox="0 0 24 17" fill="none" xmlns="http://www.w3.org/2000/svg">
<g id="Group">
<g id="Group_2">
<path id="Vector" d="M14.4721 4.04657H9.51172V12.9605H14.4721V4.04657Z" fill="#FF5F00"/>
<path id="Vector_2" d="M9.82741 8.50355C9.82662 7.64507 10.0212 6.79766 10.3963 6.02548C10.7714 5.2533 11.3173 4.57659 11.9926 4.04657C11.1563 3.38922 10.152 2.98043 9.09433 2.86691C8.03668 2.75339 6.96843 2.93973 6.01168 3.40463C5.05493 3.86953 4.24828 4.59423 3.68393 5.4959C3.11959 6.39757 2.82031 7.43983 2.82031 8.50355C2.82031 9.56726 3.11959 10.6095 3.68393 11.5112C4.24828 12.4129 5.05493 13.1376 6.01168 13.6025C6.96843 14.0674 8.03668 14.2537 9.09433 14.1402C10.152 14.0267 11.1563 13.6179 11.9926 12.9605C11.3173 12.4305 10.7714 11.7538 10.3963 10.9816C10.0212 10.2094 9.82663 9.36202 9.82741 8.50355Z" fill="#EB001B"/>
<path id="Vector_3" d="M21.1642 8.50355C21.1643 9.56725 20.865 10.6095 20.3007 11.5112C19.7364 12.4128 18.9298 13.1375 17.973 13.6024C17.0163 14.0674 15.9481 14.2537 14.8905 14.1402C13.8328 14.0267 12.8285 13.6179 11.9922 12.9605C12.6669 12.43 13.2124 11.7531 13.5875 10.9811C13.9625 10.209 14.1574 9.36189 14.1574 8.50355C14.1574 7.6452 13.9625 6.79806 13.5875 6.02601C13.2124 5.25395 12.6669 4.57712 11.9922 4.04657C12.8285 3.38922 13.8328 2.98043 14.8905 2.86691C15.9481 2.75339 17.0163 2.93974 17.973 3.40464C18.9298 3.86955 19.7364 4.59425 20.3007 5.49592C20.865 6.39759 21.1643 7.43984 21.1642 8.50355Z" fill="#F79E1B"/>
<path id="Vector_4" d="M20.6236 12.0164V11.8339H20.6972V11.7967H20.5098V11.8339H20.5834V12.0164H20.6236ZM20.9874 12.0164V11.7964H20.93L20.8639 11.9477L20.7978 11.7964H20.7403V12.0164H20.7809V11.8504L20.8429 11.9935H20.8849L20.9469 11.8501V12.0164H20.9874Z" fill="#F79E1B"/>
</g>
</g>
</svg>
