<svg width="22" height="22" viewBox="0 0 22 22" fill="none" xmlns="http://www.w3.org/2000/svg">
<g id="Iconly/Bold/Message">
<g id="Message">
<path id="Message_2" fill-rule="evenodd" clip-rule="evenodd" d="M15.5278 2.75C16.757 2.75 17.9395 3.23583 18.8094 4.10758C19.6803 4.9775 20.167 6.15083 20.167 7.37917V14.6208C20.167 17.1783 18.0862 19.25 15.5278 19.25H6.47201C3.9136 19.25 1.83368 17.1783 1.83368 14.6208V7.37917C1.83368 4.82167 3.90443 2.75 6.47201 2.75H15.5278ZM16.9862 8.745L17.0595 8.67167C17.2786 8.40583 17.2786 8.02083 17.0494 7.755C16.922 7.61842 16.7469 7.535 16.5645 7.51667C16.372 7.50658 16.1887 7.57167 16.0503 7.7L11.917 11C11.3854 11.4409 10.6236 11.4409 10.0837 11L5.9587 7.7C5.67361 7.48917 5.27945 7.51667 5.04203 7.76417C4.79453 8.01167 4.76703 8.40583 4.97695 8.68083L5.09703 8.8L9.26786 12.0542C9.7812 12.4575 10.4036 12.6775 11.0554 12.6775C11.7053 12.6775 12.3387 12.4575 12.8511 12.0542L16.9862 8.745Z" fill="#3474FF"/>
</g>
</g>
</svg>
