<svg width="26" height="27" viewBox="0 0 26 27" fill="none" xmlns="http://www.w3.org/2000/svg">
<g id="Group 1000003147">
<g id="Group 1000003141">
<path id="Vector" d="M2.35412 21.0466L1.35053 19.4206V21.6909H0.613525V18.4695H1.57007L2.35412 19.7887L3.10681 18.4695H4.07903V21.6909H3.34202V19.4206L2.35412 21.0466ZM4.70627 18.4695H5.44328V21.6909H4.70627V18.4695ZM8.29722 19.1444H7.4034V21.6909H6.65071V19.1444H5.77258V18.4695H8.29722V19.1444ZM8.5638 21.6602V20.9853C8.72061 21.0159 9.08127 21.0773 9.53602 21.0773C9.91236 21.0773 10.1005 21.0313 10.1005 20.8165C10.1005 20.5864 9.94373 20.5557 9.41057 20.3103C8.8931 20.0802 8.50107 19.8808 8.50107 19.3285C8.50107 18.6536 8.92446 18.4235 9.73987 18.4235C10.1633 18.4235 10.4612 18.4541 10.6651 18.4848V19.1598C10.4769 19.1444 10.1476 19.0984 9.77124 19.0984C9.33217 19.0984 9.23808 19.1444 9.23808 19.3285C9.23808 19.5126 9.4733 19.6047 9.83396 19.7581C10.3828 20.0035 10.8219 20.2029 10.8219 20.8165C10.8219 21.4608 10.4142 21.7523 9.53602 21.7523C9.19104 21.7369 8.87742 21.7062 8.5638 21.6602ZM11.2766 20.6018V18.4695H12.0136V20.5711C12.0136 20.9392 12.2332 21.062 12.5938 21.062C12.9388 21.062 13.174 20.9392 13.174 20.5711V18.4695H13.911V20.6018C13.911 21.3841 13.3935 21.7369 12.5938 21.7369C11.7941 21.7369 11.2766 21.3841 11.2766 20.6018ZM14.5383 18.4695H15.9809C16.6552 18.4695 17.0315 18.7149 17.0315 19.2978C17.0315 19.7581 16.765 19.9115 16.5141 20.0035C16.812 20.0955 17.1256 20.2489 17.1256 20.7858C17.1256 21.3534 16.7806 21.6909 16.0436 21.6909H14.5539V18.4695H14.5383ZM15.8711 19.7734C16.1691 19.7734 16.2789 19.62 16.2789 19.4052C16.2789 19.1444 16.1534 19.0831 15.8711 19.0831H15.2753V19.7734H15.8711ZM15.9182 21.0926C16.2161 21.0926 16.3416 20.9853 16.3416 20.7091C16.3416 20.4637 16.2318 20.3563 15.9496 20.3563H15.2753V21.0926H15.9182ZM17.549 18.4695H18.286V21.6909H17.549V18.4695ZM18.8192 21.6602V20.9853C18.976 21.0159 19.3367 21.0773 19.7914 21.0773C20.1677 21.0773 20.3559 21.0313 20.3559 20.8165C20.3559 20.5864 20.1991 20.5557 19.666 20.3103C19.1485 20.0802 18.7565 19.8808 18.7565 19.3285C18.7565 18.6536 19.1798 18.4235 19.9953 18.4235C20.4186 18.4235 20.7166 18.4541 20.9204 18.4848V19.1598C20.7323 19.1444 20.403 19.0984 20.0266 19.0984C19.5875 19.0984 19.4935 19.1444 19.4935 19.3285C19.4935 19.5126 19.7287 19.6047 20.0893 19.7581C20.6382 20.0035 21.0772 20.2029 21.0772 20.8165C21.0772 21.4608 20.6695 21.7523 19.7914 21.7523C19.4621 21.7369 19.1328 21.7062 18.8192 21.6602ZM22.222 20.4177V21.6909H21.485V18.4695H22.222V19.7427H23.398V18.4695H24.135V21.6909H23.398V20.4177H22.222ZM24.7466 18.4695H25.4836V21.6909H24.7466V18.4695ZM5.80394 25.3879L4.81604 23.7618V26.0322H4.06335V22.8107H5.01989L5.80394 24.1146L6.57231 22.8107H7.54453V26.0322H6.79184V23.7618L5.80394 25.3879ZM8.04632 24.4214C8.04632 23.2709 8.50107 22.7647 9.4733 22.7647C10.4455 22.7647 10.9003 23.2709 10.9003 24.4214C10.9003 25.572 10.4455 26.0782 9.4733 26.0782C8.50107 26.0782 8.04632 25.572 8.04632 24.4214ZM10.1162 24.4214C10.1162 23.7618 10.0065 23.4243 9.45762 23.4243C8.92446 23.4243 8.79901 23.7618 8.79901 24.4214C8.79901 25.0811 8.90878 25.4186 9.45762 25.4186C10.0065 25.4186 10.1162 25.0811 10.1162 24.4214ZM13.5347 23.4857H12.6409V26.0322H11.9039V23.4857H11.01V22.8107H13.5347V23.4857ZM13.6601 24.4214C13.6601 23.2709 14.1149 22.7647 15.0871 22.7647C16.0593 22.7647 16.5141 23.2709 16.5141 24.4214C16.5141 25.572 16.0593 26.0782 15.0871 26.0782C14.1149 26.0782 13.6601 25.572 13.6601 24.4214ZM15.73 24.4214C15.73 23.7618 15.6203 23.4243 15.0714 23.4243C14.5226 23.4243 14.4128 23.7618 14.4128 24.4214C14.4128 25.0811 14.5226 25.4186 15.0714 25.4186C15.6203 25.4186 15.73 25.0811 15.73 24.4214ZM17.0002 22.8107H18.3331C19.0387 22.8107 19.4935 23.0715 19.4935 23.8385C19.4935 24.3447 19.2426 24.6669 18.8192 24.7589L19.6346 26.0322H18.7721L18.0822 24.8817H17.7529V26.0322H17.0159V22.8107H17.0002ZM18.3017 24.2527C18.631 24.2527 18.7408 24.084 18.7408 23.8385C18.7408 23.5931 18.631 23.4243 18.3017 23.4243H17.7529V24.2527H18.3017ZM19.9325 25.9861V25.3112C20.0893 25.3419 20.45 25.4032 20.9048 25.4032C21.2811 25.4032 21.4693 25.3572 21.4693 25.1424C21.4693 24.9123 21.3125 24.8817 20.7793 24.6362C20.2618 24.4061 19.8698 24.2067 19.8698 23.6544C19.8698 22.9795 20.2932 22.7494 21.1086 22.7494C21.532 22.7494 21.8299 22.7801 22.0338 22.8107V23.4857C21.8456 23.4704 21.5163 23.4243 21.14 23.4243C20.7009 23.4243 20.6068 23.4704 20.6068 23.6391C20.6068 23.8232 20.842 23.9152 21.2027 24.0686C21.7515 24.3141 22.1906 24.5135 22.1906 25.1271C22.1906 25.7714 21.7829 26.0628 20.9048 26.0628C20.5755 26.0782 20.2462 26.0475 19.9325 25.9861Z" fill="black"/>
<path id="Vector_2" d="M9.84967 5.33836L13.0015 10.6921L16.1691 5.33836L13.0015 0L9.84967 5.33836ZM19.321 10.6921H13.0015L16.1691 16.0304H22.4729L19.321 10.6921ZM6.69778 10.6921H13.0015L9.84967 16.0304H3.5459L6.69778 10.6921Z" fill="#E60013"/>
</g>
</g>
</svg>
