<svg width="21" height="19" viewBox="0 0 21 19" xmlns="http://www.w3.org/2000/svg">
<path id="Vector" d="M19.9759 2.97827H1.03491C0.772509 2.97484 0.521821 2.86907 0.33626 2.68351C0.150698 2.49795 0.0449344 2.24726 0.0415039 1.98486C0.0415039 1.4418 0.491848 0.991455 1.03491 0.991455H19.9759C20.5189 0.991455 20.9693 1.4418 20.9693 1.98486C20.9693 2.52792 20.5189 2.97827 19.9759 2.97827ZM19.9759 10.6076H1.03491C0.772509 10.6042 0.521821 10.4984 0.33626 10.3129C0.150698 10.1273 0.0449344 9.87662 0.0415039 9.61422C0.0415039 9.07116 0.491848 8.62082 1.03491 8.62082H19.9759C20.5189 8.62082 20.9693 9.07116 20.9693 9.61422C20.9693 10.1573 20.5189 10.6076 19.9759 10.6076ZM19.9759 18.5681H1.03491C0.772509 18.5647 0.521821 18.4589 0.33626 18.2734C0.150698 18.0878 0.0449344 17.8371 0.0415039 17.5747C0.0415039 17.0317 0.491848 16.5813 1.03491 16.5813H19.9759C20.5189 16.5813 20.9693 17.0317 20.9693 17.5747C20.9693 18.1178 20.5189 18.5681 19.9759 18.5681Z"/>
</svg>
