<svg width="22" height="22" viewBox="0 0 22 22" fill="none" xmlns="http://www.w3.org/2000/svg">
<g id="Iconly/Bold/Notification">
<g id="Notification">
<path id="Notification_2" fill-rule="evenodd" clip-rule="evenodd" d="M17.1482 8.06322C17.1482 9.21449 17.4525 9.89307 18.1221 10.675C18.6295 11.2511 18.7917 11.9906 18.7917 12.7929C18.7917 13.5943 18.5284 14.355 18.0009 14.9727C17.3104 15.7131 16.3365 16.1858 15.3425 16.268C13.9022 16.3908 12.4609 16.4942 11.0005 16.4942C9.53919 16.4942 8.09883 16.4323 6.65848 16.268C5.66363 16.1858 4.68972 15.7131 4.00007 14.9727C3.47258 14.355 3.20837 13.5943 3.20837 12.7929C3.20837 11.9906 3.37145 11.2511 3.87799 10.675C4.56856 9.89307 4.8528 9.21449 4.8528 8.06322V7.67269C4.8528 6.1309 5.23726 5.12273 6.02895 4.13579C7.20602 2.69647 9.09278 1.83325 10.9595 1.83325H11.0415C12.9483 1.83325 14.8961 2.73802 16.0531 4.23919C16.8038 5.20582 17.1482 6.17152 17.1482 7.67269V8.06322ZM8.31754 18.389C8.31754 17.9274 8.74117 17.716 9.13292 17.6255C9.59117 17.5286 12.3835 17.5286 12.8418 17.6255C13.2335 17.716 13.6571 17.9274 13.6571 18.389C13.6344 18.8285 13.3765 19.2181 13.0203 19.4655C12.5584 19.8256 12.0164 20.0536 11.4497 20.1358C11.1363 20.1764 10.8284 20.1773 10.5259 20.1358C9.95832 20.0536 9.41625 19.8256 8.95526 19.4646C8.59814 19.2181 8.34031 18.8285 8.31754 18.389Z" fill="#3474FF"/>
</g>
</g>
</svg>
