<svg width="25" height="24" viewBox="0 0 25 24" fill="none" xmlns="http://www.w3.org/2000/svg">
<g id="person">
<path id="Vector" d="M16.0928 3.02719C15.1806 2.04234 13.9065 1.5 12.5003 1.5C11.0865 1.5 9.80824 2.03906 8.90027 3.01781C7.98246 4.00734 7.53527 5.35219 7.64027 6.80437C7.84839 9.66937 10.0285 12 12.5003 12C14.972 12 17.1484 9.66984 17.3598 6.80531C17.4662 5.36625 17.0162 4.02422 16.0928 3.02719ZM20.7503 22.5H4.25027C4.0343 22.5028 3.82042 22.4574 3.62419 22.3672C3.42796 22.2769 3.25432 22.1441 3.11589 21.9783C2.81121 21.6141 2.68839 21.1167 2.77933 20.6137C3.17496 18.4191 4.40964 16.5755 6.35027 15.2812C8.07433 14.1323 10.2582 13.5 12.5003 13.5C14.7423 13.5 16.9262 14.1328 18.6503 15.2812C20.5909 16.575 21.8256 18.4186 22.2212 20.6133C22.3121 21.1162 22.1893 21.6136 21.8846 21.9778C21.7463 22.1437 21.5726 22.2766 21.3764 22.367C21.1802 22.4573 20.9663 22.5028 20.7503 22.5Z" fill="#0472E9"/>
</g>
</svg>
