<svg width="23" height="23" viewBox="0 0 23 23" fill="none" xmlns="http://www.w3.org/2000/svg">
<path id="Vector" d="M12.9086 16.1995C14.7173 15.9413 16.0314 15.0694 17.2557 13.5898C18.6935 11.8086 19.1054 9.41737 18.5289 7.1526C17.9523 4.97921 16.3125 3.28178 14.1781 2.9764C11.5348 2.54386 8.79004 3.88871 6.85407 5.72094C6.81309 5.76054 6.69663 5.84811 6.65206 5.93493C6.45271 5.53969 6.20468 5.17426 5.91448 4.84823C5.54784 4.2809 4.72759 3.36478 4.6823 3.32518C4.52127 3.10739 4.23299 3.06322 4.07196 2.9764C3.6963 2.89473 3.33493 2.75163 3.00081 2.55224C2.98931 2.53244 2.97493 2.51644 2.95983 2.49664L0.867144 0.148867C0.661541 -0.02933 0.414242 -0.0689293 0.207921 0.148867C0.0468892 0.366662 0.00231795 0.628627 0.207921 0.847184L2.28192 3.21476H2.31211C2.38328 3.34955 2.64568 3.57953 2.74273 4.05548C2.78802 4.26947 2.90376 4.52763 3.10577 4.833C3.10577 4.833 4.55074 6.48322 5.12801 7.60114C5.65999 8.73124 5.79083 9.08459 5.862 9.29858C5.862 9.32599 5.33002 8.63986 4.7089 8.16847C2.32721 11.0402 0.593965 14.483 0.0885849 18.2115C-0.443394 22.0351 1.53356 23.0464 3.00512 22.9984C4.18842 22.9984 6.65565 21.6535 7.96978 18.3066C9.23935 15.0504 9.04093 11.3021 7.75627 8.04587C8.98055 6.72919 11.2458 5.17036 13.4549 5.21757C15.1026 5.21757 15.9222 6.72843 16.0386 6.86779C17.3082 9.29934 15.8215 11.4849 15.8215 11.4849C15.0013 12.8016 13.5714 13.4123 12.8187 13.6271C12.2572 13.7939 11.1897 13.7497 10.928 13.6271C10.7706 13.5791 10.726 13.4885 10.726 13.3651C10.726 13.1823 10.8569 13.107 10.9733 13.107C11.0062 13.1054 11.039 13.1112 11.0696 13.1238C11.1003 13.1364 11.1281 13.1557 11.1513 13.1803C11.1746 13.205 11.1928 13.2344 11.2047 13.2669C11.2166 13.2994 11.222 13.3341 11.2206 13.3689V13.5075C11.6361 13.6301 12.4449 13.5395 12.7784 13.5075C12.5161 12.8534 11.9546 12.5038 11.2019 12.5038H11.1681C10.938 12.5058 10.7105 12.5558 10.4986 12.651C10.2867 12.7461 10.0946 12.8846 9.93326 13.0584C9.7719 13.2322 9.64446 13.438 9.5582 13.6641C9.47195 13.8901 9.42858 14.1319 9.43057 14.3757C9.43057 15.157 9.84609 15.8157 10.4528 16.0731C10.7713 16.2041 11.726 16.3351 12.9093 16.2041L12.9086 16.1995ZM6.37097 15.767C5.54712 19.5982 3.24811 20.9468 2.63058 20.7245C2.01665 20.5105 1.81033 18.5945 3.04251 15.374C3.24811 14.8981 4.48029 11.8954 6.0827 10.0235C6.03741 10.1111 6.9849 12.9387 6.37097 15.767ZM22.2168 16.5087L22.9953 13.375C23.0255 13.1131 22.9091 12.8077 22.6618 12.7643C22.4145 12.7209 22.1262 12.8557 22.1003 13.1131L21.3253 16.1355H21.2319L21.1909 16.2033C21.0752 16.4211 20.8573 16.7706 20.5396 17.028C20.2959 17.2458 20.1801 17.5078 20.1801 17.5078C20.0644 17.6388 19.2441 20.3795 16.6605 20.5105C13.6124 20.6415 13.0063 17.028 12.9646 16.7265C12.3133 16.8537 10.9992 16.5483 10.4672 16.2901C10.6246 18.2891 11.534 20.6811 13.1372 21.815C14.9833 23.1636 17.8588 23.1636 19.8358 21.815C20.9738 20.9857 21.7265 19.9432 22.2175 18.5945L22.2585 18.4833L22.2736 18.4475C22.2887 18.4117 22.2887 18.3721 22.3188 18.3325V18.2891C22.2887 18.2891 22.3188 18.0272 22.2477 17.7652C22.0902 17.0715 22.2175 16.6351 22.2175 16.5079L22.2168 16.5087Z" fill="#D80800"/>
</svg>
