<svg width="22" height="22" viewBox="0 0 22 22" fill="none" xmlns="http://www.w3.org/2000/svg">
<g id="Iconly/Bold/Scan">
<g id="Scan">
<path id="Scan_2" fill-rule="evenodd" clip-rule="evenodd" d="M7.72532 2.75C8.11031 2.75 8.4229 3.05652 8.4229 3.43495C8.4229 3.81248 8.11123 4.119 7.72532 4.119L6.23206 4.1199C4.99273 4.1217 3.9844 5.11137 3.9844 6.32756V8.03184C3.9844 8.40937 3.6709 8.71679 3.2859 8.71679C2.9009 8.71679 2.58831 8.40937 2.58831 8.03184V6.32756C2.58831 4.3572 4.22273 2.7527 6.23115 2.7509L7.7244 2.75H7.72532ZM14.3005 2.75027H15.7607C17.7746 2.75027 19.4118 4.35568 19.4118 6.33053V8.03211C19.4118 8.40965 19.1001 8.71706 18.7142 8.71706C18.3292 8.71706 18.0166 8.40965 18.0166 8.03211V6.33053C18.0166 5.11074 17.0046 4.11837 15.7607 4.11837H14.3005C13.9155 4.11837 13.6029 3.81275 13.6029 3.43522C13.6029 3.05679 13.9155 2.75027 14.3005 2.75027ZM13.5323 6.18077H8.46861C7.30994 6.19246 6.37861 7.121 6.38869 8.25809V9.39967C6.39144 9.53271 6.50053 9.64147 6.63619 9.64597H15.3629C15.4994 9.64237 15.6085 9.53361 15.6131 9.39967V8.25809C15.614 7.70887 15.3977 7.18123 15.0072 6.78842C14.6194 6.3992 14.0869 6.18077 13.5323 6.18077ZM1.61513 11.0378H20.3857C20.7707 11.0378 21.0833 11.3443 21.0833 11.7227C21.0833 12.1003 20.7707 12.4059 20.3857 12.4059H19.4122V15.6688C19.4122 17.6446 17.7741 19.25 15.7611 19.25H14.3009C13.915 19.25 13.6024 18.9435 13.6024 18.565C13.6024 18.1875 13.915 17.881 14.3009 17.881H15.7611C17.005 17.881 18.017 16.8895 18.017 15.6688V12.4059H15.6126V13.3147C15.6218 14.4518 14.6914 15.3812 13.5318 15.392H8.46812C7.30946 15.3812 6.37904 14.4518 6.38821 13.3147V12.4059H3.98379V15.6724C3.98379 16.8886 4.99304 17.8783 6.23329 17.8801L7.72563 17.881C8.11063 17.881 8.42321 18.1875 8.42321 18.565C8.42229 18.9435 8.11063 19.25 7.72471 19.25L6.23146 19.2491C4.22304 19.2473 2.58771 17.6428 2.58771 15.6724V12.4059H1.61513C1.23013 12.4059 0.916626 12.1003 0.916626 11.7227C0.916626 11.3443 1.23013 11.0378 1.61513 11.0378Z" fill="#3474FF"/>
</g>
</g>
</svg>
