<svg width="27" height="27" viewBox="0 0 27 27" fill="none" xmlns="http://www.w3.org/2000/svg">
<g id="settings">
<path id="Vector" d="M13.4999 16.909C15.3827 16.909 16.909 15.3827 16.909 13.4999C16.909 11.6171 15.3827 10.0908 13.4999 10.0908C11.6171 10.0908 10.0908 11.6171 10.0908 13.4999C10.0908 15.3827 11.6171 16.909 13.4999 16.909Z" stroke="#D80800" stroke-width="1.5" stroke-linecap="round" stroke-linejoin="round"/>
<path id="Vector_2" d="M21.9091 16.9091C21.7578 17.2518 21.7127 17.632 21.7795 18.0007C21.8464 18.3693 22.0221 18.7095 22.2841 18.9773L22.3523 19.0455C22.5636 19.2565 22.7312 19.5072 22.8456 19.7831C22.96 20.059 23.0188 20.3547 23.0188 20.6534C23.0188 20.9521 22.96 21.2478 22.8456 21.5237C22.7312 21.7996 22.5636 22.0503 22.3523 22.2614C22.1412 22.4727 21.8905 22.6403 21.6146 22.7547C21.3387 22.8691 21.043 22.9279 20.7443 22.9279C20.4456 22.9279 20.1499 22.8691 19.874 22.7547C19.5981 22.6403 19.3474 22.4727 19.1364 22.2614L19.0682 22.1932C18.8004 21.9312 18.4602 21.7555 18.0916 21.6886C17.7229 21.6218 17.3427 21.6669 17 21.8182C16.6639 21.9622 16.3773 22.2014 16.1753 22.5063C15.9734 22.8112 15.8651 23.1684 15.8636 23.5341V23.7273C15.8636 24.33 15.6242 24.9081 15.198 25.3343C14.7718 25.7606 14.1937 26 13.5909 26C12.9881 26 12.4101 25.7606 11.9838 25.3343C11.5576 24.9081 11.3182 24.33 11.3182 23.7273V23.625C11.3094 23.2489 11.1876 22.8841 10.9688 22.5781C10.7499 22.2721 10.444 22.039 10.0909 21.9091C9.74816 21.7578 9.36796 21.7127 8.99933 21.7795C8.6307 21.8464 8.29054 22.0221 8.02273 22.2841L7.95455 22.3523C7.74347 22.5636 7.49281 22.7312 7.21691 22.8456C6.941 22.96 6.64526 23.0188 6.34659 23.0188C6.04792 23.0188 5.75218 22.96 5.47627 22.8456C5.20037 22.7312 4.94971 22.5636 4.73864 22.3523C4.52733 22.1412 4.35969 21.8905 4.24532 21.6146C4.13095 21.3387 4.07208 21.043 4.07208 20.7443C4.07208 20.4456 4.13095 20.1499 4.24532 19.874C4.35969 19.5981 4.52733 19.3474 4.73864 19.1364L4.80682 19.0682C5.06879 18.8004 5.24453 18.4602 5.31137 18.0916C5.37821 17.7229 5.33309 17.3427 5.18182 17C5.03777 16.6639 4.79859 16.3773 4.49371 16.1753C4.18884 15.9734 3.83158 15.8651 3.46591 15.8636H3.27273C2.66996 15.8636 2.09189 15.6242 1.66567 15.198C1.23945 14.7718 1 14.1937 1 13.5909C1 12.9881 1.23945 12.4101 1.66567 11.9838C2.09189 11.5576 2.66996 11.3182 3.27273 11.3182H3.375C3.75113 11.3094 4.11591 11.1876 4.42193 10.9688C4.72795 10.7499 4.96104 10.444 5.09091 10.0909C5.24218 9.74816 5.2873 9.36796 5.22046 8.99933C5.15362 8.6307 4.97788 8.29054 4.71591 8.02273L4.64773 7.95455C4.43642 7.74347 4.26878 7.49281 4.15441 7.21691C4.04004 6.941 3.98117 6.64526 3.98117 6.34659C3.98117 6.04792 4.04004 5.75218 4.15441 5.47627C4.26878 5.20037 4.43642 4.94971 4.64773 4.73864C4.8588 4.52733 5.10946 4.35969 5.38536 4.24532C5.66127 4.13095 5.95701 4.07208 6.25568 4.07208C6.55435 4.07208 6.8501 4.13095 7.126 4.24532C7.40191 4.35969 7.65256 4.52733 7.86364 4.73864L7.93182 4.80682C8.19964 5.06879 8.53979 5.24453 8.90842 5.31137C9.27705 5.37821 9.65725 5.33309 10 5.18182H10.0909C10.427 5.03777 10.7137 4.79859 10.9156 4.49371C11.1175 4.18884 11.2258 3.83158 11.2273 3.46591V3.27273C11.2273 2.66996 11.4667 2.09189 11.8929 1.66567C12.3192 1.23945 12.8972 1 13.5 1C14.1028 1 14.6808 1.23945 15.1071 1.66567C15.5333 2.09189 15.7727 2.66996 15.7727 3.27273V3.375C15.7742 3.74067 15.8825 4.09793 16.0844 4.4028C16.2863 4.70768 16.573 4.94686 16.9091 5.09091C17.2518 5.24218 17.632 5.2873 18.0007 5.22046C18.3693 5.15362 18.7095 4.97788 18.9773 4.71591L19.0455 4.64773C19.2565 4.43642 19.5072 4.26878 19.7831 4.15441C20.059 4.04004 20.3547 3.98117 20.6534 3.98117C20.9521 3.98117 21.2478 4.04004 21.5237 4.15441C21.7996 4.26878 22.0503 4.43642 22.2614 4.64773C22.4727 4.8588 22.6403 5.10946 22.7547 5.38536C22.8691 5.66127 22.9279 5.95701 22.9279 6.25568C22.9279 6.55435 22.8691 6.8501 22.7547 7.126C22.6403 7.40191 22.4727 7.65256 22.2614 7.86364L22.1932 7.93182C21.9312 8.19964 21.7555 8.53979 21.6886 8.90842C21.6218 9.27705 21.6669 9.65725 21.8182 10V10.0909C21.9622 10.427 22.2014 10.7137 22.5063 10.9156C22.8112 11.1175 23.1684 11.2258 23.5341 11.2273H23.7273C24.33 11.2273 24.9081 11.4667 25.3343 11.8929C25.7606 12.3192 26 12.8972 26 13.5C26 14.1028 25.7606 14.6808 25.3343 15.1071C24.9081 15.5333 24.33 15.7727 23.7273 15.7727H23.625C23.2593 15.7742 22.9021 15.8825 22.5972 16.0844C22.2923 16.2863 22.0531 16.573 21.9091 16.9091V16.9091Z" stroke="#D80800" stroke-width="1.5" stroke-linecap="round" stroke-linejoin="round"/>
</g>
</svg>
