<svg width="22" height="22" viewBox="0 0 22 22" fill="none" xmlns="http://www.w3.org/2000/svg">
<g id="vuesax/bold/setting-5">
<g id="vuesax/bold/setting-5_2">
<g id="setting-5">
<path id="Vector" d="M16.9675 7.5624C17.4258 7.5624 17.7925 7.19574 17.7925 6.7374V2.4749C17.7925 2.01657 17.4258 1.6499 16.9675 1.6499C16.5091 1.6499 16.1425 2.01657 16.1425 2.4749V6.7374C16.1425 7.18657 16.5183 7.5624 16.9675 7.5624Z" fill="#FDFDFD"/>
<path id="Vector_2" d="M10.9999 14.4375C10.5416 14.4375 10.1749 14.8042 10.1749 15.2625V19.525C10.1749 19.9833 10.5416 20.35 10.9999 20.35C11.4583 20.35 11.8249 19.9833 11.8249 19.525V15.2625C11.8249 14.8133 11.4583 14.4375 10.9999 14.4375Z" fill="#FDFDFD"/>
<path id="Vector_3" d="M5.03252 7.5624C5.49085 7.5624 5.85752 7.19574 5.85752 6.7374V2.4749C5.85752 2.01657 5.49085 1.6499 5.03252 1.6499C4.57419 1.6499 4.20752 2.01657 4.20752 2.4749V6.7374C4.20752 7.18657 4.57419 7.5624 5.03252 7.5624Z" fill="#FDFDFD"/>
<path id="Vector_4" d="M6.73744 9.32251H3.32744C2.86911 9.32251 2.50244 9.68918 2.50244 10.1475C2.50244 10.6058 2.86911 10.9725 3.32744 10.9725H4.20744V19.525C4.20744 19.9833 4.57411 20.35 5.03244 20.35C5.49077 20.35 5.85744 19.9833 5.85744 19.525V10.9725H6.73744C7.19577 10.9725 7.56244 10.6058 7.56244 10.1475C7.56244 9.68918 7.18661 9.32251 6.73744 9.32251Z" fill="#FDFDFD"/>
<path id="Vector_5" d="M18.6725 9.32251H15.2625C14.8042 9.32251 14.4375 9.68918 14.4375 10.1475C14.4375 10.6058 14.8042 10.9725 15.2625 10.9725H16.1425V19.525C16.1425 19.9833 16.5092 20.35 16.9675 20.35C17.4258 20.35 17.7925 19.9833 17.7925 19.525V10.9725H18.6725C19.1308 10.9725 19.4975 10.6058 19.4975 10.1475C19.4975 9.68918 19.1308 9.32251 18.6725 9.32251Z" fill="#FDFDFD"/>
<path id="Vector_6" d="M12.705 11.0274H11.825V2.4749C11.825 2.01657 11.4583 1.6499 11 1.6499C10.5416 1.6499 10.175 2.01657 10.175 2.4749V11.0274H9.29497C8.83664 11.0274 8.46997 11.3941 8.46997 11.8524C8.46997 12.3107 8.83664 12.6774 9.29497 12.6774H12.705C13.1633 12.6774 13.53 12.3107 13.53 11.8524C13.53 11.3941 13.1633 11.0274 12.705 11.0274Z" fill="#FDFDFD"/>
</g>
</g>
</g>
</svg>
