<svg width="16" height="16" viewBox="0 0 16 16" fill="none" xmlns="http://www.w3.org/2000/svg">
<g id="share-social-outline">
<path id="Vector" d="M4 9.5C4.82843 9.5 5.5 8.82843 5.5 8C5.5 7.17157 4.82843 6.5 4 6.5C3.17157 6.5 2.5 7.17157 2.5 8C2.5 8.82843 3.17157 9.5 4 9.5Z" stroke="#0472E9" stroke-linecap="round" stroke-linejoin="round"/>
<path id="Vector_2" d="M12 5C12.8284 5 13.5 4.32843 13.5 3.5C13.5 2.67157 12.8284 2 12 2C11.1716 2 10.5 2.67157 10.5 3.5C10.5 4.32843 11.1716 5 12 5Z" stroke="#0472E9" stroke-linecap="round" stroke-linejoin="round"/>
<path id="Vector_3" d="M12 14C12.8284 14 13.5 13.3284 13.5 12.5C13.5 11.6716 12.8284 11 12 11C11.1716 11 10.5 11.6716 10.5 12.5C10.5 13.3284 11.1716 14 12 14Z" stroke="#0472E9" stroke-linecap="round" stroke-linejoin="round"/>
<path id="Vector_4" d="M5.30762 8.73532L10.6932 11.7647M10.6932 4.23532L5.30762 7.2647" stroke="#0472E9" stroke-linecap="round" stroke-linejoin="round"/>
</g>
</svg>
