<svg width="25" height="24" viewBox="0 0 25 24" fill="none" xmlns="http://www.w3.org/2000/svg">
<g id="sparkles" clip-path="url(#clip0_8_2285)">
<path id="Vector" d="M10.2499 24C10.0129 24.0012 9.78114 23.93 9.58564 23.796C9.39014 23.662 9.2402 23.4715 9.15585 23.25L7.28835 18.3937C7.25053 18.2959 7.19267 18.207 7.11848 18.1328C7.0443 18.0586 6.95543 18.0008 6.85757 17.963L1.99991 16.0941C1.77864 16.0091 1.58831 15.8591 1.45406 15.6638C1.31981 15.4684 1.24794 15.237 1.24794 15C1.24794 14.763 1.31981 14.5315 1.45406 14.3362C1.58831 14.1409 1.77864 13.9909 1.99991 13.9059L6.85616 12.0384C6.95402 12.0006 7.04289 11.9427 7.11707 11.8686C7.19126 11.7944 7.24912 11.7055 7.28694 11.6076L9.15585 6.74999C9.24078 6.52872 9.3908 6.33839 9.58613 6.20414C9.78145 6.06989 10.0129 5.99802 10.2499 5.99802C10.4869 5.99802 10.7184 6.06989 10.9137 6.20414C11.109 6.33839 11.259 6.52872 11.344 6.74999L13.2115 11.6062C13.2493 11.7041 13.3072 11.793 13.3813 11.8672C13.4555 11.9413 13.5444 11.9992 13.6423 12.037L18.4704 13.8947C18.7007 13.98 18.8991 14.1343 19.0385 14.3364C19.178 14.5386 19.2518 14.7788 19.2499 15.0244C19.2463 15.2573 19.1729 15.4837 19.0392 15.6744C18.9055 15.8651 18.7176 16.0113 18.4999 16.0941L13.6437 17.9616C13.5458 17.9994 13.4569 18.0572 13.3827 18.1314C13.3086 18.2056 13.2507 18.2945 13.2129 18.3923L11.344 23.25C11.2596 23.4715 11.1097 23.662 10.9142 23.796C10.7187 23.93 10.4869 24.0012 10.2499 24ZM4.62491 8.24999C4.48595 8.24999 4.35026 8.20788 4.2357 8.12922C4.12115 8.05057 4.03311 7.93905 3.98319 7.80937L3.19288 5.75437C3.17575 5.70942 3.14931 5.66861 3.1153 5.6346C3.0813 5.60059 3.04048 5.57415 2.99554 5.55702L0.940536 4.76671C0.81087 4.71678 0.699373 4.62874 0.620733 4.51418C0.542093 4.39963 0.5 4.26394 0.5 4.12499C0.5 3.98604 0.542093 3.85036 0.620733 3.7358C0.699373 3.62125 0.81087 3.53321 0.940536 3.48327L2.99554 2.69296C3.04044 2.67575 3.08121 2.64929 3.11521 2.61529C3.14921 2.58129 3.17567 2.54052 3.19288 2.49562L3.97616 0.458899C4.02034 0.338994 4.09635 0.233393 4.19603 0.153447C4.29572 0.0735004 4.41531 0.022231 4.54194 0.00514868C4.69398 -0.013334 4.84784 0.0194684 4.97912 0.0983546C5.1104 0.177241 5.21158 0.297695 5.26663 0.440617L6.05694 2.49562C6.07415 2.54052 6.10061 2.58129 6.13461 2.61529C6.16861 2.64929 6.20939 2.67575 6.25429 2.69296L8.30929 3.48327C8.43895 3.53321 8.55045 3.62125 8.62909 3.7358C8.70773 3.85036 8.74982 3.98604 8.74982 4.12499C8.74982 4.26394 8.70773 4.39963 8.62909 4.51418C8.55045 4.62874 8.43895 4.71678 8.30929 4.76671L6.25429 5.55702C6.20934 5.57415 6.16853 5.60059 6.13452 5.6346C6.10051 5.66861 6.07407 5.70942 6.05694 5.75437L5.26663 7.80937C5.21671 7.93905 5.12867 8.05057 5.01412 8.12922C4.89957 8.20788 4.76387 8.24999 4.62491 8.24999ZM19.2499 12C19.0983 11.9999 18.9503 11.954 18.8254 11.8681C18.7004 11.7823 18.6045 11.6606 18.5501 11.5191L17.4794 8.73609C17.4606 8.68705 17.4317 8.64251 17.3945 8.60537C17.3574 8.56822 17.3129 8.5393 17.2638 8.52046L14.4808 7.44984C14.3395 7.39536 14.2179 7.29933 14.1321 7.17441C14.0464 7.04948 14.0005 6.90151 14.0005 6.74999C14.0005 6.59847 14.0464 6.45051 14.1321 6.32558C14.2179 6.20065 14.3395 6.10463 14.4808 6.05015L17.2638 4.97952C17.3129 4.96069 17.3574 4.93176 17.3945 4.89462C17.4317 4.85747 17.4606 4.81294 17.4794 4.7639L18.5421 2.00062C18.5906 1.86994 18.6736 1.75487 18.7823 1.66762C18.891 1.58038 19.0214 1.52423 19.1594 1.50515C19.3254 1.48507 19.4932 1.52097 19.6364 1.60717C19.7796 1.69336 19.8899 1.82491 19.9498 1.98093L21.0204 4.7639C21.0392 4.81294 21.0681 4.85747 21.1053 4.89462C21.1424 4.93176 21.187 4.96069 21.236 4.97952L24.019 6.05015C24.1604 6.10463 24.2819 6.20065 24.3677 6.32558C24.4534 6.45051 24.4993 6.59847 24.4993 6.74999C24.4993 6.90151 24.4534 7.04948 24.3677 7.17441C24.2819 7.29933 24.1604 7.39536 24.019 7.44984L21.236 8.52046C21.187 8.5393 21.1424 8.56822 21.1053 8.60537C21.0681 8.64251 21.0392 8.68705 21.0204 8.73609L19.9498 11.5191C19.8954 11.6606 19.7994 11.7823 19.6745 11.8681C19.5495 11.954 19.4015 11.9999 19.2499 12Z" fill="#F46182"/>
</g>
<defs>
<clipPath id="clip0_8_2285">
<rect width="24" height="24" fill="white" transform="translate(0.5)"/>
</clipPath>
</defs>
</svg>
