<svg width="13" height="13" viewBox="0 0 13 13" fill="none" xmlns="http://www.w3.org/2000/svg">
<g id="star" clip-path="url(#clip0_28_516)">
<path id="Vector" d="M9.73412 11.75C9.65519 11.7503 9.57817 11.7257 9.51404 11.6797L6.49975 9.49437L3.48545 11.6797C3.42105 11.7264 3.34347 11.7514 3.26391 11.7511C3.18436 11.7508 3.10696 11.7252 3.0429 11.6781C2.97885 11.6309 2.93145 11.5646 2.90757 11.4887C2.88369 11.4128 2.88456 11.3313 2.91006 11.2559L4.08568 7.77382L1.03881 5.68437C0.972812 5.63916 0.923001 5.57403 0.896654 5.4985C0.870308 5.42296 0.868806 5.34098 0.892368 5.26454C0.915931 5.18809 0.963323 5.12118 1.02762 5.07358C1.09192 5.02599 1.16975 5.0002 1.24975 4.99999H5.00865L6.14303 1.50898C6.16747 1.43361 6.21515 1.36791 6.27923 1.32132C6.34332 1.27473 6.42051 1.24963 6.49975 1.24963C6.57898 1.24963 6.65618 1.27473 6.72026 1.32132C6.78435 1.36791 6.83203 1.43361 6.85647 1.50898L7.99084 5.00116H11.7497C11.8298 5.00112 11.9078 5.02673 11.9723 5.07423C12.0368 5.12174 12.0844 5.18864 12.1081 5.26515C12.1318 5.34165 12.1304 5.42374 12.1041 5.49939C12.0778 5.57504 12.0279 5.64027 11.9619 5.68554L8.91381 7.77382L10.0887 11.255C10.1078 11.3114 10.1131 11.3714 10.1044 11.4303C10.0956 11.4891 10.0729 11.545 10.0383 11.5934C10.0037 11.6417 9.958 11.6812 9.90511 11.7084C9.85222 11.7356 9.79361 11.7499 9.73412 11.75Z" fill="white"/>
</g>
<defs>
<clipPath id="clip0_28_516">
<rect width="12" height="12" fill="white" transform="translate(0.5 0.5)"/>
</clipPath>
</defs>
</svg>
