<svg width="14" height="14" viewBox="0 0 14 14" fill="none" xmlns="http://www.w3.org/2000/svg">
<path id="Vector" fill-rule="evenodd" clip-rule="evenodd" d="M12.0567 7.96471L13.5613 9.80471C13.612 9.86701 13.6458 9.94134 13.6594 10.0205C13.6729 10.0997 13.6658 10.181 13.6387 10.2567C13.6117 10.3323 13.5655 10.3997 13.5048 10.4522C13.444 10.5048 13.3707 10.5408 13.292 10.5567L11.378 10.94L10.5913 13.2987C10.5605 13.3916 10.5011 13.4725 10.4216 13.5297C10.3421 13.5869 10.2466 13.6176 10.1487 13.6174C10.0698 13.6175 9.99212 13.5977 9.92298 13.5597C9.85384 13.5216 9.79547 13.4667 9.75332 13.4L8.16932 10.886C8.13882 10.8386 8.1196 10.7847 8.11315 10.7286C8.1067 10.6726 8.11319 10.6158 8.13212 10.5626C8.15104 10.5094 8.1819 10.4613 8.22233 10.4219C8.26276 10.3825 8.31167 10.3529 8.36532 10.3354C9.6401 9.93595 10.736 9.10503 11.4647 7.98537C11.5987 7.77871 11.9013 7.77537 12.0567 7.96537V7.96471ZM1.94399 7.96471C2.09999 7.77537 2.40265 7.77937 2.53665 7.98471C3.26493 9.1046 4.36061 9.93579 5.63532 10.3354C5.86532 10.4074 5.95999 10.682 5.83132 10.886L4.24732 13.3994C4.19986 13.4738 4.13235 13.5333 4.05257 13.571C3.97278 13.6087 3.88397 13.6232 3.79634 13.6127C3.70872 13.6021 3.62584 13.5671 3.55726 13.5115C3.48867 13.456 3.43716 13.3822 3.40865 13.2987L2.62199 10.94L0.708653 10.5574C0.629464 10.5419 0.555657 10.5061 0.494477 10.4535C0.433296 10.4009 0.386845 10.3333 0.359682 10.2573C0.332519 10.1813 0.325577 10.0996 0.339539 10.0201C0.353501 9.94068 0.387886 9.86621 0.43932 9.80404L1.94399 7.96537V7.96471ZM9.43865 4.46537L8.29532 5.43537L8.64332 6.88271C8.65547 6.932 8.65266 6.98379 8.63523 7.03148C8.6178 7.07916 8.58656 7.12057 8.54548 7.15041C8.50441 7.18024 8.45537 7.19716 8.40464 7.199C8.3539 7.20083 8.30377 7.1875 8.26065 7.16071L7.00065 6.37804L5.74065 7.16004C5.69752 7.18728 5.64722 7.20097 5.59623 7.19936C5.54524 7.19774 5.49591 7.18089 5.45459 7.15098C5.41326 7.12106 5.38185 7.07945 5.3644 7.03152C5.34694 6.98359 5.34424 6.93152 5.35665 6.88204L5.70599 5.43537L4.56332 4.46804C4.5242 4.4355 4.49566 4.39203 4.48135 4.34319C4.46705 4.29435 4.46762 4.24236 4.48301 4.19385C4.49839 4.14534 4.52788 4.10251 4.56772 4.07084C4.60755 4.03917 4.65592 4.02009 4.70665 4.01604L6.20132 3.91137L6.76332 2.55204C6.78251 2.50512 6.81523 2.46497 6.85732 2.43671C6.89941 2.40845 6.94896 2.39336 6.99965 2.39336C7.05035 2.39336 7.0999 2.40845 7.14198 2.43671C7.18407 2.46497 7.2168 2.50512 7.23599 2.55204L7.79799 3.91137L9.29132 4.01471C9.34202 4.01844 9.39046 4.03717 9.43047 4.06853C9.47048 4.09989 9.50024 4.14245 9.51597 4.19079C9.53171 4.23913 9.53269 4.29106 9.5188 4.33996C9.50491 4.38886 9.47678 4.43252 9.43799 4.46537H9.43865ZM6.99999 0.583374C5.82119 0.583462 4.6907 1.05182 3.85723 1.88542C3.02376 2.71902 2.55556 3.84957 2.55565 5.02837C2.55574 6.20717 3.0241 7.33766 3.8577 8.17113C4.6913 9.00461 5.82186 9.4728 7.00065 9.47271C8.17945 9.47271 9.30997 9.00443 10.1435 8.17089C10.977 7.33736 11.4453 6.20684 11.4453 5.02804C11.4453 3.84924 10.977 2.71872 10.1435 1.88519C9.30997 1.05165 8.17945 0.583374 7.00065 0.583374H6.99999Z" fill="#121214"/>
</svg>
