<svg width="14" height="15" viewBox="0 0 14 15" fill="none" xmlns="http://www.w3.org/2000/svg">
<g id="star">
<path id="Vector" d="M10.7733 13.625C10.6812 13.6253 10.5913 13.5966 10.5165 13.543L6.99983 10.9934L3.48315 13.543C3.40802 13.5975 3.3175 13.6266 3.22469 13.6263C3.13188 13.626 3.04158 13.5961 2.96684 13.5411C2.89211 13.486 2.83681 13.4087 2.80895 13.3201C2.78109 13.2316 2.78211 13.1365 2.81186 13.0486L4.18342 8.98612L0.628733 6.54843C0.551736 6.49568 0.493623 6.4197 0.462885 6.33158C0.432148 6.24346 0.430395 6.14781 0.457885 6.05863C0.485375 5.96944 0.540666 5.89138 0.615679 5.83585C0.690693 5.78032 0.781498 5.75024 0.874827 5.74999H5.26022L6.58366 1.67714C6.61216 1.58921 6.66779 1.51257 6.74256 1.45821C6.81733 1.40385 6.90739 1.37457 6.99983 1.37457C7.09226 1.37457 7.18233 1.40385 7.25709 1.45821C7.33186 1.51257 7.38749 1.58921 7.416 1.67714L8.73944 5.75136H13.1248C13.2183 5.75131 13.3093 5.78119 13.3845 5.83661C13.4598 5.89203 13.5153 5.97008 13.5429 6.05934C13.5706 6.1486 13.569 6.24437 13.5382 6.33262C13.5075 6.42088 13.4494 6.49699 13.3723 6.54979L9.81623 8.98612L11.187 13.0475C11.2092 13.1132 11.2154 13.1833 11.2052 13.252C11.195 13.3206 11.1686 13.3859 11.1281 13.4423C11.0877 13.4987 11.0345 13.5447 10.9728 13.5765C10.911 13.6082 10.8427 13.6249 10.7733 13.625Z" fill="#0472E9"/>
</g>
</svg>
