<svg width="14" height="14" viewBox="0 0 14 14" fill="none" xmlns="http://www.w3.org/2000/svg">
<g id="star" clip-path="url(#clip0_35_506)">
<path id="Vector" d="M10.7733 13.125C10.6812 13.1253 10.5913 13.0966 10.5165 13.043L6.99983 10.4934L3.48315 13.043C3.40802 13.0975 3.3175 13.1266 3.22469 13.1263C3.13188 13.126 3.04158 13.0961 2.96684 13.0411C2.89211 12.986 2.83681 12.9087 2.80895 12.8201C2.78109 12.7316 2.78211 12.6365 2.81186 12.5486L4.18342 8.48612L0.628733 6.04843C0.551736 5.99568 0.493623 5.9197 0.462885 5.83158C0.432148 5.74346 0.430395 5.64781 0.457885 5.55863C0.485375 5.46944 0.540666 5.39138 0.615679 5.33585C0.690693 5.28032 0.781498 5.25024 0.874827 5.24999H5.26022L6.58366 1.17714C6.61216 1.08921 6.66779 1.01257 6.74256 0.958208C6.81733 0.903851 6.90739 0.874573 6.99983 0.874573C7.09226 0.874573 7.18233 0.903851 7.25709 0.958208C7.33186 1.01257 7.38749 1.08921 7.416 1.17714L8.73944 5.25136H13.1248C13.2183 5.25131 13.3093 5.28119 13.3845 5.33661C13.4598 5.39203 13.5153 5.47008 13.5429 5.55934C13.5706 5.6486 13.569 5.74437 13.5382 5.83262C13.5075 5.92088 13.4494 5.99699 13.3723 6.04979L9.81623 8.48612L11.187 12.5475C11.2092 12.6132 11.2154 12.6833 11.2052 12.752C11.195 12.8206 11.1686 12.8859 11.1281 12.9423C11.0877 12.9987 11.0345 13.0447 10.9728 13.0765C10.911 13.1082 10.8427 13.1249 10.7733 13.125Z" fill="#C2C2C2"/>
</g>
<defs>
<clipPath id="clip0_35_506">
<rect width="14" height="14" fill="white"/>
</clipPath>
</defs>
</svg>
