<svg width="20" height="20" viewBox="0 0 20 20"  xmlns="http://www.w3.org/2000/svg">
<path d="M10 0C8.02219 0 6.08879 0.58649 4.4443 1.6853C2.79981 2.78412 1.51809 4.3459 0.761209 6.17316C0.00433283 8.00043 -0.1937 10.0111 0.192152 11.9509C0.578004 13.8907 1.53041 15.6725 2.92894 17.0711C4.32746 18.4696 6.10929 19.422 8.0491 19.8078C9.98891 20.1937 11.9996 19.9957 13.8268 19.2388C15.6541 18.4819 17.2159 17.2002 18.3147 15.5557C19.4135 13.9112 20 11.9778 20 10C19.997 7.34876 18.9424 4.80698 17.0677 2.93227C15.193 1.05756 12.6512 0.0030248 10 0ZM13.5714 2.21857C14.3279 2.56724 15.0295 3.02417 15.6543 3.575L15.3593 4.28571H13.5714V2.21857ZM8.12715 18.3593C6.58145 18.0158 5.16141 17.2501 4.02513 16.1474C2.88885 15.0447 2.08093 13.6483 1.69131 12.1136C1.30169 10.5789 1.34568 8.96614 1.81836 7.45495C2.29105 5.94377 3.17388 4.59343 4.36858 3.55428L5.33215 5H7.71929L6.64786 7.85714H3.77143L2.78429 10.82L4.61786 13.5714H8.18929L9.21215 15.105L8.12715 18.3593ZM10 18.5714C9.855 18.5714 9.71286 18.5571 9.56929 18.55L10.5671 15.5571C10.6365 15.351 10.6576 15.1316 10.6287 14.916C10.5999 14.7004 10.5219 14.4943 10.4007 14.3136L9.37786 12.7793C9.24763 12.5834 9.07094 12.4227 8.86356 12.3117C8.65617 12.2006 8.42453 12.1426 8.18929 12.1429H5.38215L4.35929 10.6086L4.80072 9.28571H6.42857V10.7143H7.85715V8.70071L9.95429 3.10786L8.61715 2.60643L8.255 3.57143H6.09643L5.52 2.70714C6.49709 2.09695 7.58895 1.69363 8.72808 1.52212C9.86721 1.35061 11.0294 1.41456 12.1429 1.71V4.28571C12.1432 4.66448 12.2939 5.02762 12.5617 5.29545C12.8295 5.56327 13.1927 5.71391 13.5714 5.71428H15.4186C15.6062 5.71479 15.7921 5.67806 15.9655 5.60621C16.1389 5.53436 16.2963 5.42882 16.4286 5.29571L16.5286 5.19571L16.73 4.71C17.3067 5.44247 17.7598 6.26425 18.0714 7.14286H14.7136C14.3759 7.14181 14.0488 7.26085 13.7908 7.4787C13.5328 7.69656 13.3606 7.99905 13.305 8.33214L12.8786 10.79C12.8269 11.0811 12.8674 11.3811 12.9942 11.6482C13.1211 11.9153 13.3281 12.1361 13.5864 12.28L15.1329 13.3257L16.1743 15.93C15.377 16.7646 14.4188 17.429 13.3576 17.883C12.2964 18.337 11.1542 18.5712 10 18.5714ZM16.2964 12.3886L14.3571 11.0779L14.2857 11.035L14.7136 8.57143H18.4421C18.8163 10.6789 18.3707 12.8497 17.1964 14.6393L16.2964 12.3886Z"/>
</svg>
