<svg width="21" height="21" viewBox="0 0 21 21"  xmlns="http://www.w3.org/2000/svg">
<path d="M6.70002 4.80005H4.80002C3.75068 4.80005 2.90002 5.65071 2.90002 6.70005V18.1C2.90002 19.1494 3.75068 20 4.80002 20H6.70002C7.74937 20 8.60002 19.1494 8.60002 18.1V6.70005C8.60002 5.65071 7.74937 4.80005 6.70002 4.80005Z" stroke="#D9D9D9" stroke-width="2" stroke-linecap="round" stroke-linejoin="round"/>
<path d="M16.2 4.80005H14.3C13.2507 4.80005 12.4 5.65071 12.4 6.70005V11.45C12.4 12.4994 13.2507 13.35 14.3 13.35H16.2C17.2494 13.35 18.1 12.4994 18.1 11.45V6.70005C18.1 5.65071 17.2494 4.80005 16.2 4.80005Z" stroke="#D9D9D9" stroke-width="2" stroke-linecap="round" stroke-linejoin="round"/>
<path d="M20 1H1" stroke="#D9D9D9" stroke-width="2" stroke-linecap="round" stroke-linejoin="round"/>
</svg>
