<svg width="22" height="22" viewBox="0 0 22 22" fill="none" xmlns="http://www.w3.org/2000/svg">
<g id="Iconly/Bold/Ticket Star">
<g id="Ticket Star">
<path id="Ticket Star_2" fill-rule="evenodd" clip-rule="evenodd" d="M18.1143 11.0009C18.1143 11.7466 18.7266 12.3534 19.4792 12.3534C19.8587 12.3534 20.1667 12.6585 20.1667 13.0346V15.4879C20.1667 17.5624 18.4635 19.25 16.3699 19.25H5.63112C3.53746 19.25 1.83337 17.5624 1.83337 15.4879V13.0346C1.83337 12.6585 2.14137 12.3534 2.52087 12.3534C3.27437 12.3534 3.88671 11.7466 3.88671 11.0009C3.88671 10.2743 3.29912 9.72749 2.52087 9.72749C2.33846 9.72749 2.16429 9.65573 2.03504 9.52766C1.90579 9.39959 1.83337 9.22611 1.83337 9.04627L1.83521 6.51305C1.83521 4.43851 3.53837 2.75 5.63204 2.75H16.368C18.4617 2.75 20.1658 4.43851 20.1658 6.51305L20.1667 8.96725C20.1667 9.14709 20.0943 9.32148 19.966 9.44864C19.8367 9.57671 19.6625 9.64846 19.4792 9.64846C18.7266 9.64846 18.1143 10.2552 18.1143 11.0009ZM13.0644 11.594L14.1451 10.5513C14.333 10.3715 14.3981 10.1062 14.3165 9.861C14.2359 9.61576 14.025 9.44137 13.7702 9.40595L12.2769 9.18977L11.6087 7.84914C11.4941 7.61843 11.2613 7.47492 11.0019 7.47401H11C10.7415 7.47401 10.5087 7.61752 10.3923 7.84823L9.72403 9.18977L8.23353 9.40504C7.97594 9.44137 7.76511 9.61576 7.68353 9.861C7.60286 10.1062 7.66794 10.3715 7.85494 10.5513L8.93569 11.594L8.68086 13.0682C8.63686 13.3225 8.74044 13.575 8.95128 13.7267C9.07044 13.8112 9.20886 13.8548 9.34911 13.8548C9.45636 13.8548 9.56453 13.8284 9.66353 13.7766L11 13.0809L12.3338 13.7748C12.5648 13.8974 12.8389 13.8784 13.0488 13.7258C13.2605 13.575 13.3641 13.3225 13.3201 13.0682L13.0644 11.594Z" fill="#3474FF"/>
</g>
</g>
</svg>
