<svg width="16" height="18" viewBox="0 0 16 18" fill="none" xmlns="http://www.w3.org/2000/svg">
<path id="Vector" d="M0.193881 7.73358C0.0626292 7.87863 -0.00675739 8.06922 0.000519655 8.2647C0.0077967 8.46018 0.0911615 8.64508 0.232834 8.77997C0.374507 8.91486 0.563275 8.98906 0.758879 8.98675C0.954482 8.98443 1.14144 8.90578 1.27988 8.76758L7.23388 2.51658V17.2506C7.23388 17.4495 7.3129 17.6403 7.45355 17.7809C7.5942 17.9216 7.78497 18.0006 7.98388 18.0006C8.18279 18.0006 8.37356 17.9216 8.51421 17.7809C8.65486 17.6403 8.73388 17.4495 8.73388 17.2506V2.51658L14.6889 8.76758C14.7568 8.83895 14.8381 8.89625 14.9281 8.93621C15.0181 8.97617 15.1152 8.998 15.2136 9.00046C15.3121 9.00292 15.4101 8.98597 15.502 8.95055C15.594 8.91514 15.678 8.86197 15.7494 8.79408C15.8208 8.72618 15.8781 8.6449 15.918 8.55486C15.958 8.46482 15.9798 8.36779 15.9823 8.26932C15.9847 8.17084 15.9678 8.07284 15.9324 7.98092C15.8969 7.889 15.8438 7.80495 15.7759 7.73358L8.70888 0.313578C8.5548 0.151179 8.35046 0.0454847 8.12888 0.0135783C8.03306 -0.00485654 7.93457 -0.00451699 7.83888 0.0145782C7.61802 0.0469131 7.41444 0.152575 7.26088 0.314578L0.193881 7.73358Z" fill="#D80800"/>
</svg>
