<svg width="25" height="30" viewBox="0 0 25 30" fill="none" xmlns="http://www.w3.org/2000/svg">
<path id="Vector" d="M1.78571 26.6667C1.78571 28.5 3.39286 30 5.35714 30H19.6429C21.6071 30 23.2143 28.5 23.2143 26.6667V10C23.2143 8.16667 21.6071 6.66667 19.6429 6.66667H5.35714C3.39286 6.66667 1.78571 8.16667 1.78571 10V26.6667ZM23.2143 1.66667H18.75L17.4821 0.483333C17.1607 0.183333 16.6964 0 16.2321 0H8.76786C8.30357 0 7.83929 0.183333 7.51786 0.483333L6.25 1.66667H1.78571C0.803571 1.66667 0 2.41667 0 3.33333C0 4.25 0.803571 5 1.78571 5H23.2143C24.1964 5 25 4.25 25 3.33333C25 2.41667 24.1964 1.66667 23.2143 1.66667Z" fill="#D80800"/>
</svg>
