<svg width="29" height="29" viewBox="0 0 29 29" xmlns="http://www.w3.org/2000/svg">
<path id="Vector" fill-rule="evenodd" clip-rule="evenodd" d="M5.80842 23.8688C8.16642 26.1027 11.2917 27.3468 14.5398 27.3444C17.7229 27.3469 20.7906 26.1521 23.1334 23.9973C19.9717 19.4078 14.6312 19.3614 14.5438 19.3614C12.8045 19.3604 11.1367 18.6692 9.90646 17.4398C8.67623 16.2103 7.9841 14.5429 7.98199 12.8036C7.98409 11.0652 8.6755 9.39867 9.90458 8.16933C11.1337 6.94 12.8001 6.24826 14.5385 6.2458C15.71 6.24745 16.8598 6.56261 17.8685 7.15858C18.8772 7.75455 19.708 8.6096 20.2746 9.635C20.8413 10.6604 21.1233 11.8188 21.0912 12.9899C21.0591 14.161 20.7142 15.3023 20.0923 16.2951C19.9753 16.4809 19.7893 16.6127 19.5752 16.6614C19.361 16.7101 19.1364 16.6717 18.9505 16.5547C18.7647 16.4377 18.6329 16.2517 18.5842 16.0376C18.5356 15.8235 18.5739 15.5988 18.6909 15.413C19.1555 14.6708 19.4131 13.8179 19.437 12.9426C19.4608 12.0673 19.2501 11.2016 18.8266 10.4352C18.403 9.66887 17.7822 9.02979 17.0284 8.58426C16.2746 8.13873 15.4154 7.90298 14.5398 7.90148C13.2401 7.90288 11.994 8.41981 11.075 9.33883C10.156 10.2579 9.63907 11.5039 9.63767 12.8036C9.63907 14.1031 10.1558 15.3489 11.0745 16.2679C11.9933 17.1869 13.239 17.704 14.5385 17.7057C14.7809 17.6766 20.6274 17.7296 24.299 22.7787C26.2198 20.4921 27.2715 17.6006 27.2686 14.6143C27.2686 7.59684 21.5585 1.88541 14.5398 1.88541C7.52105 1.88541 1.81095 7.59684 1.81095 14.6143C1.81095 17.6501 2.87986 20.4422 4.66004 22.633C5.83491 21.0727 7.36475 19.9985 8.51313 19.3442C8.7033 19.2414 8.92613 19.2171 9.13399 19.2764C9.34184 19.3358 9.51825 19.4741 9.6255 19.6618C9.73274 19.8494 9.76233 20.0716 9.70792 20.2808C9.65352 20.49 9.51944 20.6697 9.33435 20.7813C8.26544 21.3893 6.82832 22.4052 5.80842 23.8688ZM24.8553 24.6304C24.8152 24.6826 24.769 24.7297 24.7176 24.7708C23.3839 26.1122 21.798 27.1765 20.0512 27.9024C18.3045 28.6282 16.4314 29.0013 14.5398 29.0001C6.60844 29.0001 0.155273 22.5469 0.155273 14.6143C0.155273 6.6829 6.60844 0.229736 14.5398 0.229736C22.4712 0.229736 28.9243 6.6829 28.9243 14.6143C28.9243 18.5044 27.372 22.0383 24.8553 24.6304Z"/>
</svg>
