<svg width="18" height="24" viewBox="0 0 18 24" fill="none" xmlns="http://www.w3.org/2000/svg">
<path id="Vector" d="M11.8547 4.46512C13.0726 4.46512 14.0894 3.43814 14.0894 2.23256C14.0894 1.64045 13.8539 1.07259 13.4349 0.653901C13.0158 0.235215 12.4474 0 11.8547 0C10.6145 0 9.62011 0.982326 9.62011 2.23256C9.62011 3.43814 10.6145 4.46512 11.8547 4.46512ZM7.82123 19.9591L8.93855 15.0698L11.2961 17.3023V24H13.5307V15.6279L11.1732 13.3953L11.8547 10.0465C12.6199 10.9235 13.5643 11.6264 14.6244 12.1078C15.6845 12.5892 16.8355 12.8379 18 12.8372V10.6047C15.8659 10.6047 14.0894 9.48837 13.1844 7.90326L12.067 6.13953C11.6201 5.44744 10.9497 5.02326 10.1788 5.02326C9.8324 5.02326 9.62011 5.11256 9.27374 5.11256L3.47486 7.56837V12.8372H5.7095V9.01954L7.7095 8.23814L5.92179 17.3023L0.446927 16.186L0 18.4186L7.82123 19.9591Z" fill="#D80800"/>
</svg>
