<svg width="16" height="17" viewBox="0 0 16 17" fill="none" xmlns="http://www.w3.org/2000/svg">
<g id="whatsapp-icon-seeklogo.com 1" clip-path="url(#clip0_32_615)">
<path id="Vector" d="M13.6679 2.79996C12.1638 1.29481 10.1638 0.465442 8.03296 0.464523C3.642 0.464523 0.0686374 4.03679 0.0668795 8.42762C0.0663679 9.83116 0.43309 11.2012 1.13013 12.4089L0 16.5355L4.22291 15.4281C5.3864 16.0627 6.69641 16.397 8.02953 16.3976H8.03292H8.03296C12.4232 16.3976 15.9971 12.8247 15.999 8.43407C15.9997 6.30607 15.1718 4.30522 13.6679 2.79996ZM8.03296 15.0526H8.03037C6.8421 15.052 5.67684 14.7329 4.66045 14.1298L4.41856 13.9864L1.9126 14.6435L2.58166 12.201L2.42406 11.9506C1.76124 10.8967 1.41132 9.67874 1.41182 8.42813C1.41327 4.77862 4.38331 1.80957 8.03546 1.80957C9.80403 1.81031 11.4663 2.49968 12.7164 3.75072C13.9665 5.00174 14.6544 6.66481 14.6539 8.43351C14.6524 12.0831 11.6822 15.0526 8.03296 15.0526Z" fill="#E0E0E0"/>
<path id="Vector_2" d="M0.365234 16.0776L1.44374 12.1395C0.778371 10.987 0.428467 9.67942 0.428887 8.34025C0.430631 4.15008 3.84079 0.741089 8.03081 0.741089C10.0644 0.742007 11.9731 1.53345 13.4082 2.96988C14.8435 4.4063 15.6335 6.31562 15.6327 8.34619C15.631 12.5365 12.2206 15.9458 8.03111 15.9458C8.03081 15.9458 8.03132 15.9458 8.03111 15.9458H8.02773C6.75551 15.9453 5.50543 15.626 4.39516 15.0209L0.365234 16.0776Z" fill="url(#paint0_linear_32_615)"/>
<path id="Vector_3" fill-rule="evenodd" clip-rule="evenodd" d="M6.06543 5.04689C5.91805 4.71921 5.76288 4.71266 5.62267 4.70692C5.50798 4.702 5.37669 4.7023 5.24561 4.7023C5.11442 4.7023 4.90124 4.75161 4.72096 4.94849C4.54058 5.14538 4.03223 5.62135 4.03223 6.58939C4.03223 7.55753 4.73736 8.49298 4.83565 8.62436C4.93404 8.75555 6.19682 10.8056 8.19672 11.5943C9.8588 12.2497 10.197 12.1193 10.5578 12.0865C10.9186 12.0537 11.7219 11.6107 11.8859 11.1512C12.0498 10.6918 12.0498 10.2981 12.0007 10.2157C11.9515 10.1338 11.8203 10.0846 11.6235 9.98616C11.4267 9.88777 10.4594 9.4117 10.279 9.3461C10.0986 9.28051 9.96745 9.24771 9.83626 9.4447C9.70507 9.64149 9.32821 10.0846 9.21342 10.2157C9.09863 10.3472 8.98384 10.3636 8.78706 10.2652C8.59028 10.1665 7.95658 9.95899 7.20482 9.28869C6.61991 8.76721 6.225 8.12315 6.11021 7.92617C5.99543 7.72939 6.09791 7.6228 6.19661 7.5247C6.28496 7.43656 6.3934 7.29502 6.49179 7.18012C6.58997 7.06523 6.62277 6.98323 6.68836 6.85204C6.75395 6.72064 6.72116 6.60576 6.67196 6.50737C6.62277 6.40898 6.24038 5.43594 6.06543 5.04689Z" fill="white"/>
<path id="Vector_4" d="M13.6028 2.77465C12.116 1.28677 10.1389 0.466942 8.03255 0.466011C3.69198 0.466011 0.159647 3.99727 0.157902 8.33769C0.157391 9.72514 0.519902 11.0795 1.20894 12.2733L0.0917969 16.3525L4.26623 15.2578C5.41638 15.8851 6.71135 16.2156 8.02917 16.2161H8.03251H8.03255C12.3724 16.2161 15.9052 12.6843 15.9071 8.34404C15.9078 6.24051 15.0894 4.26263 13.6028 2.77465ZM8.03255 14.8866H8.02999C6.85535 14.886 5.70346 14.5706 4.69874 13.9744L4.45963 13.8327L1.98244 14.4822L2.64381 12.0678L2.48802 11.8203C1.8328 10.7784 1.4869 9.57447 1.48741 8.33821C1.48884 4.7306 4.42478 1.79564 8.03502 1.79564C9.78331 1.79637 11.4264 2.47783 12.6623 3.7145C13.898 4.95117 14.578 6.59514 14.5775 8.34355C14.5759 11.9513 11.6399 14.8866 8.03255 14.8866Z" fill="white"/>
</g>
<defs>
<linearGradient id="paint0_linear_32_615" x1="7.99898" y1="16.0776" x2="7.99898" y2="0.741114" gradientUnits="userSpaceOnUse">
<stop stop-color="#20B038"/>
<stop offset="1" stop-color="#60D66A"/>
</linearGradient>
<clipPath id="clip0_32_615">
<rect width="16" height="16.0709" fill="white" transform="translate(0 0.464531)"/>
</clipPath>
</defs>
</svg>
