<svg width="24" height="24" viewBox="0 0 24 24" fill="none" xmlns="http://www.w3.org/2000/svg">
<g id="Instagram_logo_2016 1" clip-path="url(#clip0_49_1194)">
<path id="Vector" d="M12.0058 0.181824C7.07103 0.181824 5.6278 0.186914 5.34726 0.210187C4.33457 0.294366 3.7044 0.453816 3.01788 0.795624C2.4888 1.05834 2.07154 1.36288 1.65974 1.78978C0.909762 2.5683 0.45523 3.52609 0.29069 4.6646C0.210692 5.21731 0.18742 5.33004 0.182693 8.15322C0.180875 9.09429 0.182693 10.3328 0.182693 11.994C0.182693 16.9248 0.188147 18.3666 0.211783 18.6465C0.293599 19.632 0.448139 20.252 0.775402 20.9301C1.40084 22.2283 2.59535 23.2028 4.00258 23.5664C4.48984 23.6919 5.028 23.7609 5.71889 23.7937C6.01161 23.8064 8.99515 23.8155 11.9805 23.8155C14.9659 23.8155 17.9512 23.8119 18.2367 23.7973C19.0367 23.7597 19.5012 23.6973 20.0148 23.5646C21.4311 23.1991 22.6038 22.2392 23.242 20.9228C23.5629 20.261 23.7256 19.6174 23.7992 18.6835C23.8153 18.4798 23.822 15.2332 23.822 11.9909C23.822 8.74812 23.8147 5.50748 23.7987 5.30385C23.7242 4.35479 23.5614 3.71663 23.2302 3.0421C22.9584 2.48994 22.6566 2.07759 22.2184 1.65596C21.4364 0.909075 20.4801 0.454543 19.3405 0.290184C18.7883 0.210368 18.6783 0.186733 15.8529 0.181824H12.0058Z" fill="url(#paint0_radial_49_1194)"/>
<path id="Vector_2" d="M12.0058 0.181824C7.07103 0.181824 5.6278 0.186914 5.34726 0.210187C4.33457 0.294366 3.7044 0.453816 3.01788 0.795624C2.4888 1.05834 2.07154 1.36288 1.65974 1.78978C0.909762 2.5683 0.45523 3.52609 0.29069 4.6646C0.210692 5.21731 0.18742 5.33004 0.182693 8.15322C0.180875 9.09429 0.182693 10.3328 0.182693 11.994C0.182693 16.9248 0.188147 18.3666 0.211783 18.6465C0.293599 19.632 0.448139 20.252 0.775402 20.9301C1.40084 22.2283 2.59535 23.2028 4.00258 23.5664C4.48984 23.6919 5.028 23.7609 5.71889 23.7937C6.01161 23.8064 8.99515 23.8155 11.9805 23.8155C14.9659 23.8155 17.9512 23.8119 18.2367 23.7973C19.0367 23.7597 19.5012 23.6973 20.0148 23.5646C21.4311 23.1991 22.6038 22.2392 23.242 20.9228C23.5629 20.261 23.7256 19.6174 23.7992 18.6835C23.8153 18.4798 23.822 15.2332 23.822 11.9909C23.822 8.74812 23.8147 5.50748 23.7987 5.30385C23.7242 4.35479 23.5614 3.71663 23.2302 3.0421C22.9584 2.48994 22.6566 2.07759 22.2184 1.65596C21.4364 0.909075 20.4801 0.454543 19.3405 0.290184C18.7883 0.210368 18.6783 0.186733 15.8529 0.181824H12.0058Z" fill="url(#paint1_radial_49_1194)"/>
<path id="Vector_3" d="M12.0004 3.27264C9.63033 3.27264 9.33289 3.28301 8.402 3.32537C7.47294 3.36791 6.83878 3.515 6.28389 3.73081C5.7099 3.95371 5.22301 4.25189 4.73793 4.73715C4.25249 5.22222 3.95432 5.70912 3.73069 6.28292C3.51433 6.83799 3.36707 7.47234 3.32525 8.40104C3.28361 9.33192 3.27271 9.62955 3.27271 11.9997C3.27271 14.3698 3.28325 14.6663 3.32543 15.5972C3.36816 16.5263 3.51524 17.1604 3.73087 17.7153C3.95396 18.2893 4.25213 18.7762 4.73739 19.2613C5.22228 19.7467 5.70918 20.0456 6.2828 20.2685C6.83805 20.4843 7.4724 20.6314 8.40128 20.6739C9.33216 20.7163 9.62942 20.7267 11.9993 20.7267C14.3696 20.7267 14.6662 20.7163 15.5971 20.6739C16.5261 20.6314 17.161 20.4843 17.7163 20.2685C18.2901 20.0456 18.7762 19.7467 19.2611 19.2613C19.7466 18.7762 20.0447 18.2893 20.2684 17.7155C20.4829 17.1604 20.6302 16.5261 20.6738 15.5974C20.7156 14.6665 20.7265 14.3698 20.7265 11.9997C20.7265 9.62955 20.7156 9.3321 20.6738 8.40122C20.6302 7.47216 20.4829 6.83799 20.2684 6.2831C20.0447 5.70912 19.7466 5.22222 19.2611 4.73715C18.7757 4.25171 18.2903 3.95353 17.7157 3.73081C17.1594 3.515 16.5248 3.36791 15.5958 3.32537C14.6649 3.28301 14.3686 3.27264 11.9977 3.27264H12.0004ZM11.2176 4.84532C11.4499 4.84496 11.7092 4.84532 12.0004 4.84532C14.3306 4.84532 14.6067 4.85369 15.5269 4.89551C16.3778 4.93441 16.8396 5.07659 17.1472 5.19604C17.5545 5.35422 17.8448 5.5433 18.1501 5.84875C18.4555 6.1542 18.6446 6.4451 18.8031 6.85236C18.9226 7.15962 19.065 7.62142 19.1037 8.47231C19.1455 9.39228 19.1546 9.66864 19.1546 11.9977C19.1546 14.3267 19.1455 14.603 19.1037 15.523C19.0648 16.3739 18.9226 16.8357 18.8031 17.143C18.645 17.5502 18.4555 17.8402 18.1501 18.1455C17.8446 18.4509 17.5546 18.64 17.1472 18.7982C16.8399 18.9182 16.3778 19.06 15.5269 19.0989C14.6069 19.1407 14.3306 19.1498 12.0004 19.1498C9.67015 19.1498 9.39397 19.1407 8.474 19.0989C7.62312 19.0596 7.16131 18.9175 6.85351 18.798C6.44625 18.6398 6.15534 18.4507 5.8499 18.1453C5.54445 17.8399 5.35537 17.5497 5.19683 17.1422C5.07738 16.835 4.93502 16.3732 4.89629 15.5223C4.85448 14.6023 4.84611 14.326 4.84611 11.9955C4.84611 9.665 4.85448 9.3901 4.89629 8.47013C4.9352 7.61924 5.07738 7.15744 5.19683 6.84981C5.35501 6.44255 5.54445 6.15165 5.8499 5.8462C6.15534 5.54076 6.44625 5.35167 6.85351 5.19313C7.16113 5.07314 7.62312 4.93132 8.474 4.89223C9.27907 4.85587 9.59106 4.84496 11.2176 4.84314V4.84532ZM16.6588 6.29437C16.0807 6.29437 15.6116 6.7629 15.6116 7.34125C15.6116 7.91942 16.0807 8.38849 16.6588 8.38849C17.237 8.38849 17.7061 7.91942 17.7061 7.34125C17.7061 6.76309 17.237 6.29401 16.6588 6.29401V6.29437ZM12.0004 7.51797C9.52542 7.51797 7.51876 9.52464 7.51876 11.9997C7.51876 14.4747 9.52542 16.4804 12.0004 16.4804C14.4755 16.4804 16.4814 14.4747 16.4814 11.9997C16.4814 9.52464 14.4755 7.51797 12.0004 7.51797ZM12.0004 9.09065C13.6069 9.09065 14.9094 10.393 14.9094 11.9997C14.9094 13.6062 13.6069 14.9087 12.0004 14.9087C10.3938 14.9087 9.09144 13.6062 9.09144 11.9997C9.09144 10.393 10.3938 9.09065 12.0004 9.09065Z" fill="white"/>
</g>
<defs>
<radialGradient id="paint0_radial_49_1194" cx="0" cy="0" r="1" gradientUnits="userSpaceOnUse" gradientTransform="translate(6.46131 25.6358) rotate(-90) scale(23.4227 21.7909)">
<stop stop-color="#FFDD55"/>
<stop offset="0.1" stop-color="#FFDD55"/>
<stop offset="0.5" stop-color="#FF543E"/>
<stop offset="1" stop-color="#C837AB"/>
</radialGradient>
<radialGradient id="paint1_radial_49_1194" cx="0" cy="0" r="1" gradientUnits="userSpaceOnUse" gradientTransform="translate(-3.77796 1.88435) rotate(78.6776) scale(10.4702 43.1693)">
<stop stop-color="#3771C8"/>
<stop offset="0.128" stop-color="#3771C8"/>
<stop offset="1" stop-color="#6600FF" stop-opacity="0"/>
</radialGradient>
<clipPath id="clip0_49_1194">
<rect width="24" height="23.9993" fill="white"/>
</clipPath>
</defs>
</svg>
